<?xml version="1.0" encoding="UTF-8" standalone="no"?><svg xmlns="http://www.w3.org/2000/svg" xmlns:xlink="http://www.w3.org/1999/xlink" contentScriptType="application/ecmascript" contentStyleType="text/css" height="800px" preserveAspectRatio="none" style="width:728px;height:800px;" version="1.1" viewBox="0 0 728 800" width="728px" zoomAndPan="magnify"><defs><filter height="300%" id="fio5e8ozsw5co" width="300%" x="-1" y="-1"><feGaussianBlur result="blurOut" stdDeviation="2.0"/><feColorMatrix in="blurOut" result="blurOut2" type="matrix" values="0 0 0 0 0 0 0 0 0 0 0 0 0 0 0 0 0 0 .4 0"/><feOffset dx="4.0" dy="4.0" in="blurOut2" result="blurOut3"/><feBlend in="SourceGraphic" in2="blurOut3" mode="normal"/></filter></defs><g><ellipse cx="381" cy="20" fill="#000000" filter="url(#fio5e8ozsw5co)" rx="10" ry="10" style="stroke: none; stroke-width: 1.0;"/><polygon fill="#FEFECE" filter="url(#fio5e8ozsw5co)" points="48,94,119,94,131,106,119,118,48,118,36,106,48,94" style="stroke: #A80036; stroke-width: 1.5;"/><text fill="#000000" font-family="sans-serif" font-size="11" lengthAdjust="spacingAndGlyphs" textLength="14" x="87.5" y="128.2051">no</text><text fill="#000000" font-family="sans-serif" font-size="11" lengthAdjust="spacingAndGlyphs" textLength="71" x="48" y="109.7598">matchedOP?</text><polygon fill="#FEFECE" filter="url(#fio5e8ozsw5co)" points="163,94,253,94,265,106,253,118,163,118,151,106,163,94" style="stroke: #A80036; stroke-width: 1.5;"/><text fill="#000000" font-family="sans-serif" font-size="11" lengthAdjust="spacingAndGlyphs" textLength="14" x="212" y="128.2051">no</text><text fill="#000000" font-family="sans-serif" font-size="11" lengthAdjust="spacingAndGlyphs" textLength="90" x="163" y="109.7598">matchedTarget?</text><polygon fill="#FEFECE" filter="url(#fio5e8ozsw5co)" points="358.5,94,429.5,94,441.5,106,429.5,118,358.5,118,346.5,106,358.5,94" style="stroke: #A80036; stroke-width: 1.5;"/><text fill="#000000" font-family="sans-serif" font-size="11" lengthAdjust="spacingAndGlyphs" textLength="14" x="398" y="128.2051">no</text><text fill="#000000" font-family="sans-serif" font-size="11" lengthAdjust="spacingAndGlyphs" textLength="71" x="358.5" y="109.7598">emptyFilters?</text><text fill="#000000" font-family="sans-serif" font-size="11" lengthAdjust="spacingAndGlyphs" textLength="18" x="441.5" y="103.3145">yes</text><rect fill="#FEFECE" filter="url(#fio5e8ozsw5co)" height="34.0625" rx="12.5" ry="12.5" style="stroke: #A80036; stroke-width: 1.5;" width="159" x="314.5" y="290.5957"/><text fill="#000000" font-family="sans-serif" font-size="12" lengthAdjust="spacingAndGlyphs" textLength="139" x="324.5" y="311.7285">return "Can't Check eACL"</text><ellipse cx="394" cy="362.127" fill="#FFFFFF" filter="url(#fio5e8ozsw5co)" rx="10" ry="10" style="stroke: #000000; stroke-width: 1.5;"/><line style="stroke: #000000; stroke-width: 2.5;" x1="387.8128" x2="400.1872" y1="355.9398" y2="368.3141"/><line style="stroke: #000000; stroke-width: 2.5;" x1="400.1872" x2="387.8128" y1="355.9398" y2="368.3141"/><polygon fill="#FEFECE" filter="url(#fio5e8ozsw5co)" points="339.5,242.1504,448.5,242.1504,460.5,254.1504,448.5,266.1504,339.5,266.1504,327.5,254.1504,339.5,242.1504" style="stroke: #A80036; stroke-width: 1.5;"/><text fill="#000000" font-family="sans-serif" font-size="11" lengthAdjust="spacingAndGlyphs" textLength="18" x="398" y="276.3555">yes</text><text fill="#000000" font-family="sans-serif" font-size="11" lengthAdjust="spacingAndGlyphs" textLength="109" x="339.5" y="257.9102">errorMatchingFilter?</text><rect fill="#FEFECE" filter="url(#fio5e8ozsw5co)" height="34.0625" rx="12.5" ry="12.5" style="stroke: #A80036; stroke-width: 1.5;" width="120" x="334" y="437.2129"/><text fill="#000000" font-family="sans-serif" font-size="12" lengthAdjust="spacingAndGlyphs" textLength="100" x="344" y="458.3457">goto next ACLRule</text><ellipse cx="394" cy="501.2754" fill="#FFFFFF" filter="url(#fio5e8ozsw5co)" rx="10" ry="10" style="stroke: #000000; stroke-width: 1.5;"/><line style="stroke: #000000; stroke-width: 2.5;" x1="387.8128" x2="400.1872" y1="495.0882" y2="507.4626"/><line style="stroke: #000000; stroke-width: 2.5;" x1="400.1872" x2="387.8128" y1="495.0882" y2="507.4626"/><polygon fill="#FEFECE" filter="url(#fio5e8ozsw5co)" points="353.5,193.7051,434.5,193.7051,446.5,205.7051,434.5,217.7051,353.5,217.7051,341.5,205.7051,353.5,193.7051" style="stroke: #A80036; stroke-width: 1.5;"/><text fill="#000000" font-family="sans-serif" font-size="11" lengthAdjust="spacingAndGlyphs" textLength="14" x="398" y="227.9102">no</text><text fill="#000000" font-family="sans-serif" font-size="11" lengthAdjust="spacingAndGlyphs" textLength="81" x="353.5" y="209.4648">matchedFilter?</text><text fill="#000000" font-family="sans-serif" font-size="11" lengthAdjust="spacingAndGlyphs" textLength="18" x="446.5" y="203.0195">yes</text><polygon fill="#FEFECE" filter="url(#fio5e8ozsw5co)" points="366.5,149.7051,421.5,149.7051,433.5,161.7051,421.5,173.7051,366.5,173.7051,354.5,161.7051,366.5,149.7051" style="stroke: #A80036; stroke-width: 1.5;"/><text fill="#000000" font-family="sans-serif" font-size="11" lengthAdjust="spacingAndGlyphs" textLength="55" x="366.5" y="165.4648">NextFilter?</text><text fill="#000000" font-family="sans-serif" font-size="11" lengthAdjust="spacingAndGlyphs" textLength="14" x="340.5" y="159.0195">no</text><rect fill="#FEFECE" filter="url(#fio5e8ozsw5co)" height="34.0625" rx="12.5" ry="12.5" style="stroke: #A80036; stroke-width: 1.5;" width="191" x="298.5" y="575.2754"/><text fill="#000000" font-family="sans-serif" font-size="12" lengthAdjust="spacingAndGlyphs" textLength="171" x="308.5" y="596.4082">return permission from "Action"</text><ellipse cx="394" cy="640.3379" fill="#FFFFFF" filter="url(#fio5e8ozsw5co)" rx="11" ry="11" style="stroke: #000000; stroke-width: 1.0;"/><ellipse cx="394" cy="640.3379" fill="#000000" rx="6" ry="6" style="stroke: #7F7F7F; stroke-width: 1.0;"/><rect fill="#FEFECE" filter="url(#fio5e8ozsw5co)" height="34.0625" rx="12.5" ry="12.5" style="stroke: #A80036; stroke-width: 1.5;" width="191" x="499.5" y="373.6816"/><text fill="#000000" font-family="sans-serif" font-size="12" lengthAdjust="spacingAndGlyphs" textLength="171" x="509.5" y="394.8145">return permission from "Action"</text><ellipse cx="595" cy="453.3848" fill="#FFFFFF" filter="url(#fio5e8ozsw5co)" rx="11" ry="11" style="stroke: #000000; stroke-width: 1.0;"/><ellipse cx="595" cy="453.3848" fill="#000000" rx="6" ry="6" style="stroke: #7F7F7F; stroke-width: 1.0;"/><polygon fill="#FEFECE" filter="url(#fio5e8ozsw5co)" points="344.5,50,417.5,50,429.5,62,417.5,74,344.5,74,332.5,62,344.5,50" style="stroke: #A80036; stroke-width: 1.5;"/><text fill="#000000" font-family="sans-serif" font-size="11" lengthAdjust="spacingAndGlyphs" textLength="73" x="344.5" y="65.7598">NextACLRule?</text><text fill="#000000" font-family="sans-serif" font-size="11" lengthAdjust="spacingAndGlyphs" textLength="14" x="318.5" y="59.3145">no</text><rect fill="#FEFECE" filter="url(#fio5e8ozsw5co)" height="34.0625" rx="12.5" ry="12.5" style="stroke: #A80036; stroke-width: 1.5;" width="212" x="275" y="713.3379"/><text fill="#000000" font-family="sans-serif" font-size="12" lengthAdjust="spacingAndGlyphs" textLength="192" x="285" y="734.4707">return permission from "Basic ACL"</text><ellipse cx="381" cy="778.4004" fill="#FFFFFF" filter="url(#fio5e8ozsw5co)" rx="11" ry="11" style="stroke: #000000; stroke-width: 1.0;"/><ellipse cx="381" cy="778.4004" fill="#000000" rx="6" ry="6" style="stroke: #7F7F7F; stroke-width: 1.0;"/><line style="stroke: #A80036; stroke-width: 1.5;" x1="394" x2="394" y1="324.6582" y2="352.127"/><polygon fill="#A80036" points="390,342.127,394,352.127,398,342.127,394,346.127" style="stroke: #A80036; stroke-width: 1.0;"/><line style="stroke: #A80036; stroke-width: 1.5;" x1="394" x2="394" y1="266.1504" y2="290.5957"/><polygon fill="#A80036" points="390,280.5957,394,290.5957,398,280.5957,394,284.5957" style="stroke: #A80036; stroke-width: 1.0;"/><line style="stroke: #A80036; stroke-width: 1.5;" x1="460.5" x2="483.5" y1="254.1504" y2="254.1504"/><polygon fill="#A80036" points="479.5,322.127,483.5,332.127,487.5,322.127,483.5,326.127" style="stroke: #A80036; stroke-width: 1.5;"/><line style="stroke: #A80036; stroke-width: 1.5;" x1="483.5" x2="483.5" y1="254.1504" y2="402.5723"/><line style="stroke: #A80036; stroke-width: 1.5;" x1="483.5" x2="394" y1="402.5723" y2="402.5723"/><line style="stroke: #A80036; stroke-width: 1.5;" x1="394" x2="394" y1="402.5723" y2="437.2129"/><polygon fill="#A80036" points="390,427.2129,394,437.2129,398,427.2129,394,431.2129" style="stroke: #A80036; stroke-width: 1.0;"/><line style="stroke: #A80036; stroke-width: 1.5;" x1="394" x2="394" y1="471.2754" y2="491.2754"/><polygon fill="#A80036" points="390,481.2754,394,491.2754,398,481.2754,394,485.2754" style="stroke: #A80036; stroke-width: 1.0;"/><line style="stroke: #A80036; stroke-width: 1.5;" x1="394" x2="394" y1="217.7051" y2="242.1504"/><polygon fill="#A80036" points="390,232.1504,394,242.1504,398,232.1504,394,236.1504" style="stroke: #A80036; stroke-width: 1.0;"/><line style="stroke: #A80036; stroke-width: 1.5;" x1="446.5" x2="494.5" y1="205.7051" y2="205.7051"/><line style="stroke: #A80036; stroke-width: 1.5;" x1="494.5" x2="494.5" y1="161.7051" y2="205.7051"/><line style="stroke: #A80036; stroke-width: 1.5;" x1="494.5" x2="433.5" y1="161.7051" y2="161.7051"/><polygon fill="#A80036" points="443.5,157.7051,433.5,161.7051,443.5,165.7051,439.5,161.7051" style="stroke: #A80036; stroke-width: 1.0;"/><line style="stroke: #A80036; stroke-width: 1.5;" x1="394" x2="394" y1="173.7051" y2="193.7051"/><polygon fill="#A80036" points="390,183.7051,394,193.7051,398,183.7051,394,187.7051" style="stroke: #A80036; stroke-width: 1.0;"/><line style="stroke: #A80036; stroke-width: 1.5;" x1="354.5" x2="282.5" y1="161.7051" y2="161.7051"/><polygon fill="#A80036" points="278.5,355.627,282.5,365.627,286.5,355.627,282.5,359.627" style="stroke: #A80036; stroke-width: 1.5;"/><line style="stroke: #A80036; stroke-width: 1.5;" x1="282.5" x2="282.5" y1="161.7051" y2="555.2754"/><line style="stroke: #A80036; stroke-width: 1.5;" x1="282.5" x2="394" y1="555.2754" y2="555.2754"/><line style="stroke: #A80036; stroke-width: 1.5;" x1="394" x2="394" y1="555.2754" y2="575.2754"/><polygon fill="#A80036" points="390,565.2754,394,575.2754,398,565.2754,394,569.2754" style="stroke: #A80036; stroke-width: 1.0;"/><line style="stroke: #A80036; stroke-width: 1.5;" x1="394" x2="394" y1="609.3379" y2="629.3379"/><polygon fill="#A80036" points="390,619.3379,394,629.3379,398,619.3379,394,623.3379" style="stroke: #A80036; stroke-width: 1.0;"/><line style="stroke: #A80036; stroke-width: 1.5;" x1="595" x2="595" y1="407.7441" y2="442.3848"/><polygon fill="#A80036" points="591,432.3848,595,442.3848,599,432.3848,595,436.3848" style="stroke: #A80036; stroke-width: 1.0;"/><line style="stroke: #A80036; stroke-width: 1.5;" x1="83.5" x2="83.5" y1="118" y2="671.3379"/><polygon fill="#A80036" points="79.5,661.3379,83.5,671.3379,87.5,661.3379,83.5,665.3379" style="stroke: #A80036; stroke-width: 1.0;"/><line style="stroke: #A80036; stroke-width: 1.5;" x1="208" x2="208" y1="118" y2="671.3379"/><polygon fill="#A80036" points="204,661.3379,208,671.3379,212,661.3379,208,665.3379" style="stroke: #A80036; stroke-width: 1.0;"/><line style="stroke: #A80036; stroke-width: 1.5;" x1="394" x2="394" y1="118" y2="149.7051"/><polygon fill="#A80036" points="390,139.7051,394,149.7051,398,139.7051,394,143.7051" style="stroke: #A80036; stroke-width: 1.0;"/><line style="stroke: #A80036; stroke-width: 1.5;" x1="131" x2="151" y1="106" y2="106"/><polygon fill="#A80036" points="141,102,151,106,141,110,145,106" style="stroke: #A80036; stroke-width: 1.0;"/><line style="stroke: #A80036; stroke-width: 1.5;" x1="265" x2="346.5" y1="106" y2="106"/><polygon fill="#A80036" points="336.5,102,346.5,106,336.5,110,340.5,106" style="stroke: #A80036; stroke-width: 1.0;"/><line style="stroke: #A80036; stroke-width: 1.5;" x1="381" x2="381" y1="74" y2="79"/><line style="stroke: #A80036; stroke-width: 1.5;" x1="381" x2="83.5" y1="79" y2="79"/><line style="stroke: #A80036; stroke-width: 1.5;" x1="83.5" x2="83.5" y1="79" y2="94"/><polygon fill="#A80036" points="79.5,84,83.5,94,87.5,84,83.5,88" style="stroke: #A80036; stroke-width: 1.0;"/><line style="stroke: #A80036; stroke-width: 1.5;" x1="441.5" x2="595" y1="106" y2="106"/><line style="stroke: #A80036; stroke-width: 1.5;" x1="595" x2="595" y1="106" y2="373.6816"/><polygon fill="#A80036" points="591,363.6816,595,373.6816,599,363.6816,595,367.6816" style="stroke: #A80036; stroke-width: 1.0;"/><line style="stroke: #A80036; stroke-width: 1.5;" x1="83.5" x2="381" y1="671.3379" y2="671.3379"/><line style="stroke: #A80036; stroke-width: 1.5;" x1="381" x2="381" y1="671.3379" y2="681.3379"/><line style="stroke: #A80036; stroke-width: 1.5;" x1="381" x2="702.5" y1="681.3379" y2="681.3379"/><polygon fill="#A80036" points="698.5,417.2129,702.5,407.2129,706.5,417.2129,702.5,413.2129" style="stroke: #A80036; stroke-width: 1.5;"/><line style="stroke: #A80036; stroke-width: 1.5;" x1="702.5" x2="702.5" y1="62" y2="681.3379"/><line style="stroke: #A80036; stroke-width: 1.5;" x1="702.5" x2="429.5" y1="62" y2="62"/><polygon fill="#A80036" points="439.5,58,429.5,62,439.5,66,435.5,62" style="stroke: #A80036; stroke-width: 1.0;"/><line style="stroke: #A80036; stroke-width: 1.5;" x1="332.5" x2="24" y1="62" y2="62"/><polygon fill="#A80036" points="20,403.2129,24,413.2129,28,403.2129,24,407.2129" style="stroke: #A80036; stroke-width: 1.5;"/><line style="stroke: #A80036; stroke-width: 1.5;" x1="24" x2="24" y1="62" y2="693.3379"/><line style="stroke: #A80036; stroke-width: 1.5;" x1="24" x2="381" y1="693.3379" y2="693.3379"/><line style="stroke: #A80036; stroke-width: 1.5;" x1="381" x2="381" y1="693.3379" y2="713.3379"/><polygon fill="#A80036" points="377,703.3379,381,713.3379,385,703.3379,381,707.3379" style="stroke: #A80036; stroke-width: 1.0;"/><line style="stroke: #A80036; stroke-width: 1.5;" x1="381" x2="381" y1="30" y2="50"/><polygon fill="#A80036" points="377,40,381,50,385,40,381,44" style="stroke: #A80036; stroke-width: 1.0;"/><line style="stroke: #A80036; stroke-width: 1.5;" x1="381" x2="381" y1="747.4004" y2="767.4004"/><polygon fill="#A80036" points="377,757.4004,381,767.4004,385,757.4004,381,761.4004" style="stroke: #A80036; stroke-width: 1.0;"/><!--MD5=[7a67945ca5028da40212b7515da7eb00]
@startuml

start

while (NextACLRule?)
  if (matchedOP?) then (no)
  elseif (matchedTarget?) then (no)
  elseif (emptyFilters?) then (no)
    while (NextFilter?)
        if (matchedFilter?) then (yes)
        else (no)
          if (errorMatchingFilter?) then (yes)
            :return "Can't Check eACL";
            end
          endif

         :goto next ACLRule;
         end
        endif
    endwhile(no)
    :return permission from "Action";
    stop
  else (yes)
    :return permission from "Action";
    stop
  endif

endwhile (no)
:return permission from "Basic ACL";
stop
@enduml

PlantUML version 1.2020.09(Sun May 10 13:51:06 MSK 2020)
(GPL source distribution)
Java Runtime: OpenJDK Runtime Environment
JVM: OpenJDK 64-Bit Server VM
Java Version: 11.0.25+9-suse-150000.3.119.1-x8664
Operating System: Linux
Default Encoding: UTF-8
Language: ru
Country: RU
--></g></svg>