<?xml version="1.0" encoding="UTF-8" standalone="no"?><svg xmlns="http://www.w3.org/2000/svg" xmlns:xlink="http://www.w3.org/1999/xlink" contentScriptType="application/ecmascript" contentStyleType="text/css" height="985px" preserveAspectRatio="none" style="width:541px;height:985px;" version="1.1" viewBox="0 0 541 985" width="541px" zoomAndPan="magnify"><defs><filter height="300%" id="fazb889fs0rtj" width="300%" x="-1" y="-1"><feGaussianBlur result="blurOut" stdDeviation="2.0"/><feColorMatrix in="blurOut" result="blurOut2" type="matrix" values="0 0 0 0 0 0 0 0 0 0 0 0 0 0 0 0 0 0 .4 0"/><feOffset dx="4.0" dy="4.0" in="blurOut2" result="blurOut3"/><feBlend in="SourceGraphic" in2="blurOut3" mode="normal"/></filter></defs><g><ellipse cx="249.5" cy="20" fill="#000000" filter="url(#fazb889fs0rtj)" rx="10" ry="10" style="stroke: none; stroke-width: 1.0;"/><rect fill="#FFFFFF" filter="url(#fazb889fs0rtj)" height="410.6055" style="stroke: #000000; stroke-width: 2.0;" width="513" x="11" y="40"/><path d="M132,41 L132,49.2969 L122,59.2969 L11,59.2969 " fill="none" style="stroke: #000000; stroke-width: 2.0;"/><text fill="#000000" font-family="sans-serif" font-size="14" lengthAdjust="spacingAndGlyphs" textLength="111" x="14" y="53.9951">BasicACL Check</text><rect fill="#FEFECE" filter="url(#fazb889fs0rtj)" height="33.9688" rx="12.5" ry="12.5" style="stroke: #A80036; stroke-width: 1.5;" width="130" x="184.5" y="76.2969"/><text fill="#000000" font-family="sans-serif" font-size="12" lengthAdjust="spacingAndGlyphs" textLength="110" x="194.5" y="97.4355">SelectNibbleMask</text><polygon fill="#FEFECE" filter="url(#fazb889fs0rtj)" points="220,130.2656,279,130.2656,291,142.2656,279,154.2656,220,154.2656,208,142.2656,220,130.2656" style="stroke: #A80036; stroke-width: 1.5;"/><text fill="#000000" font-family="sans-serif" font-size="11" lengthAdjust="spacingAndGlyphs" textLength="59" x="220" y="146.0737">isSystem?</text><text fill="#000000" font-family="sans-serif" font-size="11" lengthAdjust="spacingAndGlyphs" textLength="20" x="188" y="139.6714">yes</text><text fill="#000000" font-family="sans-serif" font-size="11" lengthAdjust="spacingAndGlyphs" textLength="14" x="291" y="139.6714">no</text><polygon fill="#FEFECE" filter="url(#fazb889fs0rtj)" points="101.5,164.2656,127.5,164.2656,139.5,176.2656,127.5,188.2656,101.5,188.2656,89.5,176.2656,101.5,164.2656" style="stroke: #A80036; stroke-width: 1.5;"/><text fill="#000000" font-family="sans-serif" font-size="11" lengthAdjust="spacingAndGlyphs" textLength="26" x="101.5" y="180.0737">isIR?</text><text fill="#000000" font-family="sans-serif" font-size="11" lengthAdjust="spacingAndGlyphs" textLength="20" x="69.5" y="173.6714">yes</text><text fill="#000000" font-family="sans-serif" font-size="11" lengthAdjust="spacingAndGlyphs" textLength="65" x="139.5" y="173.6714">isContainer</text><rect fill="#FEFECE" filter="url(#fazb889fs0rtj)" height="33.9688" rx="12.5" ry="12.5" style="stroke: #A80036; stroke-width: 1.5;" width="69" x="23" y="198.2656"/><text fill="#000000" font-family="sans-serif" font-size="12" lengthAdjust="spacingAndGlyphs" textLength="49" x="33" y="219.4043">CheckIR</text><rect fill="#FEFECE" filter="url(#fazb889fs0rtj)" height="33.9688" rx="12.5" ry="12.5" style="stroke: #A80036; stroke-width: 1.5;" width="119" x="112" y="198.2656"/><text fill="#000000" font-family="sans-serif" font-size="12" lengthAdjust="spacingAndGlyphs" textLength="99" x="122" y="219.4043">CheckContainer</text><polygon fill="#FEFECE" filter="url(#fazb889fs0rtj)" points="114.5,238.2344,126.5,250.2344,114.5,262.2344,102.5,250.2344,114.5,238.2344" style="stroke: #A80036; stroke-width: 1.5;"/><polygon fill="#FEFECE" filter="url(#fazb889fs0rtj)" points="358,164.2656,411,164.2656,423,176.2656,411,188.2656,358,188.2656,346,176.2656,358,164.2656" style="stroke: #A80036; stroke-width: 1.5;"/><text fill="#000000" font-family="sans-serif" font-size="11" lengthAdjust="spacingAndGlyphs" textLength="53" x="358" y="180.0737">isOwner?</text><text fill="#000000" font-family="sans-serif" font-size="11" lengthAdjust="spacingAndGlyphs" textLength="20" x="326" y="173.6714">yes</text><text fill="#000000" font-family="sans-serif" font-size="11" lengthAdjust="spacingAndGlyphs" textLength="49" x="423" y="173.6714">isOthers</text><rect fill="#FEFECE" filter="url(#fazb889fs0rtj)" height="33.9688" rx="12.5" ry="12.5" style="stroke: #A80036; stroke-width: 1.5;" width="97" x="276.75" y="198.2656"/><text fill="#000000" font-family="sans-serif" font-size="12" lengthAdjust="spacingAndGlyphs" textLength="77" x="286.75" y="219.4043">CheckOwner</text><rect fill="#FEFECE" filter="url(#fazb889fs0rtj)" height="33.9688" rx="12.5" ry="12.5" style="stroke: #A80036; stroke-width: 1.5;" width="100" x="393.75" y="198.2656"/><text fill="#000000" font-family="sans-serif" font-size="12" lengthAdjust="spacingAndGlyphs" textLength="80" x="403.75" y="219.4043">CheckOthers</text><polygon fill="#FEFECE" filter="url(#fazb889fs0rtj)" points="384.5,238.2344,396.5,250.2344,384.5,262.2344,372.5,250.2344,384.5,238.2344" style="stroke: #A80036; stroke-width: 1.5;"/><rect fill="#FEFECE" filter="url(#fazb889fs0rtj)" height="33.9688" rx="12.5" ry="12.5" style="stroke: #A80036; stroke-width: 1.5;" width="227" x="271" y="330.6367"/><text fill="#000000" font-family="sans-serif" font-size="12" lengthAdjust="spacingAndGlyphs" textLength="207" x="281" y="351.7754">CheckObjectRequestOwnerMatch</text><polygon fill="#FEFECE" filter="url(#fazb889fs0rtj)" points="360,282.2344,409,282.2344,421,294.2344,409,306.2344,360,306.2344,348,294.2344,360,282.2344" style="stroke: #A80036; stroke-width: 1.5;"/><text fill="#000000" font-family="sans-serif" font-size="11" lengthAdjust="spacingAndGlyphs" textLength="20" x="388.5" y="316.4448">yes</text><text fill="#000000" font-family="sans-serif" font-size="11" lengthAdjust="spacingAndGlyphs" textLength="49" x="360" y="298.0425">isSticky?</text><polygon fill="#FEFECE" filter="url(#fazb889fs0rtj)" points="384.5,384.6055,396.5,396.6055,384.5,408.6055,372.5,396.6055,384.5,384.6055" style="stroke: #A80036; stroke-width: 1.5;"/><polygon fill="#FEFECE" filter="url(#fazb889fs0rtj)" points="249.5,414.6055,261.5,426.6055,249.5,438.6055,237.5,426.6055,249.5,414.6055" style="stroke: #A80036; stroke-width: 1.5;"/><rect fill="#FFFFFF" filter="url(#fazb889fs0rtj)" height="339.5859" style="stroke: #000000; stroke-width: 2.0;" width="188" x="169.5" y="460.6055"/><path d="M273.5,461.6055 L273.5,469.9023 L263.5,479.9023 L169.5,479.9023 " fill="none" style="stroke: #000000; stroke-width: 2.0;"/><text fill="#000000" font-family="sans-serif" font-size="14" lengthAdjust="spacingAndGlyphs" textLength="94" x="172.5" y="474.6006">Bearer Check</text><rect fill="#FEFECE" filter="url(#fazb889fs0rtj)" height="33.9688" rx="12.5" ry="12.5" style="stroke: #A80036; stroke-width: 1.5;" width="100" x="199.5" y="593.707"/><text fill="#000000" font-family="sans-serif" font-size="12" lengthAdjust="spacingAndGlyphs" textLength="80" x="209.5" y="614.8457">CheckBearer</text><ellipse cx="249.5" cy="667.1914" fill="#FFFFFF" filter="url(#fazb889fs0rtj)" rx="11" ry="11" style="stroke: #000000; stroke-width: 1.0;"/><ellipse cx="249.5" cy="667.1914" fill="#000000" rx="6" ry="6" style="stroke: #7F7F7F; stroke-width: 1.0;"/><polygon fill="#FEFECE" filter="url(#fazb889fs0rtj)" points="216.5,545.3047,282.5,545.3047,294.5,557.3047,282.5,569.3047,216.5,569.3047,204.5,557.3047,216.5,545.3047" style="stroke: #A80036; stroke-width: 1.5;"/><text fill="#000000" font-family="sans-serif" font-size="11" lengthAdjust="spacingAndGlyphs" textLength="20" x="253.5" y="579.5151">yes</text><text fill="#000000" font-family="sans-serif" font-size="11" lengthAdjust="spacingAndGlyphs" textLength="66" x="216.5" y="561.1128">hasBearer?</text><text fill="#000000" font-family="sans-serif" font-size="11" lengthAdjust="spacingAndGlyphs" textLength="14" x="294.5" y="554.7104">no</text><polygon fill="#FEFECE" filter="url(#fazb889fs0rtj)" points="194,496.9023,305,496.9023,317,508.9023,305,520.9023,194,520.9023,182,508.9023,194,496.9023" style="stroke: #A80036; stroke-width: 1.5;"/><text fill="#000000" font-family="sans-serif" font-size="11" lengthAdjust="spacingAndGlyphs" textLength="20" x="253.5" y="531.1128">yes</text><text fill="#000000" font-family="sans-serif" font-size="11" lengthAdjust="spacingAndGlyphs" textLength="111" x="194" y="512.7104">hasBearerEnabled?</text><polygon fill="#FEFECE" filter="url(#fazb889fs0rtj)" points="249.5,720.1914,261.5,732.1914,249.5,744.1914,237.5,732.1914,249.5,720.1914" style="stroke: #A80036; stroke-width: 1.5;"/><polygon fill="#FEFECE" filter="url(#fazb889fs0rtj)" points="228.5,764.1914,270.5,764.1914,282.5,776.1914,270.5,788.1914,228.5,788.1914,216.5,776.1914,228.5,764.1914" style="stroke: #A80036; stroke-width: 1.5;"/><text fill="#000000" font-family="sans-serif" font-size="11" lengthAdjust="spacingAndGlyphs" textLength="42" x="228.5" y="779.9995">isFinal?</text><text fill="#000000" font-family="sans-serif" font-size="11" lengthAdjust="spacingAndGlyphs" textLength="20" x="282.5" y="773.5972">yes</text><ellipse cx="324.5" cy="776.1914" fill="#FFFFFF" filter="url(#fazb889fs0rtj)" rx="11" ry="11" style="stroke: #000000; stroke-width: 1.0;"/><ellipse cx="324.5" cy="776.1914" fill="#000000" rx="6" ry="6" style="stroke: #7F7F7F; stroke-width: 1.0;"/><rect fill="#FFFFFF" filter="url(#fazb889fs0rtj)" height="158.2656" style="stroke: #000000; stroke-width: 2.0;" width="229" x="162.25" y="810.1914"/><path d="M312.25,811.1914 L312.25,819.4883 L302.25,829.4883 L162.25,829.4883 " fill="none" style="stroke: #000000; stroke-width: 2.0;"/><text fill="#000000" font-family="sans-serif" font-size="14" lengthAdjust="spacingAndGlyphs" textLength="140" x="165.25" y="824.1865">ExtendedACL Check</text><polygon fill="#FEFECE" filter="url(#fazb889fs0rtj)" points="223,846.4883,276,846.4883,288,858.4883,276,870.4883,223,870.4883,211,858.4883,223,846.4883" style="stroke: #A80036; stroke-width: 1.5;"/><text fill="#000000" font-family="sans-serif" font-size="11" lengthAdjust="spacingAndGlyphs" textLength="53" x="223" y="862.2964">isSystem</text><text fill="#000000" font-family="sans-serif" font-size="11" lengthAdjust="spacingAndGlyphs" textLength="20" x="191" y="855.894">yes</text><ellipse cx="197.25" cy="890.4883" fill="#FFFFFF" filter="url(#fazb889fs0rtj)" rx="10" ry="10" style="stroke: #000000; stroke-width: 1.5;"/><line style="stroke: #000000; stroke-width: 2.5;" x1="191.0628" x2="203.4372" y1="884.3011" y2="896.6755"/><line style="stroke: #000000; stroke-width: 2.5;" x1="203.4372" x2="191.0628" y1="884.3011" y2="896.6755"/><rect fill="#FEFECE" filter="url(#fazb889fs0rtj)" height="33.9688" rx="12.5" ry="12.5" style="stroke: #A80036; stroke-width: 1.5;" width="139" x="232.25" y="880.4883"/><text fill="#000000" font-family="sans-serif" font-size="12" lengthAdjust="spacingAndGlyphs" textLength="119" x="242.25" y="901.627">CheckExtendedACL</text><ellipse cx="249.5" cy="945.457" fill="#FFFFFF" filter="url(#fazb889fs0rtj)" rx="11" ry="11" style="stroke: #000000; stroke-width: 1.0;"/><ellipse cx="249.5" cy="945.457" fill="#000000" rx="6" ry="6" style="stroke: #7F7F7F; stroke-width: 1.0;"/><line style="stroke: #A80036; stroke-width: 1.5;" x1="89.5" x2="57.5" y1="176.2656" y2="176.2656"/><line style="stroke: #A80036; stroke-width: 1.5;" x1="57.5" x2="57.5" y1="176.2656" y2="198.2656"/><polygon fill="#A80036" points="53.5,188.2656,57.5,198.2656,61.5,188.2656,57.5,192.2656" style="stroke: #A80036; stroke-width: 1.0;"/><line style="stroke: #A80036; stroke-width: 1.5;" x1="139.5" x2="171.5" y1="176.2656" y2="176.2656"/><line style="stroke: #A80036; stroke-width: 1.5;" x1="171.5" x2="171.5" y1="176.2656" y2="198.2656"/><polygon fill="#A80036" points="167.5,188.2656,171.5,198.2656,175.5,188.2656,171.5,192.2656" style="stroke: #A80036; stroke-width: 1.0;"/><line style="stroke: #A80036; stroke-width: 1.5;" x1="57.5" x2="57.5" y1="232.2344" y2="250.2344"/><line style="stroke: #A80036; stroke-width: 1.5;" x1="57.5" x2="102.5" y1="250.2344" y2="250.2344"/><polygon fill="#A80036" points="92.5,246.2344,102.5,250.2344,92.5,254.2344,96.5,250.2344" style="stroke: #A80036; stroke-width: 1.0;"/><line style="stroke: #A80036; stroke-width: 1.5;" x1="171.5" x2="171.5" y1="232.2344" y2="250.2344"/><line style="stroke: #A80036; stroke-width: 1.5;" x1="171.5" x2="126.5" y1="250.2344" y2="250.2344"/><polygon fill="#A80036" points="136.5,246.2344,126.5,250.2344,136.5,254.2344,132.5,250.2344" style="stroke: #A80036; stroke-width: 1.0;"/><line style="stroke: #A80036; stroke-width: 1.5;" x1="346" x2="325.25" y1="176.2656" y2="176.2656"/><line style="stroke: #A80036; stroke-width: 1.5;" x1="325.25" x2="325.25" y1="176.2656" y2="198.2656"/><polygon fill="#A80036" points="321.25,188.2656,325.25,198.2656,329.25,188.2656,325.25,192.2656" style="stroke: #A80036; stroke-width: 1.0;"/><line style="stroke: #A80036; stroke-width: 1.5;" x1="423" x2="443.75" y1="176.2656" y2="176.2656"/><line style="stroke: #A80036; stroke-width: 1.5;" x1="443.75" x2="443.75" y1="176.2656" y2="198.2656"/><polygon fill="#A80036" points="439.75,188.2656,443.75,198.2656,447.75,188.2656,443.75,192.2656" style="stroke: #A80036; stroke-width: 1.0;"/><line style="stroke: #A80036; stroke-width: 1.5;" x1="325.25" x2="325.25" y1="232.2344" y2="250.2344"/><line style="stroke: #A80036; stroke-width: 1.5;" x1="325.25" x2="372.5" y1="250.2344" y2="250.2344"/><polygon fill="#A80036" points="362.5,246.2344,372.5,250.2344,362.5,254.2344,366.5,250.2344" style="stroke: #A80036; stroke-width: 1.0;"/><line style="stroke: #A80036; stroke-width: 1.5;" x1="443.75" x2="443.75" y1="232.2344" y2="250.2344"/><line style="stroke: #A80036; stroke-width: 1.5;" x1="443.75" x2="396.5" y1="250.2344" y2="250.2344"/><polygon fill="#A80036" points="406.5,246.2344,396.5,250.2344,406.5,254.2344,402.5,250.2344" style="stroke: #A80036; stroke-width: 1.0;"/><line style="stroke: #A80036; stroke-width: 1.5;" x1="384.5" x2="384.5" y1="306.2344" y2="330.6367"/><polygon fill="#A80036" points="380.5,320.6367,384.5,330.6367,388.5,320.6367,384.5,324.6367" style="stroke: #A80036; stroke-width: 1.0;"/><line style="stroke: #A80036; stroke-width: 1.5;" x1="421" x2="508" y1="294.2344" y2="294.2344"/><polygon fill="#A80036" points="504,337.6211,508,347.6211,512,337.6211,508,341.6211" style="stroke: #A80036; stroke-width: 1.5;"/><line style="stroke: #A80036; stroke-width: 1.5;" x1="508" x2="508" y1="294.2344" y2="396.6055"/><line style="stroke: #A80036; stroke-width: 1.5;" x1="508" x2="396.5" y1="396.6055" y2="396.6055"/><polygon fill="#A80036" points="406.5,392.6055,396.5,396.6055,406.5,400.6055,402.5,396.6055" style="stroke: #A80036; stroke-width: 1.0;"/><line style="stroke: #A80036; stroke-width: 1.5;" x1="384.5" x2="384.5" y1="364.6055" y2="384.6055"/><polygon fill="#A80036" points="380.5,374.6055,384.5,384.6055,388.5,374.6055,384.5,378.6055" style="stroke: #A80036; stroke-width: 1.0;"/><line style="stroke: #A80036; stroke-width: 1.5;" x1="384.5" x2="384.5" y1="262.2344" y2="282.2344"/><polygon fill="#A80036" points="380.5,272.2344,384.5,282.2344,388.5,272.2344,384.5,276.2344" style="stroke: #A80036; stroke-width: 1.0;"/><line style="stroke: #A80036; stroke-width: 1.5;" x1="208" x2="114.5" y1="142.2656" y2="142.2656"/><line style="stroke: #A80036; stroke-width: 1.5;" x1="114.5" x2="114.5" y1="142.2656" y2="164.2656"/><polygon fill="#A80036" points="110.5,154.2656,114.5,164.2656,118.5,154.2656,114.5,158.2656" style="stroke: #A80036; stroke-width: 1.0;"/><line style="stroke: #A80036; stroke-width: 1.5;" x1="291" x2="384.5" y1="142.2656" y2="142.2656"/><line style="stroke: #A80036; stroke-width: 1.5;" x1="384.5" x2="384.5" y1="142.2656" y2="164.2656"/><polygon fill="#A80036" points="380.5,154.2656,384.5,164.2656,388.5,154.2656,384.5,158.2656" style="stroke: #A80036; stroke-width: 1.0;"/><line style="stroke: #A80036; stroke-width: 1.5;" x1="114.5" x2="114.5" y1="262.2344" y2="426.6055"/><line style="stroke: #A80036; stroke-width: 1.5;" x1="114.5" x2="237.5" y1="426.6055" y2="426.6055"/><polygon fill="#A80036" points="227.5,422.6055,237.5,426.6055,227.5,430.6055,231.5,426.6055" style="stroke: #A80036; stroke-width: 1.0;"/><line style="stroke: #A80036; stroke-width: 1.5;" x1="384.5" x2="384.5" y1="408.6055" y2="426.6055"/><line style="stroke: #A80036; stroke-width: 1.5;" x1="384.5" x2="261.5" y1="426.6055" y2="426.6055"/><polygon fill="#A80036" points="271.5,422.6055,261.5,426.6055,271.5,430.6055,267.5,426.6055" style="stroke: #A80036; stroke-width: 1.0;"/><line style="stroke: #A80036; stroke-width: 1.5;" x1="249.5" x2="249.5" y1="110.2656" y2="130.2656"/><polygon fill="#A80036" points="245.5,120.2656,249.5,130.2656,253.5,120.2656,249.5,124.2656" style="stroke: #A80036; stroke-width: 1.0;"/><line style="stroke: #A80036; stroke-width: 1.5;" x1="249.5" x2="249.5" y1="30" y2="76.2969"/><polygon fill="#A80036" points="245.5,66.2969,249.5,76.2969,253.5,66.2969,249.5,70.2969" style="stroke: #A80036; stroke-width: 1.0;"/><line style="stroke: #A80036; stroke-width: 1.5;" x1="249.5" x2="249.5" y1="627.6758" y2="656.1914"/><polygon fill="#A80036" points="245.5,646.1914,249.5,656.1914,253.5,646.1914,249.5,650.1914" style="stroke: #A80036; stroke-width: 1.0;"/><line style="stroke: #A80036; stroke-width: 1.5;" x1="249.5" x2="249.5" y1="569.3047" y2="593.707"/><polygon fill="#A80036" points="245.5,583.707,249.5,593.707,253.5,583.707,249.5,587.707" style="stroke: #A80036; stroke-width: 1.0;"/><line style="stroke: #A80036; stroke-width: 1.5;" x1="294.5" x2="309.5" y1="557.3047" y2="557.3047"/><polygon fill="#A80036" points="305.5,626.1914,309.5,636.1914,313.5,626.1914,309.5,630.1914" style="stroke: #A80036; stroke-width: 1.5;"/><line style="stroke: #A80036; stroke-width: 1.5;" x1="309.5" x2="309.5" y1="557.3047" y2="700.1914"/><line style="stroke: #A80036; stroke-width: 1.5;" x1="309.5" x2="249.5" y1="700.1914" y2="700.1914"/><line style="stroke: #A80036; stroke-width: 1.5;" x1="249.5" x2="249.5" y1="700.1914" y2="720.1914"/><polygon fill="#A80036" points="245.5,710.1914,249.5,720.1914,253.5,710.1914,249.5,714.1914" style="stroke: #A80036; stroke-width: 1.0;"/><line style="stroke: #A80036; stroke-width: 1.5;" x1="249.5" x2="249.5" y1="520.9023" y2="545.3047"/><polygon fill="#A80036" points="245.5,535.3047,249.5,545.3047,253.5,535.3047,249.5,539.3047" style="stroke: #A80036; stroke-width: 1.0;"/><line style="stroke: #A80036; stroke-width: 1.5;" x1="317" x2="331.5" y1="508.9023" y2="508.9023"/><polygon fill="#A80036" points="327.5,620.1914,331.5,630.1914,335.5,620.1914,331.5,624.1914" style="stroke: #A80036; stroke-width: 1.5;"/><line style="stroke: #A80036; stroke-width: 1.5;" x1="331.5" x2="331.5" y1="508.9023" y2="732.1914"/><line style="stroke: #A80036; stroke-width: 1.5;" x1="331.5" x2="261.5" y1="732.1914" y2="732.1914"/><polygon fill="#A80036" points="271.5,728.1914,261.5,732.1914,271.5,736.1914,267.5,732.1914" style="stroke: #A80036; stroke-width: 1.0;"/><line style="stroke: #A80036; stroke-width: 1.5;" x1="249.5" x2="249.5" y1="788.1914" y2="846.4883"/><polygon fill="#A80036" points="245.5,836.4883,249.5,846.4883,253.5,836.4883,249.5,840.4883" style="stroke: #A80036; stroke-width: 1.0;"/><line style="stroke: #A80036; stroke-width: 1.5;" x1="282.5" x2="313.5" y1="776.1914" y2="776.1914"/><polygon fill="#A80036" points="303.5,772.1914,313.5,776.1914,303.5,780.1914,307.5,776.1914" style="stroke: #A80036; stroke-width: 1.0;"/><line style="stroke: #A80036; stroke-width: 1.5;" x1="249.5" x2="249.5" y1="744.1914" y2="764.1914"/><polygon fill="#A80036" points="245.5,754.1914,249.5,764.1914,253.5,754.1914,249.5,758.1914" style="stroke: #A80036; stroke-width: 1.0;"/><line style="stroke: #A80036; stroke-width: 1.5;" x1="249.5" x2="249.5" y1="438.6055" y2="496.9023"/><polygon fill="#A80036" points="245.5,486.9023,249.5,496.9023,253.5,486.9023,249.5,490.9023" style="stroke: #A80036; stroke-width: 1.0;"/><line style="stroke: #A80036; stroke-width: 1.5;" x1="211" x2="197.25" y1="858.4883" y2="858.4883"/><line style="stroke: #A80036; stroke-width: 1.5;" x1="197.25" x2="197.25" y1="858.4883" y2="880.4883"/><polygon fill="#A80036" points="193.25,870.4883,197.25,880.4883,201.25,870.4883,197.25,874.4883" style="stroke: #A80036; stroke-width: 1.0;"/><line style="stroke: #A80036; stroke-width: 1.5;" x1="288" x2="301.75" y1="858.4883" y2="858.4883"/><line style="stroke: #A80036; stroke-width: 1.5;" x1="301.75" x2="301.75" y1="858.4883" y2="880.4883"/><polygon fill="#A80036" points="297.75,870.4883,301.75,880.4883,305.75,870.4883,301.75,874.4883" style="stroke: #A80036; stroke-width: 1.0;"/><line style="stroke: #A80036; stroke-width: 1.5;" x1="301.75" x2="301.75" y1="914.457" y2="919.457"/><line style="stroke: #A80036; stroke-width: 1.5;" x1="301.75" x2="249.5" y1="919.457" y2="919.457"/><line style="stroke: #A80036; stroke-width: 1.5;" x1="249.5" x2="249.5" y1="919.457" y2="934.457"/><polygon fill="#A80036" points="245.5,924.457,249.5,934.457,253.5,924.457,249.5,928.457" style="stroke: #A80036; stroke-width: 1.0;"/><!--MD5=[2477c70fcfee9469e5d10a26fba1dc88]
@startuml

start
partition "BasicACL Check" {
:SelectNibbleMask;
if (isSystem?) then (yes)
 if (isIR?) then (yes)
  :CheckIR;
 else (isContainer)
  :CheckContainer;
endif

else (no)
  if (isOwner?) then (yes)
    :CheckOwner;
  else (isOthers)
    :CheckOthers;
  endif
  if (isSticky?) then (yes)
    :CheckObjectRequestOwnerMatch;
  endif
endif
}

partition "Bearer Check" {
if (hasBearerEnabled?) then (yes)
  if (hasBearer?) then (yes)
    :CheckBearer;
    stop
  else (no)
  endif
endif

if (isFinal?) then (yes)
  stop
endif
}

partition "ExtendedACL Check" {
if (isSystem) then (yes)
end
else
:CheckExtendedACL;
endif
stop
}

@enduml

PlantUML version 1.2020.15(Sun Jun 28 11:39:45 UTC 2020)
(GPL source distribution)
Java Runtime: OpenJDK Runtime Environment
JVM: OpenJDK 64-Bit Server VM
Default Encoding: ANSI_X3.4-1968
Language: en
Country: US
--></g></svg>