<?xml version="1.0" encoding="us-ascii" standalone="no"?><svg xmlns="http://www.w3.org/2000/svg" xmlns:xlink="http://www.w3.org/1999/xlink" contentStyleType="text/css" height="873px" preserveAspectRatio="none" style="width:444px;height:873px;background:#FFFFFF;" version="1.1" viewBox="0 0 444 873" width="444px" zoomAndPan="magnify"><defs/><g><ellipse cx="203" cy="20" fill="#222222" rx="10" ry="10" style="stroke:#222222;stroke-width:1.0;"/><rect fill="none" height="381.0391" style="stroke:#000000;stroke-width:1.5;" width="422" x="11" y="40"/><path d="M125,40 L125,49.4063 L115,59.4063 L11,59.4063 " fill="none" style="stroke:#000000;stroke-width:1.5;"/><text fill="#000000" font-family="sans-serif" font-size="14" lengthAdjust="spacing" textLength="104" x="14" y="53.9883">BasicACL Check</text><rect fill="#F1F1F1" height="34.0625" rx="12.5" ry="12.5" style="stroke:#181818;stroke-width:0.5;" width="114" x="146" y="76.4063"/><text fill="#000000" font-family="sans-serif" font-size="12" lengthAdjust="spacing" textLength="94" x="156" y="97.5391">SelectNibbleMask</text><polygon fill="#F1F1F1" points="169.5,130.4688,236.5,130.4688,248.5,142.4688,236.5,154.4688,169.5,154.4688,157.5,142.4688,169.5,130.4688" style="stroke:#181818;stroke-width:0.5;"/><text fill="#000000" font-family="sans-serif" font-size="11" lengthAdjust="spacing" textLength="67" x="169.5" y="146.2285">isContainer?</text><text fill="#000000" font-family="sans-serif" font-size="11" lengthAdjust="spacing" textLength="18" x="139.5" y="139.7832">yes</text><text fill="#000000" font-family="sans-serif" font-size="11" lengthAdjust="spacing" textLength="14" x="248.5" y="139.7832">no</text><rect fill="#F1F1F1" height="34.0625" rx="12.5" ry="12.5" style="stroke:#181818;stroke-width:0.5;" width="153" x="23" y="164.4688"/><text fill="#000000" font-family="sans-serif" font-size="12" lengthAdjust="spacing" textLength="133" x="33" y="185.6016">AllowContainerNodeOps</text><ellipse cx="99.5" cy="244.5313" fill="none" rx="11" ry="11" style="stroke:#222222;stroke-width:1.0;"/><ellipse cx="99.5" cy="244.5313" fill="#222222" rx="6" ry="6" style="stroke:#222222;stroke-width:1.0;"/><polygon fill="#F1F1F1" points="282,164.4688,331,164.4688,343,176.4688,331,188.4688,282,188.4688,270,176.4688,282,164.4688" style="stroke:#181818;stroke-width:0.5;"/><text fill="#000000" font-family="sans-serif" font-size="11" lengthAdjust="spacing" textLength="49" x="282" y="180.2285">isOwner?</text><text fill="#000000" font-family="sans-serif" font-size="11" lengthAdjust="spacing" textLength="18" x="252" y="173.7832">yes</text><text fill="#000000" font-family="sans-serif" font-size="11" lengthAdjust="spacing" textLength="44" x="343" y="173.7832">isOthers</text><rect fill="#F1F1F1" height="34.0625" rx="12.5" ry="12.5" style="stroke:#181818;stroke-width:0.5;" width="88" x="208" y="198.4688"/><text fill="#000000" font-family="sans-serif" font-size="12" lengthAdjust="spacing" textLength="68" x="218" y="219.6016">CheckOwner</text><rect fill="#F1F1F1" height="34.0625" rx="12.5" ry="12.5" style="stroke:#181818;stroke-width:0.5;" width="90" x="316" y="198.4688"/><text fill="#000000" font-family="sans-serif" font-size="12" lengthAdjust="spacing" textLength="70" x="326" y="219.6016">CheckOthers</text><polygon fill="#F1F1F1" points="306.5,238.5313,318.5,250.5313,306.5,262.5313,294.5,250.5313,306.5,238.5313" style="stroke:#181818;stroke-width:0.5;"/><rect fill="#F1F1F1" height="34.0625" rx="12.5" ry="12.5" style="stroke:#181818;stroke-width:0.5;" width="201" x="206" y="330.9766"/><text fill="#000000" font-family="sans-serif" font-size="12" lengthAdjust="spacing" textLength="181" x="216" y="352.1094">CheckObjectRequestOwnerMatch</text><polygon fill="#F1F1F1" points="283,282.5313,330,282.5313,342,294.5313,330,306.5313,283,306.5313,271,294.5313,283,282.5313" style="stroke:#181818;stroke-width:0.5;"/><text fill="#000000" font-family="sans-serif" font-size="11" lengthAdjust="spacing" textLength="18" x="310.5" y="316.7363">yes</text><text fill="#000000" font-family="sans-serif" font-size="11" lengthAdjust="spacing" textLength="47" x="283" y="298.291">isSticky?</text><polygon fill="#F1F1F1" points="306.5,385.0391,318.5,397.0391,306.5,409.0391,294.5,397.0391,306.5,385.0391" style="stroke:#181818;stroke-width:0.5;"/><rect fill="none" height="295.8281" style="stroke:#000000;stroke-width:1.5;" width="173" x="128" y="431.0391"/><path d="M224,431.0391 L224,440.4453 L214,450.4453 L128,450.4453 " fill="none" style="stroke:#000000;stroke-width:1.5;"/><text fill="#000000" font-family="sans-serif" font-size="14" lengthAdjust="spacing" textLength="86" x="131" y="445.0273">Bearer Check</text><rect fill="#F1F1F1" height="34.0625" rx="12.5" ry="12.5" style="stroke:#181818;stroke-width:0.5;" width="88" x="159" y="564.3359"/><text fill="#000000" font-family="sans-serif" font-size="12" lengthAdjust="spacing" textLength="68" x="169" y="585.4688">CheckBearer</text><ellipse cx="203" cy="637.8672" fill="none" rx="11" ry="11" style="stroke:#222222;stroke-width:1.0;"/><ellipse cx="203" cy="637.8672" fill="#222222" rx="6" ry="6" style="stroke:#222222;stroke-width:1.0;"/><polygon fill="#F1F1F1" points="172,515.8906,234,515.8906,246,527.8906,234,539.8906,172,539.8906,160,527.8906,172,515.8906" style="stroke:#181818;stroke-width:0.5;"/><text fill="#000000" font-family="sans-serif" font-size="11" lengthAdjust="spacing" textLength="18" x="207" y="550.0957">yes</text><text fill="#000000" font-family="sans-serif" font-size="11" lengthAdjust="spacing" textLength="62" x="172" y="531.6504">hasBearer?</text><text fill="#000000" font-family="sans-serif" font-size="11" lengthAdjust="spacing" textLength="14" x="246" y="525.2051">no</text><polygon fill="#F1F1F1" points="150,467.4453,256,467.4453,268,479.4453,256,491.4453,150,491.4453,138,479.4453,150,467.4453" style="stroke:#181818;stroke-width:0.5;"/><text fill="#000000" font-family="sans-serif" font-size="11" lengthAdjust="spacing" textLength="18" x="207" y="501.6504">yes</text><text fill="#000000" font-family="sans-serif" font-size="11" lengthAdjust="spacing" textLength="106" x="150" y="483.2051">hasBearerEnabled?</text><polygon fill="#F1F1F1" points="203,690.8672,215,702.8672,203,714.8672,191,702.8672,203,690.8672" style="stroke:#181818;stroke-width:0.5;"/><rect fill="none" height="124.4688" style="stroke:#000000;stroke-width:1.5;" width="149" x="128.5" y="737.7852"/><path d="M267.5,737.7852 L267.5,747.1914 L257.5,757.1914 L128.5,757.1914 " fill="none" style="stroke:#000000;stroke-width:1.5;"/><text fill="#000000" font-family="sans-serif" font-size="14" lengthAdjust="spacing" textLength="129" x="131.5" y="751.7734">ExtendedACL Check</text><rect fill="#F1F1F1" height="34.0625" rx="12.5" ry="12.5" style="stroke:#181818;stroke-width:0.5;" width="125" x="140.5" y="774.1914"/><text fill="#000000" font-family="sans-serif" font-size="12" lengthAdjust="spacing" textLength="105" x="150.5" y="795.3242">CheckExtendedACL</text><ellipse cx="203" cy="839.2539" fill="none" rx="11" ry="11" style="stroke:#222222;stroke-width:1.0;"/><ellipse cx="203" cy="839.2539" fill="#222222" rx="6" ry="6" style="stroke:#222222;stroke-width:1.0;"/><line style="stroke:#181818;stroke-width:1.0;" x1="99.5" x2="99.5" y1="198.5313" y2="233.5313"/><polygon fill="#181818" points="95.5,223.5313,99.5,233.5313,103.5,223.5313,99.5,227.5313" style="stroke:#181818;stroke-width:1.0;"/><line style="stroke:#181818;stroke-width:1.0;" x1="270" x2="252" y1="176.4688" y2="176.4688"/><line style="stroke:#181818;stroke-width:1.0;" x1="252" x2="252" y1="176.4688" y2="198.4688"/><polygon fill="#181818" points="248,188.4688,252,198.4688,256,188.4688,252,192.4688" style="stroke:#181818;stroke-width:1.0;"/><line style="stroke:#181818;stroke-width:1.0;" x1="343" x2="361" y1="176.4688" y2="176.4688"/><line style="stroke:#181818;stroke-width:1.0;" x1="361" x2="361" y1="176.4688" y2="198.4688"/><polygon fill="#181818" points="357,188.4688,361,198.4688,365,188.4688,361,192.4688" style="stroke:#181818;stroke-width:1.0;"/><line style="stroke:#181818;stroke-width:1.0;" x1="252" x2="252" y1="232.5313" y2="250.5313"/><line style="stroke:#181818;stroke-width:1.0;" x1="252" x2="294.5" y1="250.5313" y2="250.5313"/><polygon fill="#181818" points="284.5,246.5313,294.5,250.5313,284.5,254.5313,288.5,250.5313" style="stroke:#181818;stroke-width:1.0;"/><line style="stroke:#181818;stroke-width:1.0;" x1="361" x2="361" y1="232.5313" y2="250.5313"/><line style="stroke:#181818;stroke-width:1.0;" x1="361" x2="318.5" y1="250.5313" y2="250.5313"/><polygon fill="#181818" points="328.5,246.5313,318.5,250.5313,328.5,254.5313,324.5,250.5313" style="stroke:#181818;stroke-width:1.0;"/><line style="stroke:#181818;stroke-width:1.0;" x1="306.5" x2="306.5" y1="306.5313" y2="330.9766"/><polygon fill="#181818" points="302.5,320.9766,306.5,330.9766,310.5,320.9766,306.5,324.9766" style="stroke:#181818;stroke-width:1.0;"/><line style="stroke:#181818;stroke-width:1.0;" x1="342" x2="417" y1="294.5313" y2="294.5313"/><polygon fill="#181818" points="413,338.0078,417,348.0078,421,338.0078,417,342.0078" style="stroke:#181818;stroke-width:1.0;"/><line style="stroke:#181818;stroke-width:1.0;" x1="417" x2="417" y1="294.5313" y2="397.0391"/><line style="stroke:#181818;stroke-width:1.0;" x1="417" x2="318.5" y1="397.0391" y2="397.0391"/><polygon fill="#181818" points="328.5,393.0391,318.5,397.0391,328.5,401.0391,324.5,397.0391" style="stroke:#181818;stroke-width:1.0;"/><line style="stroke:#181818;stroke-width:1.0;" x1="306.5" x2="306.5" y1="365.0391" y2="385.0391"/><polygon fill="#181818" points="302.5,375.0391,306.5,385.0391,310.5,375.0391,306.5,379.0391" style="stroke:#181818;stroke-width:1.0;"/><line style="stroke:#181818;stroke-width:1.0;" x1="306.5" x2="306.5" y1="262.5313" y2="282.5313"/><polygon fill="#181818" points="302.5,272.5313,306.5,282.5313,310.5,272.5313,306.5,276.5313" style="stroke:#181818;stroke-width:1.0;"/><line style="stroke:#181818;stroke-width:1.0;" x1="157.5" x2="99.5" y1="142.4688" y2="142.4688"/><line style="stroke:#181818;stroke-width:1.0;" x1="99.5" x2="99.5" y1="142.4688" y2="164.4688"/><polygon fill="#181818" points="95.5,154.4688,99.5,164.4688,103.5,154.4688,99.5,158.4688" style="stroke:#181818;stroke-width:1.0;"/><line style="stroke:#181818;stroke-width:1.0;" x1="248.5" x2="306.5" y1="142.4688" y2="142.4688"/><line style="stroke:#181818;stroke-width:1.0;" x1="306.5" x2="306.5" y1="142.4688" y2="164.4688"/><polygon fill="#181818" points="302.5,154.4688,306.5,164.4688,310.5,154.4688,306.5,158.4688" style="stroke:#181818;stroke-width:1.0;"/><line style="stroke:#181818;stroke-width:1.0;" x1="306.5" x2="306.5" y1="409.0391" y2="414.0391"/><line style="stroke:#181818;stroke-width:1.0;" x1="306.5" x2="203" y1="414.0391" y2="414.0391"/><line style="stroke:#181818;stroke-width:1.0;" x1="203" x2="203" y1="414.0391" y2="467.4453"/><polygon fill="#181818" points="199,457.4453,203,467.4453,207,457.4453,203,461.4453" style="stroke:#181818;stroke-width:1.0;"/><line style="stroke:#181818;stroke-width:1.0;" x1="203" x2="203" y1="110.4688" y2="130.4688"/><polygon fill="#181818" points="199,120.4688,203,130.4688,207,120.4688,203,124.4688" style="stroke:#181818;stroke-width:1.0;"/><line style="stroke:#181818;stroke-width:1.0;" x1="203" x2="203" y1="30" y2="76.4063"/><polygon fill="#181818" points="199,66.4063,203,76.4063,207,66.4063,203,70.4063" style="stroke:#181818;stroke-width:1.0;"/><line style="stroke:#181818;stroke-width:1.0;" x1="203" x2="203" y1="598.3984" y2="626.8672"/><polygon fill="#181818" points="199,616.8672,203,626.8672,207,616.8672,203,620.8672" style="stroke:#181818;stroke-width:1.0;"/><line style="stroke:#181818;stroke-width:1.0;" x1="203" x2="203" y1="539.8906" y2="564.3359"/><polygon fill="#181818" points="199,554.3359,203,564.3359,207,554.3359,203,558.3359" style="stroke:#181818;stroke-width:1.0;"/><line style="stroke:#181818;stroke-width:1.0;" x1="246" x2="258" y1="527.8906" y2="527.8906"/><polygon fill="#181818" points="254,596.8672,258,606.8672,262,596.8672,258,600.8672" style="stroke:#181818;stroke-width:1.0;"/><line style="stroke:#181818;stroke-width:1.0;" x1="258" x2="258" y1="527.8906" y2="670.8672"/><line style="stroke:#181818;stroke-width:1.0;" x1="258" x2="203" y1="670.8672" y2="670.8672"/><line style="stroke:#181818;stroke-width:1.0;" x1="203" x2="203" y1="670.8672" y2="690.8672"/><polygon fill="#181818" points="199,680.8672,203,690.8672,207,680.8672,203,684.8672" style="stroke:#181818;stroke-width:1.0;"/><line style="stroke:#181818;stroke-width:1.0;" x1="203" x2="203" y1="491.4453" y2="515.8906"/><polygon fill="#181818" points="199,505.8906,203,515.8906,207,505.8906,203,509.8906" style="stroke:#181818;stroke-width:1.0;"/><line style="stroke:#181818;stroke-width:1.0;" x1="268" x2="280" y1="479.4453" y2="479.4453"/><polygon fill="#181818" points="276,590.8672,280,600.8672,284,590.8672,280,594.8672" style="stroke:#181818;stroke-width:1.0;"/><line style="stroke:#181818;stroke-width:1.0;" x1="280" x2="280" y1="479.4453" y2="702.8672"/><line style="stroke:#181818;stroke-width:1.0;" x1="280" x2="215" y1="702.8672" y2="702.8672"/><polygon fill="#181818" points="225,698.8672,215,702.8672,225,706.8672,221,702.8672" style="stroke:#181818;stroke-width:1.0;"/><line style="stroke:#181818;stroke-width:1.0;" x1="203" x2="203" y1="808.2539" y2="828.2539"/><polygon fill="#181818" points="199,818.2539,203,828.2539,207,818.2539,203,822.2539" style="stroke:#181818;stroke-width:1.0;"/><line style="stroke:#181818;stroke-width:1.0;" x1="203" x2="203" y1="714.8672" y2="774.1914"/><polygon fill="#181818" points="199,764.1914,203,774.1914,207,764.1914,203,768.1914" style="stroke:#181818;stroke-width:1.0;"/><!--SRC=[TL71Ri8m3BtdAonEvHVeOM8Ljm7I-88qDQhNAEbYJmnD_FjIHmEAniMA_9wVdrzOR18pva92CS3YrJAvTVC6JOzkMC2FMHtGevCTjQt7hUMXDdI4YhY9GIm5J2zBa1u3L6VafG5OhRsFfokyYntkHwupmX97WvuHgX0dQb7Qd_vHoJhgGS5fkCnbTgQbEKKxoWaT7Q-w1o4td9yAjn_vhdVy_48MtRArulgRJAaNCyi7RS9qIsTQr5ikxKsmEQFkSU6CyynDGMljQ4n_1vUWxXqzMDfyI-vZD_yrVTr1jL7LY_a5]--></g></svg>