<?xml version="1.0" encoding="UTF-8" standalone="no"?><svg xmlns="http://www.w3.org/2000/svg" xmlns:xlink="http://www.w3.org/1999/xlink" contentScriptType="application/ecmascript" contentStyleType="text/css" height="805px" preserveAspectRatio="none" style="width:784px;height:805px;" version="1.1" viewBox="0 0 784 805" width="784px" zoomAndPan="magnify"><defs><filter height="300%" id="fio5e8ozsw5co" width="300%" x="-1" y="-1"><feGaussianBlur result="blurOut" stdDeviation="2.0"/><feColorMatrix in="blurOut" result="blurOut2" type="matrix" values="0 0 0 0 0 0 0 0 0 0 0 0 0 0 0 0 0 0 .4 0"/><feOffset dx="4.0" dy="4.0" in="blurOut2" result="blurOut3"/><feBlend in="SourceGraphic" in2="blurOut3" mode="normal"/></filter></defs><g><ellipse cx="402" cy="20" fill="#000000" filter="url(#fio5e8ozsw5co)" rx="10" ry="10" style="stroke: none; stroke-width: 1.0;"/><polygon fill="#FEFECE" filter="url(#fio5e8ozsw5co)" points="48,94,119,94,131,106,119,118,48,118,36,106,48,94" style="stroke: #A80036; stroke-width: 1.5;"/><text fill="#000000" font-family="sans-serif" font-size="11" lengthAdjust="spacingAndGlyphs" textLength="14" x="87.5" y="128.2104">no</text><text fill="#000000" font-family="sans-serif" font-size="11" lengthAdjust="spacingAndGlyphs" textLength="71" x="48" y="109.8081">matchedOP?</text><polygon fill="#FEFECE" filter="url(#fio5e8ozsw5co)" points="163,94,255,94,267,106,255,118,163,118,151,106,163,94" style="stroke: #A80036; stroke-width: 1.5;"/><text fill="#000000" font-family="sans-serif" font-size="11" lengthAdjust="spacingAndGlyphs" textLength="14" x="213" y="128.2104">no</text><text fill="#000000" font-family="sans-serif" font-size="11" lengthAdjust="spacingAndGlyphs" textLength="92" x="163" y="109.8081">matchedTarget?</text><polygon fill="#FEFECE" filter="url(#fio5e8ozsw5co)" points="365.5,94,441.5,94,453.5,106,441.5,118,365.5,118,353.5,106,365.5,94" style="stroke: #A80036; stroke-width: 1.5;"/><text fill="#000000" font-family="sans-serif" font-size="11" lengthAdjust="spacingAndGlyphs" textLength="14" x="407.5" y="128.2104">no</text><text fill="#000000" font-family="sans-serif" font-size="11" lengthAdjust="spacingAndGlyphs" textLength="76" x="365.5" y="109.8081">emptyFilters?</text><text fill="#000000" font-family="sans-serif" font-size="11" lengthAdjust="spacingAndGlyphs" textLength="20" x="453.5" y="103.4058">yes</text><rect fill="#FEFECE" filter="url(#fio5e8ozsw5co)" height="33.9688" rx="12.5" ry="12.5" style="stroke: #A80036; stroke-width: 1.5;" width="181" x="313" y="290.5151"/><text fill="#000000" font-family="sans-serif" font-size="12" lengthAdjust="spacingAndGlyphs" textLength="161" x="323" y="311.6538">return "Can't Check eACL"</text><ellipse cx="403.5" cy="361.9995" fill="#FFFFFF" filter="url(#fio5e8ozsw5co)" rx="10" ry="10" style="stroke: #000000; stroke-width: 1.5;"/><line style="stroke: #000000; stroke-width: 2.5;" x1="397.3128" x2="409.6872" y1="355.8123" y2="368.1867"/><line style="stroke: #000000; stroke-width: 2.5;" x1="409.6872" x2="397.3128" y1="355.8123" y2="368.1867"/><polygon fill="#FEFECE" filter="url(#fio5e8ozsw5co)" points="347,242.1128,460,242.1128,472,254.1128,460,266.1128,347,266.1128,335,254.1128,347,242.1128" style="stroke: #A80036; stroke-width: 1.5;"/><text fill="#000000" font-family="sans-serif" font-size="11" lengthAdjust="spacingAndGlyphs" textLength="20" x="407.5" y="276.3232">yes</text><text fill="#000000" font-family="sans-serif" font-size="11" lengthAdjust="spacingAndGlyphs" textLength="113" x="347" y="257.9209">errorMatchingFilter?</text><rect fill="#FEFECE" filter="url(#fio5e8ozsw5co)" height="33.9688" rx="12.5" ry="12.5" style="stroke: #A80036; stroke-width: 1.5;" width="133" x="337" y="437.0815"/><text fill="#000000" font-family="sans-serif" font-size="12" lengthAdjust="spacingAndGlyphs" textLength="113" x="347" y="458.2202">goto next ACLRule</text><ellipse cx="403.5" cy="501.0503" fill="#FFFFFF" filter="url(#fio5e8ozsw5co)" rx="10" ry="10" style="stroke: #000000; stroke-width: 1.5;"/><line style="stroke: #000000; stroke-width: 2.5;" x1="397.3128" x2="409.6872" y1="494.8631" y2="507.2375"/><line style="stroke: #000000; stroke-width: 2.5;" x1="409.6872" x2="397.3128" y1="494.8631" y2="507.2375"/><polygon fill="#FEFECE" filter="url(#fio5e8ozsw5co)" points="362,193.7104,445,193.7104,457,205.7104,445,217.7104,362,217.7104,350,205.7104,362,193.7104" style="stroke: #A80036; stroke-width: 1.5;"/><text fill="#000000" font-family="sans-serif" font-size="11" lengthAdjust="spacingAndGlyphs" textLength="14" x="407.5" y="227.9209">no</text><text fill="#000000" font-family="sans-serif" font-size="11" lengthAdjust="spacingAndGlyphs" textLength="83" x="362" y="209.5186">matchedFilter?</text><text fill="#000000" font-family="sans-serif" font-size="11" lengthAdjust="spacingAndGlyphs" textLength="20" x="457" y="203.1162">yes</text><polygon fill="#FEFECE" filter="url(#fio5e8ozsw5co)" points="374,149.7104,433,149.7104,445,161.7104,433,173.7104,374,173.7104,362,161.7104,374,149.7104" style="stroke: #A80036; stroke-width: 1.5;"/><text fill="#000000" font-family="sans-serif" font-size="11" lengthAdjust="spacingAndGlyphs" textLength="59" x="374" y="165.5186">NextFilter?</text><text fill="#000000" font-family="sans-serif" font-size="11" lengthAdjust="spacingAndGlyphs" textLength="14" x="348" y="159.1162">no</text><rect fill="#FEFECE" filter="url(#fio5e8ozsw5co)" height="33.9688" rx="12.5" ry="12.5" style="stroke: #A80036; stroke-width: 1.5;" width="216" x="295.5" y="575.0503"/><text fill="#000000" font-family="sans-serif" font-size="12" lengthAdjust="spacingAndGlyphs" textLength="196" x="305.5" y="596.189">return permission from "Action"</text><ellipse cx="403.5" cy="640.019" fill="#FFFFFF" filter="url(#fio5e8ozsw5co)" rx="11" ry="11" style="stroke: #000000; stroke-width: 1.0;"/><ellipse cx="403.5" cy="640.019" fill="#000000" rx="6" ry="6" style="stroke: #7F7F7F; stroke-width: 1.0;"/><rect fill="#FEFECE" filter="url(#fio5e8ozsw5co)" height="33.9688" rx="12.5" ry="12.5" style="stroke: #A80036; stroke-width: 1.5;" width="216" x="530" y="373.5972"/><text fill="#000000" font-family="sans-serif" font-size="12" lengthAdjust="spacingAndGlyphs" textLength="196" x="540" y="394.7358">return permission from "Action"</text><ellipse cx="638" cy="453.2456" fill="#FFFFFF" filter="url(#fio5e8ozsw5co)" rx="11" ry="11" style="stroke: #000000; stroke-width: 1.0;"/><ellipse cx="638" cy="453.2456" fill="#000000" rx="6" ry="6" style="stroke: #7F7F7F; stroke-width: 1.0;"/><polygon fill="#FEFECE" filter="url(#fio5e8ozsw5co)" points="364,50,440,50,452,62,440,74,364,74,352,62,364,50" style="stroke: #A80036; stroke-width: 1.5;"/><text fill="#000000" font-family="sans-serif" font-size="11" lengthAdjust="spacingAndGlyphs" textLength="76" x="364" y="65.8081">NextACLRule?</text><text fill="#000000" font-family="sans-serif" font-size="11" lengthAdjust="spacingAndGlyphs" textLength="14" x="338" y="59.4058">no</text><rect fill="#FEFECE" filter="url(#fio5e8ozsw5co)" height="33.9688" rx="12.5" ry="12.5" style="stroke: #A80036; stroke-width: 1.5;" width="236" x="284" y="713.019"/><text fill="#000000" font-family="sans-serif" font-size="12" lengthAdjust="spacingAndGlyphs" textLength="216" x="294" y="734.1577">return permission from "Basic ACL"</text><ellipse cx="402" cy="777.9878" fill="#FFFFFF" filter="url(#fio5e8ozsw5co)" rx="11" ry="11" style="stroke: #000000; stroke-width: 1.0;"/><ellipse cx="402" cy="777.9878" fill="#000000" rx="6" ry="6" style="stroke: #7F7F7F; stroke-width: 1.0;"/><line style="stroke: #A80036; stroke-width: 1.5;" x1="403.5" x2="403.5" y1="324.4839" y2="351.9995"/><polygon fill="#A80036" points="399.5,341.9995,403.5,351.9995,407.5,341.9995,403.5,345.9995" style="stroke: #A80036; stroke-width: 1.0;"/><line style="stroke: #A80036; stroke-width: 1.5;" x1="403.5" x2="403.5" y1="266.1128" y2="290.5151"/><polygon fill="#A80036" points="399.5,280.5151,403.5,290.5151,407.5,280.5151,403.5,284.5151" style="stroke: #A80036; stroke-width: 1.0;"/><line style="stroke: #A80036; stroke-width: 1.5;" x1="472" x2="504" y1="254.1128" y2="254.1128"/><polygon fill="#A80036" points="500,321.9995,504,331.9995,508,321.9995,504,325.9995" style="stroke: #A80036; stroke-width: 1.5;"/><line style="stroke: #A80036; stroke-width: 1.5;" x1="504" x2="504" y1="254.1128" y2="402.4019"/><line style="stroke: #A80036; stroke-width: 1.5;" x1="504" x2="403.5" y1="402.4019" y2="402.4019"/><line style="stroke: #A80036; stroke-width: 1.5;" x1="403.5" x2="403.5" y1="402.4019" y2="437.0815"/><polygon fill="#A80036" points="399.5,427.0815,403.5,437.0815,407.5,427.0815,403.5,431.0815" style="stroke: #A80036; stroke-width: 1.0;"/><line style="stroke: #A80036; stroke-width: 1.5;" x1="403.5" x2="403.5" y1="471.0503" y2="491.0503"/><polygon fill="#A80036" points="399.5,481.0503,403.5,491.0503,407.5,481.0503,403.5,485.0503" style="stroke: #A80036; stroke-width: 1.0;"/><line style="stroke: #A80036; stroke-width: 1.5;" x1="403.5" x2="403.5" y1="217.7104" y2="242.1128"/><polygon fill="#A80036" points="399.5,232.1128,403.5,242.1128,407.5,232.1128,403.5,236.1128" style="stroke: #A80036; stroke-width: 1.0;"/><line style="stroke: #A80036; stroke-width: 1.5;" x1="457" x2="525" y1="205.7104" y2="205.7104"/><line style="stroke: #A80036; stroke-width: 1.5;" x1="525" x2="525" y1="161.7104" y2="205.7104"/><line style="stroke: #A80036; stroke-width: 1.5;" x1="525" x2="445" y1="161.7104" y2="161.7104"/><polygon fill="#A80036" points="455,157.7104,445,161.7104,455,165.7104,451,161.7104" style="stroke: #A80036; stroke-width: 1.0;"/><line style="stroke: #A80036; stroke-width: 1.5;" x1="403.5" x2="403.5" y1="173.7104" y2="193.7104"/><polygon fill="#A80036" points="399.5,183.7104,403.5,193.7104,407.5,183.7104,403.5,187.7104" style="stroke: #A80036; stroke-width: 1.0;"/><line style="stroke: #A80036; stroke-width: 1.5;" x1="362" x2="281" y1="161.7104" y2="161.7104"/><polygon fill="#A80036" points="277,355.4995,281,365.4995,285,355.4995,281,359.4995" style="stroke: #A80036; stroke-width: 1.5;"/><line style="stroke: #A80036; stroke-width: 1.5;" x1="281" x2="281" y1="161.7104" y2="555.0503"/><line style="stroke: #A80036; stroke-width: 1.5;" x1="281" x2="403.5" y1="555.0503" y2="555.0503"/><line style="stroke: #A80036; stroke-width: 1.5;" x1="403.5" x2="403.5" y1="555.0503" y2="575.0503"/><polygon fill="#A80036" points="399.5,565.0503,403.5,575.0503,407.5,565.0503,403.5,569.0503" style="stroke: #A80036; stroke-width: 1.0;"/><line style="stroke: #A80036; stroke-width: 1.5;" x1="403.5" x2="403.5" y1="609.019" y2="629.019"/><polygon fill="#A80036" points="399.5,619.019,403.5,629.019,407.5,619.019,403.5,623.019" style="stroke: #A80036; stroke-width: 1.0;"/><line style="stroke: #A80036; stroke-width: 1.5;" x1="638" x2="638" y1="407.5659" y2="442.2456"/><polygon fill="#A80036" points="634,432.2456,638,442.2456,642,432.2456,638,436.2456" style="stroke: #A80036; stroke-width: 1.0;"/><line style="stroke: #A80036; stroke-width: 1.5;" x1="83.5" x2="83.5" y1="118" y2="671.019"/><polygon fill="#A80036" points="79.5,661.019,83.5,671.019,87.5,661.019,83.5,665.019" style="stroke: #A80036; stroke-width: 1.0;"/><line style="stroke: #A80036; stroke-width: 1.5;" x1="209" x2="209" y1="118" y2="671.019"/><polygon fill="#A80036" points="205,661.019,209,671.019,213,661.019,209,665.019" style="stroke: #A80036; stroke-width: 1.0;"/><line style="stroke: #A80036; stroke-width: 1.5;" x1="403.5" x2="403.5" y1="118" y2="149.7104"/><polygon fill="#A80036" points="399.5,139.7104,403.5,149.7104,407.5,139.7104,403.5,143.7104" style="stroke: #A80036; stroke-width: 1.0;"/><line style="stroke: #A80036; stroke-width: 1.5;" x1="131" x2="151" y1="106" y2="106"/><polygon fill="#A80036" points="141,102,151,106,141,110,145,106" style="stroke: #A80036; stroke-width: 1.0;"/><line style="stroke: #A80036; stroke-width: 1.5;" x1="267" x2="353.5" y1="106" y2="106"/><polygon fill="#A80036" points="343.5,102,353.5,106,343.5,110,347.5,106" style="stroke: #A80036; stroke-width: 1.0;"/><line style="stroke: #A80036; stroke-width: 1.5;" x1="402" x2="402" y1="74" y2="79"/><line style="stroke: #A80036; stroke-width: 1.5;" x1="402" x2="83.5" y1="79" y2="79"/><line style="stroke: #A80036; stroke-width: 1.5;" x1="83.5" x2="83.5" y1="79" y2="94"/><polygon fill="#A80036" points="79.5,84,83.5,94,87.5,84,83.5,88" style="stroke: #A80036; stroke-width: 1.0;"/><line style="stroke: #A80036; stroke-width: 1.5;" x1="453.5" x2="638" y1="106" y2="106"/><line style="stroke: #A80036; stroke-width: 1.5;" x1="638" x2="638" y1="106" y2="373.5972"/><polygon fill="#A80036" points="634,363.5972,638,373.5972,642,363.5972,638,367.5972" style="stroke: #A80036; stroke-width: 1.0;"/><line style="stroke: #A80036; stroke-width: 1.5;" x1="83.5" x2="402" y1="671.019" y2="671.019"/><line style="stroke: #A80036; stroke-width: 1.5;" x1="402" x2="402" y1="671.019" y2="681.019"/><line style="stroke: #A80036; stroke-width: 1.5;" x1="402" x2="758" y1="681.019" y2="681.019"/><polygon fill="#A80036" points="754,417.0815,758,407.0815,762,417.0815,758,413.0815" style="stroke: #A80036; stroke-width: 1.5;"/><line style="stroke: #A80036; stroke-width: 1.5;" x1="758" x2="758" y1="62" y2="681.019"/><line style="stroke: #A80036; stroke-width: 1.5;" x1="758" x2="452" y1="62" y2="62"/><polygon fill="#A80036" points="462,58,452,62,462,66,458,62" style="stroke: #A80036; stroke-width: 1.0;"/><line style="stroke: #A80036; stroke-width: 1.5;" x1="352" x2="24" y1="62" y2="62"/><polygon fill="#A80036" points="20,403.0815,24,413.0815,28,403.0815,24,407.0815" style="stroke: #A80036; stroke-width: 1.5;"/><line style="stroke: #A80036; stroke-width: 1.5;" x1="24" x2="24" y1="62" y2="693.019"/><line style="stroke: #A80036; stroke-width: 1.5;" x1="24" x2="402" y1="693.019" y2="693.019"/><line style="stroke: #A80036; stroke-width: 1.5;" x1="402" x2="402" y1="693.019" y2="713.019"/><polygon fill="#A80036" points="398,703.019,402,713.019,406,703.019,402,707.019" style="stroke: #A80036; stroke-width: 1.0;"/><line style="stroke: #A80036; stroke-width: 1.5;" x1="402" x2="402" y1="30" y2="50"/><polygon fill="#A80036" points="398,40,402,50,406,40,402,44" style="stroke: #A80036; stroke-width: 1.0;"/><line style="stroke: #A80036; stroke-width: 1.5;" x1="402" x2="402" y1="746.9878" y2="766.9878"/><polygon fill="#A80036" points="398,756.9878,402,766.9878,406,756.9878,402,760.9878" style="stroke: #A80036; stroke-width: 1.0;"/><!--MD5=[cc8fa3ca211069b6fd038e98b5f9204e]
@startuml

start

while (NextACLRule?)
  if (matchedOP?) then (no)
  elseif (matchedTarget?) then (no)
  elseif (emptyFilters?) then (no)
    while (NextFilter?)
        if (matchedFilter?) then (yes)
        else (no)
          if (errorMatchingFilter?) then (yes)
            :return "Can't Check eACL";
            end
          endif

         :goto next ACLRule;
         end
        endif
    endwhile(no)
    :return permission from "Action";
    stop
  else (yes)
    :return permission from "Action";
    stop
  endif

endwhile (no)
:return permission from "Basic ACL";
stop
@enduml

PlantUML version 1.2020.15(Sun Jun 28 11:39:45 UTC 2020)
(GPL source distribution)
Java Runtime: OpenJDK Runtime Environment
JVM: OpenJDK 64-Bit Server VM
Default Encoding: ANSI_X3.4-1968
Language: en
Country: US
--></g></svg>