<?xml version="1.0" encoding="UTF-8" standalone="no"?><svg xmlns="http://www.w3.org/2000/svg" xmlns:xlink="http://www.w3.org/1999/xlink" contentScriptType="application/ecmascript" contentStyleType="text/css" height="980px" preserveAspectRatio="none" style="width:490px;height:980px;" version="1.1" viewBox="0 0 490 980" width="490px" zoomAndPan="magnify"><defs><filter height="300%" id="fazb889fs0rtj" width="300%" x="-1" y="-1"><feGaussianBlur result="blurOut" stdDeviation="2.0"/><feColorMatrix in="blurOut" result="blurOut2" type="matrix" values="0 0 0 0 0 0 0 0 0 0 0 0 0 0 0 0 0 0 .4 0"/><feOffset dx="4.0" dy="4.0" in="blurOut2" result="blurOut3"/><feBlend in="SourceGraphic" in2="blurOut3" mode="normal"/></filter></defs><g><ellipse cx="229.5" cy="20" fill="#000000" filter="url(#fazb889fs0rtj)" rx="10" ry="10" style="stroke: none; stroke-width: 1.0;"/><rect fill="#FFFFFF" filter="url(#fazb889fs0rtj)" height="411.0391" style="stroke: #000000; stroke-width: 2.0;" width="469" x="10" y="40"/><path d="M124,41 L124,49.4063 L114,59.4063 L10,59.4063 " fill="none" style="stroke: #000000; stroke-width: 2.0;"/><text fill="#000000" font-family="sans-serif" font-size="14" lengthAdjust="spacingAndGlyphs" textLength="104" x="13" y="53.9883">BasicACL Check</text><rect fill="#FEFECE" filter="url(#fazb889fs0rtj)" height="34.0625" rx="12.5" ry="12.5" style="stroke: #A80036; stroke-width: 1.5;" width="114" x="172.5" y="76.4063"/><text fill="#000000" font-family="sans-serif" font-size="12" lengthAdjust="spacingAndGlyphs" textLength="94" x="182.5" y="97.5391">SelectNibbleMask</text><polygon fill="#FEFECE" filter="url(#fazb889fs0rtj)" points="202,130.4688,257,130.4688,269,142.4688,257,154.4688,202,154.4688,190,142.4688,202,130.4688" style="stroke: #A80036; stroke-width: 1.5;"/><text fill="#000000" font-family="sans-serif" font-size="11" lengthAdjust="spacingAndGlyphs" textLength="55" x="202" y="146.2285">isSystem?</text><text fill="#000000" font-family="sans-serif" font-size="11" lengthAdjust="spacingAndGlyphs" textLength="18" x="172" y="139.7832">yes</text><text fill="#000000" font-family="sans-serif" font-size="11" lengthAdjust="spacingAndGlyphs" textLength="14" x="269" y="139.7832">no</text><polygon fill="#FEFECE" filter="url(#fazb889fs0rtj)" points="94,164.4688,119,164.4688,131,176.4688,119,188.4688,94,188.4688,82,176.4688,94,164.4688" style="stroke: #A80036; stroke-width: 1.5;"/><text fill="#000000" font-family="sans-serif" font-size="11" lengthAdjust="spacingAndGlyphs" textLength="25" x="94" y="180.2285">isIR?</text><text fill="#000000" font-family="sans-serif" font-size="11" lengthAdjust="spacingAndGlyphs" textLength="18" x="64" y="173.7832">yes</text><text fill="#000000" font-family="sans-serif" font-size="11" lengthAdjust="spacingAndGlyphs" textLength="61" x="131" y="173.7832">isContainer</text><rect fill="#FEFECE" filter="url(#fazb889fs0rtj)" height="34.0625" rx="12.5" ry="12.5" style="stroke: #A80036; stroke-width: 1.5;" width="64" x="22" y="198.4688"/><text fill="#000000" font-family="sans-serif" font-size="12" lengthAdjust="spacingAndGlyphs" textLength="44" x="32" y="219.6016">CheckIR</text><rect fill="#FEFECE" filter="url(#fazb889fs0rtj)" height="34.0625" rx="12.5" ry="12.5" style="stroke: #A80036; stroke-width: 1.5;" width="106" x="106" y="198.4688"/><text fill="#000000" font-family="sans-serif" font-size="12" lengthAdjust="spacingAndGlyphs" textLength="86" x="116" y="219.6016">CheckContainer</text><polygon fill="#FEFECE" filter="url(#fazb889fs0rtj)" points="106.5,238.5313,118.5,250.5313,106.5,262.5313,94.5,250.5313,106.5,238.5313" style="stroke: #A80036; stroke-width: 1.5;"/><polygon fill="#FEFECE" filter="url(#fazb889fs0rtj)" points="328,164.4688,377,164.4688,389,176.4688,377,188.4688,328,188.4688,316,176.4688,328,164.4688" style="stroke: #A80036; stroke-width: 1.5;"/><text fill="#000000" font-family="sans-serif" font-size="11" lengthAdjust="spacingAndGlyphs" textLength="49" x="328" y="180.2285">isOwner?</text><text fill="#000000" font-family="sans-serif" font-size="11" lengthAdjust="spacingAndGlyphs" textLength="18" x="298" y="173.7832">yes</text><text fill="#000000" font-family="sans-serif" font-size="11" lengthAdjust="spacingAndGlyphs" textLength="44" x="389" y="173.7832">isOthers</text><rect fill="#FEFECE" filter="url(#fazb889fs0rtj)" height="34.0625" rx="12.5" ry="12.5" style="stroke: #A80036; stroke-width: 1.5;" width="88" x="254" y="198.4688"/><text fill="#000000" font-family="sans-serif" font-size="12" lengthAdjust="spacingAndGlyphs" textLength="68" x="264" y="219.6016">CheckOwner</text><rect fill="#FEFECE" filter="url(#fazb889fs0rtj)" height="34.0625" rx="12.5" ry="12.5" style="stroke: #A80036; stroke-width: 1.5;" width="90" x="362" y="198.4688"/><text fill="#000000" font-family="sans-serif" font-size="12" lengthAdjust="spacingAndGlyphs" textLength="70" x="372" y="219.6016">CheckOthers</text><polygon fill="#FEFECE" filter="url(#fazb889fs0rtj)" points="352.5,238.5313,364.5,250.5313,352.5,262.5313,340.5,250.5313,352.5,238.5313" style="stroke: #A80036; stroke-width: 1.5;"/><rect fill="#FEFECE" filter="url(#fazb889fs0rtj)" height="34.0625" rx="12.5" ry="12.5" style="stroke: #A80036; stroke-width: 1.5;" width="201" x="252" y="330.9766"/><text fill="#000000" font-family="sans-serif" font-size="12" lengthAdjust="spacingAndGlyphs" textLength="181" x="262" y="352.1094">CheckObjectRequestOwnerMatch</text><polygon fill="#FEFECE" filter="url(#fazb889fs0rtj)" points="329,282.5313,376,282.5313,388,294.5313,376,306.5313,329,306.5313,317,294.5313,329,282.5313" style="stroke: #A80036; stroke-width: 1.5;"/><text fill="#000000" font-family="sans-serif" font-size="11" lengthAdjust="spacingAndGlyphs" textLength="18" x="356.5" y="316.7363">yes</text><text fill="#000000" font-family="sans-serif" font-size="11" lengthAdjust="spacingAndGlyphs" textLength="47" x="329" y="298.291">isSticky?</text><polygon fill="#FEFECE" filter="url(#fazb889fs0rtj)" points="352.5,385.0391,364.5,397.0391,352.5,409.0391,340.5,397.0391,352.5,385.0391" style="stroke: #A80036; stroke-width: 1.5;"/><polygon fill="#FEFECE" filter="url(#fazb889fs0rtj)" points="229.5,415.0391,241.5,427.0391,229.5,439.0391,217.5,427.0391,229.5,415.0391" style="stroke: #A80036; stroke-width: 1.5;"/><rect fill="#FFFFFF" filter="url(#fazb889fs0rtj)" height="339.8281" style="stroke: #000000; stroke-width: 2.0;" width="180.5" x="154.5" y="461.0391"/><path d="M250.5,462.0391 L250.5,470.4453 L240.5,480.4453 L154.5,480.4453 " fill="none" style="stroke: #000000; stroke-width: 2.0;"/><text fill="#000000" font-family="sans-serif" font-size="14" lengthAdjust="spacingAndGlyphs" textLength="86" x="157.5" y="475.0273">Bearer Check</text><rect fill="#FEFECE" filter="url(#fazb889fs0rtj)" height="34.0625" rx="12.5" ry="12.5" style="stroke: #A80036; stroke-width: 1.5;" width="88" x="185.5" y="594.3359"/><text fill="#000000" font-family="sans-serif" font-size="12" lengthAdjust="spacingAndGlyphs" textLength="68" x="195.5" y="615.4688">CheckBearer</text><ellipse cx="229.5" cy="667.8672" fill="#FFFFFF" filter="url(#fazb889fs0rtj)" rx="11" ry="11" style="stroke: #000000; stroke-width: 1.0;"/><ellipse cx="229.5" cy="667.8672" fill="#000000" rx="6" ry="6" style="stroke: #7F7F7F; stroke-width: 1.0;"/><polygon fill="#FEFECE" filter="url(#fazb889fs0rtj)" points="198.5,545.8906,260.5,545.8906,272.5,557.8906,260.5,569.8906,198.5,569.8906,186.5,557.8906,198.5,545.8906" style="stroke: #A80036; stroke-width: 1.5;"/><text fill="#000000" font-family="sans-serif" font-size="11" lengthAdjust="spacingAndGlyphs" textLength="18" x="233.5" y="580.0957">yes</text><text fill="#000000" font-family="sans-serif" font-size="11" lengthAdjust="spacingAndGlyphs" textLength="62" x="198.5" y="561.6504">hasBearer?</text><text fill="#000000" font-family="sans-serif" font-size="11" lengthAdjust="spacingAndGlyphs" textLength="14" x="272.5" y="555.2051">no</text><polygon fill="#FEFECE" filter="url(#fazb889fs0rtj)" points="176.5,497.4453,282.5,497.4453,294.5,509.4453,282.5,521.4453,176.5,521.4453,164.5,509.4453,176.5,497.4453" style="stroke: #A80036; stroke-width: 1.5;"/><text fill="#000000" font-family="sans-serif" font-size="11" lengthAdjust="spacingAndGlyphs" textLength="18" x="233.5" y="531.6504">yes</text><text fill="#000000" font-family="sans-serif" font-size="11" lengthAdjust="spacingAndGlyphs" textLength="106" x="176.5" y="513.2051">hasBearerEnabled?</text><polygon fill="#FEFECE" filter="url(#fazb889fs0rtj)" points="229.5,720.8672,241.5,732.8672,229.5,744.8672,217.5,732.8672,229.5,720.8672" style="stroke: #A80036; stroke-width: 1.5;"/><polygon fill="#FEFECE" filter="url(#fazb889fs0rtj)" points="209,764.8672,250,764.8672,262,776.8672,250,788.8672,209,788.8672,197,776.8672,209,764.8672" style="stroke: #A80036; stroke-width: 1.5;"/><text fill="#000000" font-family="sans-serif" font-size="11" lengthAdjust="spacingAndGlyphs" textLength="41" x="209" y="780.627">isFinal?</text><text fill="#000000" font-family="sans-serif" font-size="11" lengthAdjust="spacingAndGlyphs" textLength="18" x="262" y="774.1816">yes</text><ellipse cx="302" cy="776.8672" fill="#FFFFFF" filter="url(#fazb889fs0rtj)" rx="11" ry="11" style="stroke: #000000; stroke-width: 1.0;"/><ellipse cx="302" cy="776.8672" fill="#000000" rx="6" ry="6" style="stroke: #7F7F7F; stroke-width: 1.0;"/><rect fill="#FFFFFF" filter="url(#fazb889fs0rtj)" height="158.4688" style="stroke: #000000; stroke-width: 2.0;" width="215" x="145.75" y="810.8672"/><path d="M284.75,811.8672 L284.75,820.2734 L274.75,830.2734 L145.75,830.2734 " fill="none" style="stroke: #000000; stroke-width: 2.0;"/><text fill="#000000" font-family="sans-serif" font-size="14" lengthAdjust="spacingAndGlyphs" textLength="129" x="148.75" y="824.8555">ExtendedACL Check</text><polygon fill="#FEFECE" filter="url(#fazb889fs0rtj)" points="205,847.2734,254,847.2734,266,859.2734,254,871.2734,205,871.2734,193,859.2734,205,847.2734" style="stroke: #A80036; stroke-width: 1.5;"/><text fill="#000000" font-family="sans-serif" font-size="11" lengthAdjust="spacingAndGlyphs" textLength="49" x="205" y="863.0332">isSystem</text><text fill="#000000" font-family="sans-serif" font-size="11" lengthAdjust="spacingAndGlyphs" textLength="18" x="175" y="856.5879">yes</text><ellipse cx="180.75" cy="891.2734" fill="#FFFFFF" filter="url(#fazb889fs0rtj)" rx="10" ry="10" style="stroke: #000000; stroke-width: 1.5;"/><line style="stroke: #000000; stroke-width: 2.5;" x1="174.5628" x2="186.9372" y1="885.0863" y2="897.4606"/><line style="stroke: #000000; stroke-width: 2.5;" x1="186.9372" x2="174.5628" y1="885.0863" y2="897.4606"/><rect fill="#FEFECE" filter="url(#fazb889fs0rtj)" height="34.0625" rx="12.5" ry="12.5" style="stroke: #A80036; stroke-width: 1.5;" width="125" x="215.75" y="881.2734"/><text fill="#000000" font-family="sans-serif" font-size="12" lengthAdjust="spacingAndGlyphs" textLength="105" x="225.75" y="902.4063">CheckExtendedACL</text><ellipse cx="229.5" cy="946.3359" fill="#FFFFFF" filter="url(#fazb889fs0rtj)" rx="11" ry="11" style="stroke: #000000; stroke-width: 1.0;"/><ellipse cx="229.5" cy="946.3359" fill="#000000" rx="6" ry="6" style="stroke: #7F7F7F; stroke-width: 1.0;"/><line style="stroke: #A80036; stroke-width: 1.5;" x1="82" x2="54" y1="176.4688" y2="176.4688"/><line style="stroke: #A80036; stroke-width: 1.5;" x1="54" x2="54" y1="176.4688" y2="198.4688"/><polygon fill="#A80036" points="50,188.4688,54,198.4688,58,188.4688,54,192.4688" style="stroke: #A80036; stroke-width: 1.0;"/><line style="stroke: #A80036; stroke-width: 1.5;" x1="131" x2="159" y1="176.4688" y2="176.4688"/><line style="stroke: #A80036; stroke-width: 1.5;" x1="159" x2="159" y1="176.4688" y2="198.4688"/><polygon fill="#A80036" points="155,188.4688,159,198.4688,163,188.4688,159,192.4688" style="stroke: #A80036; stroke-width: 1.0;"/><line style="stroke: #A80036; stroke-width: 1.5;" x1="54" x2="54" y1="232.5313" y2="250.5313"/><line style="stroke: #A80036; stroke-width: 1.5;" x1="54" x2="94.5" y1="250.5313" y2="250.5313"/><polygon fill="#A80036" points="84.5,246.5313,94.5,250.5313,84.5,254.5313,88.5,250.5313" style="stroke: #A80036; stroke-width: 1.0;"/><line style="stroke: #A80036; stroke-width: 1.5;" x1="159" x2="159" y1="232.5313" y2="250.5313"/><line style="stroke: #A80036; stroke-width: 1.5;" x1="159" x2="118.5" y1="250.5313" y2="250.5313"/><polygon fill="#A80036" points="128.5,246.5313,118.5,250.5313,128.5,254.5313,124.5,250.5313" style="stroke: #A80036; stroke-width: 1.0;"/><line style="stroke: #A80036; stroke-width: 1.5;" x1="316" x2="298" y1="176.4688" y2="176.4688"/><line style="stroke: #A80036; stroke-width: 1.5;" x1="298" x2="298" y1="176.4688" y2="198.4688"/><polygon fill="#A80036" points="294,188.4688,298,198.4688,302,188.4688,298,192.4688" style="stroke: #A80036; stroke-width: 1.0;"/><line style="stroke: #A80036; stroke-width: 1.5;" x1="389" x2="407" y1="176.4688" y2="176.4688"/><line style="stroke: #A80036; stroke-width: 1.5;" x1="407" x2="407" y1="176.4688" y2="198.4688"/><polygon fill="#A80036" points="403,188.4688,407,198.4688,411,188.4688,407,192.4688" style="stroke: #A80036; stroke-width: 1.0;"/><line style="stroke: #A80036; stroke-width: 1.5;" x1="298" x2="298" y1="232.5313" y2="250.5313"/><line style="stroke: #A80036; stroke-width: 1.5;" x1="298" x2="340.5" y1="250.5313" y2="250.5313"/><polygon fill="#A80036" points="330.5,246.5313,340.5,250.5313,330.5,254.5313,334.5,250.5313" style="stroke: #A80036; stroke-width: 1.0;"/><line style="stroke: #A80036; stroke-width: 1.5;" x1="407" x2="407" y1="232.5313" y2="250.5313"/><line style="stroke: #A80036; stroke-width: 1.5;" x1="407" x2="364.5" y1="250.5313" y2="250.5313"/><polygon fill="#A80036" points="374.5,246.5313,364.5,250.5313,374.5,254.5313,370.5,250.5313" style="stroke: #A80036; stroke-width: 1.0;"/><line style="stroke: #A80036; stroke-width: 1.5;" x1="352.5" x2="352.5" y1="306.5313" y2="330.9766"/><polygon fill="#A80036" points="348.5,320.9766,352.5,330.9766,356.5,320.9766,352.5,324.9766" style="stroke: #A80036; stroke-width: 1.0;"/><line style="stroke: #A80036; stroke-width: 1.5;" x1="388" x2="463" y1="294.5313" y2="294.5313"/><polygon fill="#A80036" points="459,338.0078,463,348.0078,467,338.0078,463,342.0078" style="stroke: #A80036; stroke-width: 1.5;"/><line style="stroke: #A80036; stroke-width: 1.5;" x1="463" x2="463" y1="294.5313" y2="397.0391"/><line style="stroke: #A80036; stroke-width: 1.5;" x1="463" x2="364.5" y1="397.0391" y2="397.0391"/><polygon fill="#A80036" points="374.5,393.0391,364.5,397.0391,374.5,401.0391,370.5,397.0391" style="stroke: #A80036; stroke-width: 1.0;"/><line style="stroke: #A80036; stroke-width: 1.5;" x1="352.5" x2="352.5" y1="365.0391" y2="385.0391"/><polygon fill="#A80036" points="348.5,375.0391,352.5,385.0391,356.5,375.0391,352.5,379.0391" style="stroke: #A80036; stroke-width: 1.0;"/><line style="stroke: #A80036; stroke-width: 1.5;" x1="352.5" x2="352.5" y1="262.5313" y2="282.5313"/><polygon fill="#A80036" points="348.5,272.5313,352.5,282.5313,356.5,272.5313,352.5,276.5313" style="stroke: #A80036; stroke-width: 1.0;"/><line style="stroke: #A80036; stroke-width: 1.5;" x1="190" x2="106.5" y1="142.4688" y2="142.4688"/><line style="stroke: #A80036; stroke-width: 1.5;" x1="106.5" x2="106.5" y1="142.4688" y2="164.4688"/><polygon fill="#A80036" points="102.5,154.4688,106.5,164.4688,110.5,154.4688,106.5,158.4688" style="stroke: #A80036; stroke-width: 1.0;"/><line style="stroke: #A80036; stroke-width: 1.5;" x1="269" x2="352.5" y1="142.4688" y2="142.4688"/><line style="stroke: #A80036; stroke-width: 1.5;" x1="352.5" x2="352.5" y1="142.4688" y2="164.4688"/><polygon fill="#A80036" points="348.5,154.4688,352.5,164.4688,356.5,154.4688,352.5,158.4688" style="stroke: #A80036; stroke-width: 1.0;"/><line style="stroke: #A80036; stroke-width: 1.5;" x1="106.5" x2="106.5" y1="262.5313" y2="427.0391"/><line style="stroke: #A80036; stroke-width: 1.5;" x1="106.5" x2="217.5" y1="427.0391" y2="427.0391"/><polygon fill="#A80036" points="207.5,423.0391,217.5,427.0391,207.5,431.0391,211.5,427.0391" style="stroke: #A80036; stroke-width: 1.0;"/><line style="stroke: #A80036; stroke-width: 1.5;" x1="352.5" x2="352.5" y1="409.0391" y2="427.0391"/><line style="stroke: #A80036; stroke-width: 1.5;" x1="352.5" x2="241.5" y1="427.0391" y2="427.0391"/><polygon fill="#A80036" points="251.5,423.0391,241.5,427.0391,251.5,431.0391,247.5,427.0391" style="stroke: #A80036; stroke-width: 1.0;"/><line style="stroke: #A80036; stroke-width: 1.5;" x1="229.5" x2="229.5" y1="110.4688" y2="130.4688"/><polygon fill="#A80036" points="225.5,120.4688,229.5,130.4688,233.5,120.4688,229.5,124.4688" style="stroke: #A80036; stroke-width: 1.0;"/><line style="stroke: #A80036; stroke-width: 1.5;" x1="229.5" x2="229.5" y1="30" y2="76.4063"/><polygon fill="#A80036" points="225.5,66.4063,229.5,76.4063,233.5,66.4063,229.5,70.4063" style="stroke: #A80036; stroke-width: 1.0;"/><line style="stroke: #A80036; stroke-width: 1.5;" x1="229.5" x2="229.5" y1="628.3984" y2="656.8672"/><polygon fill="#A80036" points="225.5,646.8672,229.5,656.8672,233.5,646.8672,229.5,650.8672" style="stroke: #A80036; stroke-width: 1.0;"/><line style="stroke: #A80036; stroke-width: 1.5;" x1="229.5" x2="229.5" y1="569.8906" y2="594.3359"/><polygon fill="#A80036" points="225.5,584.3359,229.5,594.3359,233.5,584.3359,229.5,588.3359" style="stroke: #A80036; stroke-width: 1.0;"/><line style="stroke: #A80036; stroke-width: 1.5;" x1="272.5" x2="284.5" y1="557.8906" y2="557.8906"/><polygon fill="#A80036" points="280.5,626.8672,284.5,636.8672,288.5,626.8672,284.5,630.8672" style="stroke: #A80036; stroke-width: 1.5;"/><line style="stroke: #A80036; stroke-width: 1.5;" x1="284.5" x2="284.5" y1="557.8906" y2="700.8672"/><line style="stroke: #A80036; stroke-width: 1.5;" x1="284.5" x2="229.5" y1="700.8672" y2="700.8672"/><line style="stroke: #A80036; stroke-width: 1.5;" x1="229.5" x2="229.5" y1="700.8672" y2="720.8672"/><polygon fill="#A80036" points="225.5,710.8672,229.5,720.8672,233.5,710.8672,229.5,714.8672" style="stroke: #A80036; stroke-width: 1.0;"/><line style="stroke: #A80036; stroke-width: 1.5;" x1="229.5" x2="229.5" y1="521.4453" y2="545.8906"/><polygon fill="#A80036" points="225.5,535.8906,229.5,545.8906,233.5,535.8906,229.5,539.8906" style="stroke: #A80036; stroke-width: 1.0;"/><line style="stroke: #A80036; stroke-width: 1.5;" x1="294.5" x2="306.5" y1="509.4453" y2="509.4453"/><polygon fill="#A80036" points="302.5,620.8672,306.5,630.8672,310.5,620.8672,306.5,624.8672" style="stroke: #A80036; stroke-width: 1.5;"/><line style="stroke: #A80036; stroke-width: 1.5;" x1="306.5" x2="306.5" y1="509.4453" y2="732.8672"/><line style="stroke: #A80036; stroke-width: 1.5;" x1="306.5" x2="241.5" y1="732.8672" y2="732.8672"/><polygon fill="#A80036" points="251.5,728.8672,241.5,732.8672,251.5,736.8672,247.5,732.8672" style="stroke: #A80036; stroke-width: 1.0;"/><line style="stroke: #A80036; stroke-width: 1.5;" x1="229.5" x2="229.5" y1="788.8672" y2="847.2734"/><polygon fill="#A80036" points="225.5,837.2734,229.5,847.2734,233.5,837.2734,229.5,841.2734" style="stroke: #A80036; stroke-width: 1.0;"/><line style="stroke: #A80036; stroke-width: 1.5;" x1="262" x2="291" y1="776.8672" y2="776.8672"/><polygon fill="#A80036" points="281,772.8672,291,776.8672,281,780.8672,285,776.8672" style="stroke: #A80036; stroke-width: 1.0;"/><line style="stroke: #A80036; stroke-width: 1.5;" x1="229.5" x2="229.5" y1="744.8672" y2="764.8672"/><polygon fill="#A80036" points="225.5,754.8672,229.5,764.8672,233.5,754.8672,229.5,758.8672" style="stroke: #A80036; stroke-width: 1.0;"/><line style="stroke: #A80036; stroke-width: 1.5;" x1="229.5" x2="229.5" y1="439.0391" y2="497.4453"/><polygon fill="#A80036" points="225.5,487.4453,229.5,497.4453,233.5,487.4453,229.5,491.4453" style="stroke: #A80036; stroke-width: 1.0;"/><line style="stroke: #A80036; stroke-width: 1.5;" x1="193" x2="180.75" y1="859.2734" y2="859.2734"/><line style="stroke: #A80036; stroke-width: 1.5;" x1="180.75" x2="180.75" y1="859.2734" y2="881.2734"/><polygon fill="#A80036" points="176.75,871.2734,180.75,881.2734,184.75,871.2734,180.75,875.2734" style="stroke: #A80036; stroke-width: 1.0;"/><line style="stroke: #A80036; stroke-width: 1.5;" x1="266" x2="278.25" y1="859.2734" y2="859.2734"/><line style="stroke: #A80036; stroke-width: 1.5;" x1="278.25" x2="278.25" y1="859.2734" y2="881.2734"/><polygon fill="#A80036" points="274.25,871.2734,278.25,881.2734,282.25,871.2734,278.25,875.2734" style="stroke: #A80036; stroke-width: 1.0;"/><line style="stroke: #A80036; stroke-width: 1.5;" x1="278.25" x2="278.25" y1="915.3359" y2="920.3359"/><line style="stroke: #A80036; stroke-width: 1.5;" x1="278.25" x2="229.5" y1="920.3359" y2="920.3359"/><line style="stroke: #A80036; stroke-width: 1.5;" x1="229.5" x2="229.5" y1="920.3359" y2="935.3359"/><polygon fill="#A80036" points="225.5,925.3359,229.5,935.3359,233.5,925.3359,229.5,929.3359" style="stroke: #A80036; stroke-width: 1.0;"/><!--MD5=[c25f9d1669dd244691cd0c46ddc9f59f]
@startuml

start
partition "BasicACL Check" {
:SelectNibbleMask;
if (isSystem?) then (yes)
 if (isIR?) then (yes)
  :CheckIR;
 else (isContainer)
  :CheckContainer;
endif

else (no)
  if (isOwner?) then (yes)
    :CheckOwner;
  else (isOthers)
    :CheckOthers;
  endif
  if (isSticky?) then (yes)
    :CheckObjectRequestOwnerMatch;
  endif
endif
}

partition "Bearer Check" {
if (hasBearerEnabled?) then (yes)
  if (hasBearer?) then (yes)
    :CheckBearer;
    stop
  else (no)
  endif
endif

if (isFinal?) then (yes)
  stop
endif
}

partition "ExtendedACL Check" {
if (isSystem) then (yes)
end
else
:CheckExtendedACL;
endif
stop
}

@enduml

PlantUML version 1.2020.09(Sun May 10 13:51:06 MSK 2020)
(GPL source distribution)
Java Runtime: OpenJDK Runtime Environment
JVM: OpenJDK 64-Bit Server VM
Java Version: 11.0.25+9-suse-150000.3.119.1-x8664
Operating System: Linux
Default Encoding: UTF-8
Language: ru
Country: RU
--></g></svg>