<?xml version="1.0" encoding="UTF-8"?>
<!DOCTYPE svg PUBLIC "-//W3C//DTD SVG 1.1//EN" "http://www.w3.org/Graphics/SVG/1.1/DTD/svg11.dtd">
<svg xmlns="http://www.w3.org/2000/svg" xmlns:xlink="http://www.w3.org/1999/xlink" version="1.1" width="631px" height="584px" viewBox="-0.5 -0.5 631 584"><defs><linearGradient x1="0%" y1="0%" x2="0%" y2="100%" id="mx-gradient-66ffff-1-ffffff-1-s-0"><stop offset="0%" style="stop-color:#66FFFF"/><stop offset="100%" style="stop-color:#ffffff"/></linearGradient><clipPath id="mx-clip-114-31-182-26-0"><rect x="114" y="31" width="182" height="26"/></clipPath><clipPath id="mx-clip-114-57-182-26-0"><rect x="114" y="57" width="182" height="26"/></clipPath><clipPath id="mx-clip-114-83-182-26-0"><rect x="114" y="83" width="182" height="26"/></clipPath><clipPath id="mx-clip-114-109-182-26-0"><rect x="114" y="109" width="182" height="26"/></clipPath><clipPath id="mx-clip-114-135-182-26-0"><rect x="114" y="135" width="182" height="26"/></clipPath><clipPath id="mx-clip-114-161-182-26-0"><rect x="114" y="161" width="182" height="26"/></clipPath><clipPath id="mx-clip-114-187-182-26-0"><rect x="114" y="187" width="182" height="26"/></clipPath><clipPath id="mx-clip-114-213-182-26-0"><rect x="114" y="213" width="182" height="26"/></clipPath><clipPath id="mx-clip-114-239-182-26-0"><rect x="114" y="239" width="182" height="26"/></clipPath><clipPath id="mx-clip-114-265-182-26-0"><rect x="114" y="265" width="182" height="26"/></clipPath><clipPath id="mx-clip-114-291-182-26-0"><rect x="114" y="291" width="182" height="26"/></clipPath><linearGradient x1="0%" y1="0%" x2="0%" y2="100%" id="mx-gradient-ffff66-1-ffffff-1-s-0"><stop offset="0%" style="stop-color:#FFFF66"/><stop offset="100%" style="stop-color:#ffffff"/></linearGradient><clipPath id="mx-clip-4-371-182-26-0"><rect x="4" y="371" width="182" height="26"/></clipPath><clipPath id="mx-clip-4-397-182-26-0"><rect x="4" y="397" width="182" height="26"/></clipPath><clipPath id="mx-clip-4-423-182-26-0"><rect x="4" y="423" width="182" height="26"/></clipPath><clipPath id="mx-clip-4-449-182-26-0"><rect x="4" y="449" width="182" height="26"/></clipPath><clipPath id="mx-clip-4-475-182-110-0"><rect x="4" y="475" width="182" height="110"/></clipPath><clipPath id="mx-clip-224-371-182-26-0"><rect x="224" y="371" width="182" height="26"/></clipPath><clipPath id="mx-clip-224-397-182-26-0"><rect x="224" y="397" width="182" height="26"/></clipPath><clipPath id="mx-clip-224-423-182-26-0"><rect x="224" y="423" width="182" height="26"/></clipPath><clipPath id="mx-clip-224-449-182-26-0"><rect x="224" y="449" width="182" height="26"/></clipPath><clipPath id="mx-clip-224-475-182-26-0"><rect x="224" y="475" width="182" height="26"/></clipPath><clipPath id="mx-clip-224-501-182-84-0"><rect x="224" y="501" width="182" height="84"/></clipPath><clipPath id="mx-clip-444-371-182-26-0"><rect x="444" y="371" width="182" height="26"/></clipPath><clipPath id="mx-clip-444-397-182-26-0"><rect x="444" y="397" width="182" height="26"/></clipPath><clipPath id="mx-clip-444-423-182-26-0"><rect x="444" y="423" width="182" height="26"/></clipPath><clipPath id="mx-clip-444-449-182-26-0"><rect x="444" y="449" width="182" height="26"/></clipPath><clipPath id="mx-clip-444-475-182-26-0"><rect x="444" y="475" width="182" height="26"/></clipPath><clipPath id="mx-clip-444-501-182-26-0"><rect x="444" y="501" width="182" height="26"/></clipPath><clipPath id="mx-clip-444-527-182-26-0"><rect x="444" y="527" width="182" height="26"/></clipPath><clipPath id="mx-clip-444-553-182-32-0"><rect x="444" y="553" width="182" height="32"/></clipPath><linearGradient x1="0%" y1="0%" x2="0%" y2="100%" id="mx-gradient-66ff66-1-ffffff-1-s-0"><stop offset="0%" style="stop-color:#66FF66"/><stop offset="100%" style="stop-color:#ffffff"/></linearGradient><clipPath id="mx-clip-334-31-182-26-0"><rect x="334" y="31" width="182" height="26"/></clipPath><clipPath id="mx-clip-334-57-182-26-0"><rect x="334" y="57" width="182" height="26"/></clipPath><clipPath id="mx-clip-334-83-182-26-0"><rect x="334" y="83" width="182" height="26"/></clipPath><clipPath id="mx-clip-334-109-182-26-0"><rect x="334" y="109" width="182" height="26"/></clipPath><clipPath id="mx-clip-334-135-182-26-0"><rect x="334" y="135" width="182" height="26"/></clipPath><clipPath id="mx-clip-334-161-182-26-0"><rect x="334" y="161" width="182" height="26"/></clipPath><clipPath id="mx-clip-334-187-182-26-0"><rect x="334" y="187" width="182" height="26"/></clipPath><clipPath id="mx-clip-334-213-182-26-0"><rect x="334" y="213" width="182" height="26"/></clipPath><clipPath id="mx-clip-334-239-182-26-0"><rect x="334" y="239" width="182" height="26"/></clipPath><clipPath id="mx-clip-334-265-182-26-0"><rect x="334" y="265" width="182" height="26"/></clipPath><clipPath id="mx-clip-334-291-182-26-0"><rect x="334" y="291" width="182" height="26"/></clipPath></defs><g><path d="M 110 26 L 110 0 L 300 0 L 300 26" fill="url(#mx-gradient-66ffff-1-ffffff-1-s-0)" stroke="#000000" stroke-miterlimit="10" pointer-events="all"/><path d="M 110 26 L 110 312 L 300 312 L 300 26" fill="none" stroke="#000000" stroke-miterlimit="10" pointer-events="none"/><path d="M 110 26 L 300 26" fill="none" stroke="#000000" stroke-miterlimit="10" pointer-events="none"/><g fill="#000000" font-family="Helvetica" text-anchor="middle" font-size="12px"><text x="204.5" y="17.5">Link Object</text></g><rect x="110" y="26" width="190" height="26" fill="#ffffff" stroke="none" pointer-events="none"/><g fill="#000000" font-family="Helvetica" clip-path="url(#mx-clip-114-31-182-26-0)" font-size="12px"><text x="115.5" y="43.5">object_id: ObjectID5</text></g><rect x="110" y="52" width="190" height="26" fill="#ffffff" stroke="none" pointer-events="none"/><g fill="#000000" font-family="Helvetica" clip-path="url(#mx-clip-114-57-182-26-0)" font-size="12px"><text x="115.5" y="69.5">payload: nil</text></g><rect x="110" y="78" width="190" height="26" fill="#ffffff" stroke="none" pointer-events="none"/><g fill="#000000" font-family="Helvetica" clip-path="url(#mx-clip-114-83-182-26-0)" font-size="12px"/><rect x="110" y="104" width="190" height="26" fill="#ffff99" stroke="none" pointer-events="none"/><g fill="#000000" font-family="Helvetica" clip-path="url(#mx-clip-114-109-182-26-0)" font-size="12px"><text x="115.5" y="121.5">header.split.split_id: f00dcaf3...</text></g><rect x="110" y="130" width="190" height="26" fill="#ccff99" stroke="none" pointer-events="none"/><g fill="#000000" font-family="Helvetica" clip-path="url(#mx-clip-114-135-182-26-0)" font-size="12px"><text x="115.5" y="147.5">header.split.parent: ObjectID4</text></g><rect x="110" y="156" width="190" height="26" fill="#ccff99" stroke="none" pointer-events="none"/><g fill="#000000" font-family="Helvetica" clip-path="url(#mx-clip-114-161-182-26-0)" font-size="12px"><text x="115.5" y="173.5">header.split.parent_signature: ...</text></g><rect x="110" y="182" width="190" height="26" fill="#ccff99" stroke="none" pointer-events="none"/><g fill="#000000" font-family="Helvetica" clip-path="url(#mx-clip-114-187-182-26-0)" font-size="12px"><text x="115.5" y="199.5">header.split.parent_header: ...</text></g><rect x="110" y="208" width="190" height="26" fill="#ffffff" stroke="none" pointer-events="none"/><g fill="#000000" font-family="Helvetica" clip-path="url(#mx-clip-114-213-182-26-0)" font-size="12px"/><rect x="110" y="234" width="190" height="26" fill="#ffffff" stroke="none" pointer-events="none"/><g fill="#000000" font-family="Helvetica" clip-path="url(#mx-clip-114-239-182-26-0)" font-size="12px"><text x="115.5" y="251.5">header.split.children: ObjectID1</text></g><rect x="110" y="260" width="190" height="26" fill="#ffffff" stroke="none" pointer-events="none"/><g fill="#000000" font-family="Helvetica" clip-path="url(#mx-clip-114-265-182-26-0)" font-size="12px"><text x="115.5" y="277.5">header.split.children: ObjectID2</text></g><rect x="110" y="286" width="190" height="26" fill="#ffffff" stroke="none" pointer-events="none"/><g fill="#000000" font-family="Helvetica" clip-path="url(#mx-clip-114-291-182-26-0)" font-size="12px"><text x="115.5" y="303.5">header.split.children: ObjectID3</text></g><path d="M 0 366 L 0 340 L 190 340 L 190 366" fill="url(#mx-gradient-ffff66-1-ffffff-1-s-0)" stroke="#000000" stroke-miterlimit="10" pointer-events="none"/><path d="M 0 366 L 0 580 L 190 580 L 190 366" fill="none" stroke="#000000" stroke-miterlimit="10" pointer-events="none"/><path d="M 0 366 L 190 366" fill="none" stroke="#000000" stroke-miterlimit="10" pointer-events="none"/><g fill="#000000" font-family="Helvetica" text-anchor="middle" font-size="12px"><text x="94.5" y="357.5">Part 1 Object</text></g><rect x="0" y="366" width="190" height="26" fill="#ffffff" stroke="none" pointer-events="none"/><g fill="#000000" font-family="Helvetica" clip-path="url(#mx-clip-4-371-182-26-0)" font-size="12px"><text x="5.5" y="383.5">object_id: ObjectID1</text></g><rect x="0" y="392" width="190" height="26" fill="#ffffff" stroke="none" pointer-events="none"/><g fill="#000000" font-family="Helvetica" clip-path="url(#mx-clip-4-397-182-26-0)" font-size="12px"><text x="5.5" y="409.5">payload: 0xAABB...</text></g><rect x="0" y="418" width="190" height="26" fill="#ffffff" stroke="none" pointer-events="none"/><g fill="#000000" font-family="Helvetica" clip-path="url(#mx-clip-4-423-182-26-0)" font-size="12px"/><rect x="0" y="444" width="190" height="26" fill="#ffff99" stroke="none" pointer-events="none"/><g fill="#000000" font-family="Helvetica" clip-path="url(#mx-clip-4-449-182-26-0)" font-size="12px"><text x="5.5" y="461.5">header.split.split_id: f00dcaf3...</text></g><rect x="0" y="470" width="190" height="110" fill="#ffffff" stroke="none" pointer-events="none"/><g fill="#000000" font-family="Helvetica" clip-path="url(#mx-clip-4-475-182-110-0)" font-size="12px"/><path d="M 220 366 L 220 340 L 410 340 L 410 366" fill="url(#mx-gradient-ffff66-1-ffffff-1-s-0)" stroke="#000000" stroke-miterlimit="10" pointer-events="none"/><path d="M 220 366 L 220 580 L 410 580 L 410 366" fill="none" stroke="#000000" stroke-miterlimit="10" pointer-events="none"/><path d="M 220 366 L 410 366" fill="none" stroke="#000000" stroke-miterlimit="10" pointer-events="none"/><g fill="#000000" font-family="Helvetica" text-anchor="middle" font-size="12px"><text x="314.5" y="357.5">Part 2 Object</text></g><rect x="220" y="366" width="190" height="26" fill="#ffffff" stroke="none" pointer-events="none"/><g fill="#000000" font-family="Helvetica" clip-path="url(#mx-clip-224-371-182-26-0)" font-size="12px"><text x="225.5" y="383.5">object_id: ObjectID2</text></g><rect x="220" y="392" width="190" height="26" fill="#ffffff" stroke="none" pointer-events="none"/><g fill="#000000" font-family="Helvetica" clip-path="url(#mx-clip-224-397-182-26-0)" font-size="12px"><text x="225.5" y="409.5">payload: 0xCCDD...</text></g><rect x="220" y="418" width="190" height="26" fill="#ffffff" stroke="none" pointer-events="none"/><g fill="#000000" font-family="Helvetica" clip-path="url(#mx-clip-224-423-182-26-0)" font-size="12px"/><rect x="220" y="444" width="190" height="26" fill="#ffff99" stroke="none" pointer-events="none"/><g fill="#000000" font-family="Helvetica" clip-path="url(#mx-clip-224-449-182-26-0)" font-size="12px"><text x="225.5" y="461.5">header.split.split_id: f00dcaf3...</text></g><rect x="220" y="470" width="190" height="26" fill="#ffffff" stroke="none" pointer-events="none"/><g fill="#000000" font-family="Helvetica" clip-path="url(#mx-clip-224-475-182-26-0)" font-size="12px"><text x="225.5" y="487.5">header.split.previous: ObjectID1</text></g><rect x="220" y="496" width="190" height="84" fill="#ffffff" stroke="none" pointer-events="none"/><g fill="#000000" font-family="Helvetica" clip-path="url(#mx-clip-224-501-182-84-0)" font-size="12px"/><path d="M 440 366 L 440 340 L 630 340 L 630 366" fill="url(#mx-gradient-ffff66-1-ffffff-1-s-0)" stroke="#000000" stroke-miterlimit="10" pointer-events="none"/><path d="M 440 366 L 440 580 L 630 580 L 630 366" fill="none" stroke="#000000" stroke-miterlimit="10" pointer-events="none"/><path d="M 440 366 L 630 366" fill="none" stroke="#000000" stroke-miterlimit="10" pointer-events="none"/><g fill="#000000" font-family="Helvetica" text-anchor="middle" font-size="12px"><text x="534.5" y="357.5">Part 3 Object</text></g><rect x="440" y="366" width="190" height="26" fill="#ffffff" stroke="none" pointer-events="none"/><g fill="#000000" font-family="Helvetica" clip-path="url(#mx-clip-444-371-182-26-0)" font-size="12px"><text x="445.5" y="383.5">object_id: ObjectID3</text></g><rect x="440" y="392" width="190" height="26" fill="#ffffff" stroke="none" pointer-events="none"/><g fill="#000000" font-family="Helvetica" clip-path="url(#mx-clip-444-397-182-26-0)" font-size="12px"><text x="445.5" y="409.5">payload: 0xEEFF...</text></g><rect x="440" y="418" width="190" height="26" fill="#ffffff" stroke="none" pointer-events="none"/><g fill="#000000" font-family="Helvetica" clip-path="url(#mx-clip-444-423-182-26-0)" font-size="12px"/><rect x="440" y="444" width="190" height="26" fill="#ffff99" stroke="none" pointer-events="none"/><g fill="#000000" font-family="Helvetica" clip-path="url(#mx-clip-444-449-182-26-0)" font-size="12px"><text x="445.5" y="461.5">header.split.split_id: f00dcaf3...</text></g><rect x="440" y="470" width="190" height="26" fill="#ffffff" stroke="none" pointer-events="none"/><g fill="#000000" font-family="Helvetica" clip-path="url(#mx-clip-444-475-182-26-0)" font-size="12px"><text x="445.5" y="487.5">header.split.previous: ObjectID2</text></g><rect x="440" y="496" width="190" height="26" fill="#ccff99" stroke="none" pointer-events="none"/><g fill="#000000" font-family="Helvetica" clip-path="url(#mx-clip-444-501-182-26-0)" font-size="12px"><text x="445.5" y="513.5">header.split.parent: ObjectID4</text></g><rect x="440" y="522" width="190" height="26" fill="#ccff99" stroke="none" pointer-events="none"/><g fill="#000000" font-family="Helvetica" clip-path="url(#mx-clip-444-527-182-26-0)" font-size="12px"><text x="445.5" y="539.5">header.split.parent_signature: ...</text></g><rect x="440" y="548" width="190" height="32" fill="#ccff99" stroke="none" pointer-events="none"/><g fill="#000000" font-family="Helvetica" clip-path="url(#mx-clip-444-553-182-32-0)" font-size="12px"><text x="445.5" y="565.5">header.split.parent_header: ...</text></g><path d="M 330 26 L 330 0 L 520 0 L 520 26" fill="url(#mx-gradient-66ff66-1-ffffff-1-s-0)" stroke="#000000" stroke-miterlimit="10" stroke-dasharray="3 3" pointer-events="none"/><path d="M 330 26 L 330 312 L 520 312 L 520 26" fill="none" stroke="#000000" stroke-miterlimit="10" stroke-dasharray="3 3" pointer-events="none"/><path d="M 330 26 L 520 26" fill="none" stroke="#000000" stroke-miterlimit="10" stroke-dasharray="3 3" pointer-events="none"/><g fill="#000000" font-family="Helvetica" text-anchor="middle" font-size="12px"><text x="424.5" y="17.5">Large Object</text></g><rect x="330" y="26" width="190" height="26" fill="#ccff99" stroke="none" pointer-events="none"/><g fill="#000000" font-family="Helvetica" clip-path="url(#mx-clip-334-31-182-26-0)" font-size="12px"><text x="335.5" y="43.5">object_id: ObjectID4</text></g><rect x="330" y="52" width="190" height="26" fill="#ffffff" stroke="none" pointer-events="none"/><g fill="#000000" font-family="Helvetica" clip-path="url(#mx-clip-334-57-182-26-0)" font-size="12px"/><rect x="330" y="78" width="190" height="26" fill="#ccff99" stroke="none" pointer-events="none"/><g fill="#000000" font-family="Helvetica" clip-path="url(#mx-clip-334-83-182-26-0)" font-size="12px"><text x="335.5" y="95.5">signature: ...</text></g><rect x="330" y="104" width="190" height="26" fill="#ffffff" stroke="none" pointer-events="none"/><g fill="#000000" font-family="Helvetica" clip-path="url(#mx-clip-334-109-182-26-0)" font-size="12px"/><rect x="330" y="130" width="190" height="26" fill="#ccff99" stroke="none" pointer-events="none"/><g fill="#000000" font-family="Helvetica" clip-path="url(#mx-clip-334-135-182-26-0)" font-size="12px"><text x="335.5" y="147.5">header: ...</text></g><rect x="330" y="156" width="190" height="26" fill="#ffffff" stroke="none" pointer-events="none"/><g fill="#000000" font-family="Helvetica" clip-path="url(#mx-clip-334-161-182-26-0)" font-size="12px"/><rect x="330" y="182" width="190" height="26" fill="#ffffff" stroke="none" pointer-events="none"/><g fill="#000000" font-family="Helvetica" clip-path="url(#mx-clip-334-187-182-26-0)" font-size="12px"><text x="335.5" y="199.5">payload: 0xAA...CC...EE...</text></g><rect x="330" y="208" width="190" height="26" fill="#ffffff" stroke="none" pointer-events="none"/><g fill="#000000" font-family="Helvetica" clip-path="url(#mx-clip-334-213-182-26-0)" font-size="12px"/><rect x="330" y="234" width="190" height="26" fill="#ffffff" stroke="none" pointer-events="none"/><g fill="#000000" font-family="Helvetica" clip-path="url(#mx-clip-334-239-182-26-0)" font-size="12px"/><rect x="330" y="260" width="190" height="26" fill="#ffffff" stroke="none" pointer-events="none"/><g fill="#000000" font-family="Helvetica" clip-path="url(#mx-clip-334-265-182-26-0)" font-size="12px"/><rect x="330" y="286" width="190" height="26" fill="#ffffff" stroke="none" pointer-events="none"/><g fill="#000000" font-family="Helvetica" clip-path="url(#mx-clip-334-291-182-26-0)" font-size="12px"/><path d="M 220 483 L 191.76 385.12" fill="none" stroke="#000000" stroke-miterlimit="10" pointer-events="none"/><path d="M 190.31 380.07 L 195.61 385.83 L 191.76 385.12 L 188.89 387.77 Z" fill="#000000" stroke="#000000" stroke-miterlimit="10" pointer-events="none"/><path d="M 440 484 L 411.76 386.12" fill="none" stroke="#000000" stroke-miterlimit="10" pointer-events="none"/><path d="M 410.31 381.07 L 415.61 386.83 L 411.76 386.12 L 408.89 388.77 Z" fill="#000000" stroke="#000000" stroke-miterlimit="10" pointer-events="none"/><rect x="390" y="180" width="30" height="28" fill-opacity="0.3" fill="#ff66b3" stroke="#000000" stroke-opacity="0.3" stroke-dasharray="3 3" pointer-events="none"/><rect x="420" y="180" width="30" height="28" fill-opacity="0.3" fill="#6666ff" stroke="#000000" stroke-opacity="0.3" stroke-dasharray="3 3" pointer-events="none"/><rect x="450" y="180" width="30" height="28" fill-opacity="0.3" fill="#66b2ff" stroke="#000000" stroke-opacity="0.3" stroke-dasharray="3 3" pointer-events="none"/><rect x="0" y="390" width="190" height="28" fill-opacity="0.3" fill="#ff66b3" stroke="#000000" stroke-opacity="0.3" stroke-dasharray="3 3" pointer-events="none"/><rect x="220" y="390" width="190" height="28" fill-opacity="0.3" fill="#6666ff" stroke="#000000" stroke-opacity="0.3" stroke-dasharray="3 3" pointer-events="none"/><rect x="440" y="390" width="190" height="28" fill-opacity="0.3" fill="#66b2ff" stroke="#000000" stroke-opacity="0.3" stroke-dasharray="3 3" pointer-events="none"/></g></svg>