<?xml version="1.0" encoding="UTF-8" standalone="no"?><svg xmlns="http://www.w3.org/2000/svg" xmlns:xlink="http://www.w3.org/1999/xlink" contentScriptType="application/ecmascript" contentStyleType="text/css" height="404px" preserveAspectRatio="none" style="width:645px;height:404px;" version="1.1" viewBox="0 0 645 404" width="645px" zoomAndPan="magnify"><defs><filter height="300%" id="f8yl3p1908zpa" width="300%" x="-1" y="-1"><feGaussianBlur result="blurOut" stdDeviation="2.0"/><feColorMatrix in="blurOut" result="blurOut2" type="matrix" values="0 0 0 0 0 0 0 0 0 0 0 0 0 0 0 0 0 0 .4 0"/><feOffset dx="4.0" dy="4.0" in="blurOut2" result="blurOut3"/><feBlend in="SourceGraphic" in2="blurOut3" mode="normal"/></filter></defs><g><line style="stroke: #A80036; stroke-width: 1.0;" x1="275" x2="275" y1="38.2969" y2="177.8281"/><line style="stroke: #A80036; stroke-width: 1.0; stroke-dasharray: 1.0,4.0;" x1="275" x2="275" y1="177.8281" y2="218.6328"/><line style="stroke: #A80036; stroke-width: 1.0;" x1="275" x2="275" y1="218.6328" y2="356.2969"/><line style="stroke: #A80036; stroke-width: 1.0;" x1="411" x2="411" y1="38.2969" y2="177.8281"/><line style="stroke: #A80036; stroke-width: 1.0; stroke-dasharray: 1.0,4.0;" x1="411" x2="411" y1="177.8281" y2="218.6328"/><line style="stroke: #A80036; stroke-width: 1.0;" x1="411" x2="411" y1="218.6328" y2="356.2969"/><line style="stroke: #A80036; stroke-width: 1.0;" x1="557" x2="557" y1="38.2969" y2="177.8281"/><line style="stroke: #A80036; stroke-width: 1.0; stroke-dasharray: 1.0,4.0;" x1="557" x2="557" y1="177.8281" y2="218.6328"/><line style="stroke: #A80036; stroke-width: 1.0;" x1="557" x2="557" y1="218.6328" y2="356.2969"/><rect fill="#FEFECE" filter="url(#f8yl3p1908zpa)" height="30.2969" style="stroke: #A80036; stroke-width: 1.5;" width="122" x="212" y="3"/><text fill="#000000" font-family="sans-serif" font-size="14" lengthAdjust="spacingAndGlyphs" textLength="108" x="219" y="22.9951">Storage Node 2</text><rect fill="#FEFECE" filter="url(#f8yl3p1908zpa)" height="30.2969" style="stroke: #A80036; stroke-width: 1.5;" width="122" x="212" y="355.2969"/><text fill="#000000" font-family="sans-serif" font-size="14" lengthAdjust="spacingAndGlyphs" textLength="108" x="219" y="375.292">Storage Node 2</text><rect fill="#FEFECE" filter="url(#f8yl3p1908zpa)" height="30.2969" style="stroke: #A80036; stroke-width: 1.5;" width="122" x="348" y="3"/><text fill="#000000" font-family="sans-serif" font-size="14" lengthAdjust="spacingAndGlyphs" textLength="108" x="355" y="22.9951">Storage Node 1</text><rect fill="#FEFECE" filter="url(#f8yl3p1908zpa)" height="30.2969" style="stroke: #A80036; stroke-width: 1.5;" width="122" x="348" y="355.2969"/><text fill="#000000" font-family="sans-serif" font-size="14" lengthAdjust="spacingAndGlyphs" textLength="108" x="355" y="375.292">Storage Node 1</text><rect fill="#FEFECE" filter="url(#f8yl3p1908zpa)" height="30.2969" style="stroke: #A80036; stroke-width: 1.5;" width="142" x="484" y="3"/><text fill="#000000" font-family="sans-serif" font-size="14" lengthAdjust="spacingAndGlyphs" textLength="128" x="491" y="22.9951">Container contract</text><rect fill="#FEFECE" filter="url(#f8yl3p1908zpa)" height="30.2969" style="stroke: #A80036; stroke-width: 1.5;" width="142" x="484" y="355.2969"/><text fill="#000000" font-family="sans-serif" font-size="14" lengthAdjust="spacingAndGlyphs" textLength="128" x="491" y="375.292">Container contract</text><polygon fill="#A80036" points="422,65.4297,412,69.4297,422,73.4297,418,69.4297" style="stroke: #A80036; stroke-width: 1.0;"/><line style="stroke: #A80036; stroke-width: 1.0; stroke-dasharray: 2.0,2.0;" x1="416" x2="556" y1="69.4297" y2="69.4297"/><text fill="#000000" font-family="sans-serif" font-size="13" lengthAdjust="spacingAndGlyphs" textLength="100" x="428" y="64.3638">StartEstimation</text><line style="stroke: #A80036; stroke-width: 1.0;" x1="411" x2="453" y1="98.5625" y2="98.5625"/><line style="stroke: #A80036; stroke-width: 1.0;" x1="453" x2="453" y1="98.5625" y2="111.5625"/><line style="stroke: #A80036; stroke-width: 1.0;" x1="412" x2="453" y1="111.5625" y2="111.5625"/><polygon fill="#A80036" points="422,107.5625,412,111.5625,422,115.5625,418,111.5625" style="stroke: #A80036; stroke-width: 1.0;"/><text fill="#000000" font-family="sans-serif" font-size="13" lengthAdjust="spacingAndGlyphs" textLength="64" x="418" y="93.4966">Announce</text><polygon fill="#A80036" points="286,136.6953,276,140.6953,286,144.6953,282,140.6953" style="stroke: #A80036; stroke-width: 1.0;"/><line style="stroke: #A80036; stroke-width: 1.0; stroke-dasharray: 2.0,2.0;" x1="280" x2="556" y1="140.6953" y2="140.6953"/><text fill="#000000" font-family="sans-serif" font-size="13" lengthAdjust="spacingAndGlyphs" textLength="100" x="292" y="135.6294">StartEstimation</text><polygon fill="#A80036" points="399,165.8281,409,169.8281,399,173.8281,403,169.8281" style="stroke: #A80036; stroke-width: 1.0;"/><line style="stroke: #A80036; stroke-width: 1.0;" x1="275" x2="405" y1="169.8281" y2="169.8281"/><text fill="#000000" font-family="sans-serif" font-size="13" lengthAdjust="spacingAndGlyphs" textLength="64" x="282" y="164.7622">Announce</text><text fill="#000000" font-family="sans-serif" font-size="11" lengthAdjust="spacingAndGlyphs" textLength="26" x="403" y="202.0386">later</text><polygon fill="#A80036" points="286,255.8984,276,259.8984,286,263.8984,282,259.8984" style="stroke: #A80036; stroke-width: 1.0;"/><line style="stroke: #A80036; stroke-width: 1.0; stroke-dasharray: 2.0,2.0;" x1="280" x2="556" y1="259.8984" y2="259.8984"/><text fill="#000000" font-family="sans-serif" font-size="13" lengthAdjust="spacingAndGlyphs" textLength="98" x="292" y="254.8325">StopEstimation</text><path d="M8,223.6328 L8,278.6328 L266,278.6328 L266,233.6328 L256,223.6328 L8,223.6328 " fill="#FBFB77" filter="url(#f8yl3p1908zpa)" style="stroke: #A80036; stroke-width: 1.0;"/><path d="M256,223.6328 L256,233.6328 L266,233.6328 L256,223.6328 " fill="#FBFB77" style="stroke: #A80036; stroke-width: 1.0;"/><text fill="#000000" font-family="sans-serif" font-size="13" lengthAdjust="spacingAndGlyphs" textLength="204" x="14" y="240.6997">Ignore, because this node is not</text><text fill="#000000" font-family="sans-serif" font-size="13" lengthAdjust="spacingAndGlyphs" textLength="237" x="14" y="255.8325">rendezvous node for container in this</text><text fill="#000000" font-family="sans-serif" font-size="13" lengthAdjust="spacingAndGlyphs" textLength="55" x="14" y="270.9653">example</text><polygon fill="#A80036" points="422,305.1641,412,309.1641,422,313.1641,418,309.1641" style="stroke: #A80036; stroke-width: 1.0;"/><line style="stroke: #A80036; stroke-width: 1.0; stroke-dasharray: 2.0,2.0;" x1="416" x2="556" y1="309.1641" y2="309.1641"/><text fill="#000000" font-family="sans-serif" font-size="13" lengthAdjust="spacingAndGlyphs" textLength="98" x="428" y="304.0981">StopEstimation</text><polygon fill="#A80036" points="545,334.2969,555,338.2969,545,342.2969,549,338.2969" style="stroke: #A80036; stroke-width: 1.0;"/><line style="stroke: #A80036; stroke-width: 1.0;" x1="411" x2="551" y1="338.2969" y2="338.2969"/><text fill="#000000" font-family="sans-serif" font-size="13" lengthAdjust="spacingAndGlyphs" textLength="64" x="418" y="333.231">Announce</text><!--MD5=[ce5f648cb709e7c248fe15412c0d4ba0]
@startuml
participant "Storage Node 2" as sn2
participant "Storage Node 1" as sn1
participant "Container contract" as cnr

cnr - -> sn1: StartEstimation
sn1 -> sn1: Announce


cnr - -> sn2: StartEstimation
sn2 -> sn1: Announce

...later...

cnr - -> sn2: StopEstimation
note left
  Ignore, because this node is not
  rendezvous node for container in this
  example
end note

cnr - -> sn1: StopEstimation
sn1 -> cnr: Announce
@enduml

PlantUML version 1.2020.15(Sun Jun 28 11:39:45 UTC 2020)
(GPL source distribution)
Java Runtime: OpenJDK Runtime Environment
JVM: OpenJDK 64-Bit Server VM
Default Encoding: ANSI_X3.4-1968
Language: en
Country: US
--></g></svg>