<?xml version="1.0" encoding="UTF-8" standalone="no"?><svg xmlns="http://www.w3.org/2000/svg" xmlns:xlink="http://www.w3.org/1999/xlink" contentScriptType="application/ecmascript" contentStyleType="text/css" height="424px" preserveAspectRatio="none" style="width:325px;height:424px;" version="1.1" viewBox="0 0 325 424" width="325px" zoomAndPan="magnify"><defs><filter height="300%" id="f16absvwy4s8ns" width="300%" x="-1" y="-1"><feGaussianBlur result="blurOut" stdDeviation="2.0"/><feColorMatrix in="blurOut" result="blurOut2" type="matrix" values="0 0 0 0 0 0 0 0 0 0 0 0 0 0 0 0 0 0 .4 0"/><feOffset dx="4.0" dy="4.0" in="blurOut2" result="blurOut3"/><feBlend in="SourceGraphic" in2="blurOut3" mode="normal"/></filter></defs><g><rect fill="#FFFFFF" filter="url(#f16absvwy4s8ns)" height="312" style="stroke: #000000; stroke-width: 2.0;" width="300" x="13" y="55.4063"/><rect fill="#FFFFFF" height="154.8281" style="stroke: none; stroke-width: 1.0;" width="300" x="13" y="212.5781"/><line style="stroke: #A80036; stroke-width: 1.0; stroke-dasharray: 5.0,5.0;" x1="42" x2="42" y1="38.4063" y2="384.4063"/><line style="stroke: #A80036; stroke-width: 1.0; stroke-dasharray: 5.0,5.0;" x1="91" x2="91" y1="38.4063" y2="384.4063"/><line style="stroke: #A80036; stroke-width: 1.0; stroke-dasharray: 5.0,5.0;" x1="149" x2="149" y1="38.4063" y2="384.4063"/><line style="stroke: #A80036; stroke-width: 1.0; stroke-dasharray: 5.0,5.0;" x1="257" x2="257" y1="38.4063" y2="384.4063"/><rect fill="#FEFECE" filter="url(#f16absvwy4s8ns)" height="30.4063" style="stroke: #A80036; stroke-width: 1.5;" width="35" x="23" y="3"/><text fill="#000000" font-family="sans-serif" font-size="14" lengthAdjust="spacingAndGlyphs" textLength="21" x="30" y="22.9883">IR Ⰰ</text><rect fill="#FEFECE" filter="url(#f16absvwy4s8ns)" height="30.4063" style="stroke: #A80036; stroke-width: 1.5;" width="35" x="23" y="383.4063"/><text fill="#000000" font-family="sans-serif" font-size="14" lengthAdjust="spacingAndGlyphs" textLength="21" x="30" y="403.3945">IR Ⰰ</text><rect fill="#FEFECE" filter="url(#f16absvwy4s8ns)" height="30.4063" style="stroke: #A80036; stroke-width: 1.5;" width="35" x="72" y="3"/><text fill="#000000" font-family="sans-serif" font-size="14" lengthAdjust="spacingAndGlyphs" textLength="21" x="79" y="22.9883">IR Ⰱ</text><rect fill="#FEFECE" filter="url(#f16absvwy4s8ns)" height="30.4063" style="stroke: #A80036; stroke-width: 1.5;" width="35" x="72" y="383.4063"/><text fill="#000000" font-family="sans-serif" font-size="14" lengthAdjust="spacingAndGlyphs" textLength="21" x="79" y="403.3945">IR Ⰱ</text><rect fill="#FEFECE" filter="url(#f16absvwy4s8ns)" height="30.4063" style="stroke: #A80036; stroke-width: 1.5;" width="41" x="127" y="3"/><text fill="#000000" font-family="sans-serif" font-size="14" lengthAdjust="spacingAndGlyphs" textLength="27" x="134" y="22.9883">SC Ⰰ</text><rect fill="#FEFECE" filter="url(#f16absvwy4s8ns)" height="30.4063" style="stroke: #A80036; stroke-width: 1.5;" width="41" x="127" y="383.4063"/><text fill="#000000" font-family="sans-serif" font-size="14" lengthAdjust="spacingAndGlyphs" textLength="27" x="134" y="403.3945">SC Ⰰ</text><rect fill="#FEFECE" filter="url(#f16absvwy4s8ns)" height="30.4063" style="stroke: #A80036; stroke-width: 1.5;" width="87" x="212" y="3"/><text fill="#000000" font-family="sans-serif" font-size="14" lengthAdjust="spacingAndGlyphs" textLength="73" x="219" y="22.9883">SC Netmap</text><rect fill="#FEFECE" filter="url(#f16absvwy4s8ns)" height="30.4063" style="stroke: #A80036; stroke-width: 1.5;" width="87" x="212" y="383.4063"/><text fill="#000000" font-family="sans-serif" font-size="14" lengthAdjust="spacingAndGlyphs" textLength="73" x="219" y="403.3945">SC Netmap</text><path d="M13,55.4063 L76,55.4063 L76,62.4063 L66,72.4063 L13,72.4063 L13,55.4063 " fill="#EEEEEE" style="stroke: #000000; stroke-width: 1.0;"/><rect fill="none" height="312" style="stroke: #000000; stroke-width: 2.0;" width="300" x="13" y="55.4063"/><text fill="#000000" font-family="sans-serif" font-size="13" font-weight="bold" lengthAdjust="spacingAndGlyphs" textLength="18" x="28" y="68.4668">alt</text><text fill="#000000" font-family="sans-serif" font-size="11" font-weight="bold" lengthAdjust="spacingAndGlyphs" textLength="98" x="91" y="67.6113">[successful case]</text><polygon fill="#A80036" points="137.5,89.875,147.5,93.875,137.5,97.875,141.5,93.875" style="stroke: #A80036; stroke-width: 1.0;"/><line style="stroke: #A80036; stroke-width: 1.0;" x1="42.5" x2="143.5" y1="93.875" y2="93.875"/><text fill="#000000" font-family="sans-serif" font-size="13" lengthAdjust="spacingAndGlyphs" textLength="34" x="49.5" y="88.7012">Emit()</text><polygon fill="#A80036" points="245.5,119.1094,255.5,123.1094,245.5,127.1094,249.5,123.1094" style="stroke: #A80036; stroke-width: 1.0;"/><line style="stroke: #A80036; stroke-width: 1.0;" x1="149.5" x2="251.5" y1="123.1094" y2="123.1094"/><text fill="#000000" font-family="sans-serif" font-size="13" lengthAdjust="spacingAndGlyphs" textLength="84" x="156.5" y="117.9355">InnerRingList()</text><polygon fill="#A80036" points="160.5,153.3438,150.5,157.3438,160.5,161.3438,156.5,157.3438" style="stroke: #A80036; stroke-width: 1.0;"/><line style="stroke: #A80036; stroke-width: 1.0;" x1="154.5" x2="256.5" y1="157.3438" y2="157.3438"/><text fill="#000000" font-family="sans-serif" font-size="13" lengthAdjust="spacingAndGlyphs" textLength="69" x="166.5" y="152.1699">[]PublicKeys</text><path d="M47,136.1094 L47,161.1094 L140,161.1094 L140,146.1094 L130,136.1094 L47,136.1094 " fill="#FBFB77" filter="url(#f16absvwy4s8ns)" style="stroke: #A80036; stroke-width: 1.0;"/><path d="M130,136.1094 L130,146.1094 L140,146.1094 L130,136.1094 " fill="#FBFB77" style="stroke: #A80036; stroke-width: 1.0;"/><text fill="#000000" font-family="sans-serif" font-size="13" lengthAdjust="spacingAndGlyphs" textLength="72" x="53" y="153.1699">valid invoker</text><line style="stroke: #A80036; stroke-width: 1.0;" x1="149.5" x2="191.5" y1="191.5781" y2="191.5781"/><line style="stroke: #A80036; stroke-width: 1.0;" x1="191.5" x2="191.5" y1="191.5781" y2="204.5781"/><line style="stroke: #A80036; stroke-width: 1.0;" x1="150.5" x2="191.5" y1="204.5781" y2="204.5781"/><polygon fill="#A80036" points="160.5,200.5781,150.5,204.5781,160.5,208.5781,156.5,204.5781" style="stroke: #A80036; stroke-width: 1.0;"/><text fill="#000000" font-family="sans-serif" font-size="13" lengthAdjust="spacingAndGlyphs" textLength="50" x="156.5" y="186.4043">emit gas</text><line style="stroke: #000000; stroke-width: 1.0; stroke-dasharray: 2.0,2.0;" x1="13" x2="313" y1="213.5781" y2="213.5781"/><text fill="#000000" font-family="sans-serif" font-size="11" font-weight="bold" lengthAdjust="spacingAndGlyphs" textLength="67" x="18" y="223.7832">[panic case]</text><polygon fill="#A80036" points="137.5,244.7031,147.5,248.7031,137.5,252.7031,141.5,248.7031" style="stroke: #A80036; stroke-width: 1.0;"/><line style="stroke: #A80036; stroke-width: 1.0;" x1="91.5" x2="143.5" y1="248.7031" y2="248.7031"/><text fill="#000000" font-family="sans-serif" font-size="13" lengthAdjust="spacingAndGlyphs" textLength="34" x="98.5" y="243.5293">Emit()</text><polygon fill="#A80036" points="245.5,273.9375,255.5,277.9375,245.5,281.9375,249.5,277.9375" style="stroke: #A80036; stroke-width: 1.0;"/><line style="stroke: #A80036; stroke-width: 1.0;" x1="149.5" x2="251.5" y1="277.9375" y2="277.9375"/><text fill="#000000" font-family="sans-serif" font-size="13" lengthAdjust="spacingAndGlyphs" textLength="84" x="156.5" y="272.7637">InnerRingList()</text><polygon fill="#A80036" points="160.5,308.1719,150.5,312.1719,160.5,316.1719,156.5,312.1719" style="stroke: #A80036; stroke-width: 1.0;"/><line style="stroke: #A80036; stroke-width: 1.0;" x1="154.5" x2="256.5" y1="312.1719" y2="312.1719"/><text fill="#000000" font-family="sans-serif" font-size="13" lengthAdjust="spacingAndGlyphs" textLength="69" x="166.5" y="306.998">[]PublicKeys</text><path d="M37,290.9375 L37,315.9375 L140,315.9375 L140,300.9375 L130,290.9375 L37,290.9375 " fill="#FBFB77" filter="url(#f16absvwy4s8ns)" style="stroke: #A80036; stroke-width: 1.0;"/><path d="M130,290.9375 L130,300.9375 L140,300.9375 L130,290.9375 " fill="#FBFB77" style="stroke: #A80036; stroke-width: 1.0;"/><text fill="#000000" font-family="sans-serif" font-size="13" lengthAdjust="spacingAndGlyphs" textLength="82" x="43" y="307.998">invalid invoker</text><line style="stroke: #A80036; stroke-width: 1.0;" x1="149.5" x2="191.5" y1="346.4063" y2="346.4063"/><line style="stroke: #A80036; stroke-width: 1.0;" x1="191.5" x2="191.5" y1="346.4063" y2="359.4063"/><line style="stroke: #A80036; stroke-width: 1.0;" x1="162.5" x2="191.5" y1="359.4063" y2="359.4063"/><line style="stroke: #A80036; stroke-width: 2.0;" x1="155.5" x2="165.5" y1="354.4063" y2="364.4063"/><line style="stroke: #A80036; stroke-width: 2.0;" x1="155.5" x2="165.5" y1="364.4063" y2="354.4063"/><text fill="#000000" font-family="sans-serif" font-size="13" lengthAdjust="spacingAndGlyphs" textLength="32" x="156.5" y="341.2324">panic</text><!--MD5=[751e584ceab51327bc188ae66e996ebf]
@startuml

participant "IR Ⰰ" as ir1
participant "IR Ⰱ" as ir2
participant "SC Ⰰ" as az
participant "SC Netmap" as nm


alt successful case
  ir1 -> az: Emit()
  az -> nm: InnerRingList()
  nm -> az: []PublicKeys
  note left
    valid invoker
  end note
  az -> az: emit gas
else panic case
  ir2 -> az: Emit()
  az -> nm: InnerRingList()
  nm -> az: []PublicKeys
  note left
    invalid invoker
  end note
  az -x az: panic
end
@enduml

PlantUML version 1.2020.09(Sun May 10 13:51:06 MSK 2020)
(GPL source distribution)
Java Runtime: OpenJDK Runtime Environment
JVM: OpenJDK 64-Bit Server VM
Java Version: 11.0.25+9-suse-150000.3.119.1-x8664
Operating System: Linux
Default Encoding: UTF-8
Language: ru
Country: RU
--></g></svg>