<?xml version="1.0" encoding="UTF-8" standalone="no"?><svg xmlns="http://www.w3.org/2000/svg" xmlns:xlink="http://www.w3.org/1999/xlink" contentScriptType="application/ecmascript" contentStyleType="text/css" height="235px" preserveAspectRatio="none" style="width:992px;height:235px;" version="1.1" viewBox="0 0 992 235" width="992px" zoomAndPan="magnify"><defs><filter height="300%" id="f14ro1egeyq5tr" width="300%" x="-1" y="-1"><feGaussianBlur result="blurOut" stdDeviation="2.0"/><feColorMatrix in="blurOut" result="blurOut2" type="matrix" values="0 0 0 0 0 0 0 0 0 0 0 0 0 0 0 0 0 0 .4 0"/><feOffset dx="4.0" dy="4.0" in="blurOut2" result="blurOut3"/><feBlend in="SourceGraphic" in2="blurOut3" mode="normal"/></filter></defs><g><!--MD5=[8bdf6284c4d208faf6dfd8ced6ed9352]
cluster NeoFS IR--><rect fill="#FFFFFF" filter="url(#f14ro1egeyq5tr)" height="97" style="stroke: #000000; stroke-width: 1.5;" width="967" x="8" y="7"/><path d="M87,8 L87,16.2969 L77,26.2969 L8,26.2969 " fill="none" style="stroke: #000000; stroke-width: 1.5;"/><text fill="#000000" font-family="sans-serif" font-size="14" font-weight="bold" lengthAdjust="spacingAndGlyphs" textLength="69" x="11" y="20.9951">NeoFS IR</text><!--MD5=[104fd3e69ac936a845ff07dff0a1d1f6]
cluster NeoFS Sidechain--><rect fill="#FFFFFF" filter="url(#f14ro1egeyq5tr)" height="90" style="stroke: #000000; stroke-width: 1.5;" width="954" x="7" y="128"/><path d="M148,129 L148,137.2969 L138,147.2969 L7,147.2969 " fill="none" style="stroke: #000000; stroke-width: 1.5;"/><text fill="#000000" font-family="sans-serif" font-size="14" font-weight="bold" lengthAdjust="spacingAndGlyphs" textLength="131" x="10" y="141.9951">NeoFS Sidechain</text><!--MD5=[e9297a0c9cb87d374443aba907100e35]
entity IRAz--><polygon fill="#FEFECE" filter="url(#f14ro1egeyq5tr)" points="893,52,903,42,959,42,959,78.2969,949,88.2969,893,88.2969,893,52" style="stroke: #000000; stroke-width: 1.5;"/><line style="stroke: #000000; stroke-width: 1.5;" x1="949" x2="958" y1="52" y2="43"/><line style="stroke: #000000; stroke-width: 1.5;" x1="893" x2="949" y1="52" y2="52"/><line style="stroke: #000000; stroke-width: 1.5;" x1="949" x2="949" y1="52" y2="88.2969"/><text fill="#000000" font-family="sans-serif" font-size="14" lengthAdjust="spacingAndGlyphs" textLength="26" x="908" y="74.9951">IR Ⰰ</text><!--MD5=[5e7e22ff53dafe631dd07b5b9f180136]
entity IRBuky--><polygon fill="#FEFECE" filter="url(#f14ro1egeyq5tr)" points="790,52,800,42,858,42,858,78.2969,848,88.2969,790,88.2969,790,52" style="stroke: #000000; stroke-width: 1.5;"/><line style="stroke: #000000; stroke-width: 1.5;" x1="848" x2="857" y1="52" y2="43"/><line style="stroke: #000000; stroke-width: 1.5;" x1="790" x2="848" y1="52" y2="52"/><line style="stroke: #000000; stroke-width: 1.5;" x1="848" x2="848" y1="52" y2="88.2969"/><text fill="#000000" font-family="sans-serif" font-size="14" lengthAdjust="spacingAndGlyphs" textLength="28" x="805" y="74.9951">IR Ⰱ</text><!--MD5=[f53b74be6a549e39271e7bb0f0ce458c]
entity IRVedi--><polygon fill="#FEFECE" filter="url(#f14ro1egeyq5tr)" points="685.5,52,695.5,42,754.5,42,754.5,78.2969,744.5,88.2969,685.5,88.2969,685.5,52" style="stroke: #000000; stroke-width: 1.5;"/><line style="stroke: #000000; stroke-width: 1.5;" x1="744.5" x2="753.5" y1="52" y2="43"/><line style="stroke: #000000; stroke-width: 1.5;" x1="685.5" x2="744.5" y1="52" y2="52"/><line style="stroke: #000000; stroke-width: 1.5;" x1="744.5" x2="744.5" y1="52" y2="88.2969"/><text fill="#000000" font-family="sans-serif" font-size="14" lengthAdjust="spacingAndGlyphs" textLength="29" x="700.5" y="74.9951">IR Ⰲ</text><!--MD5=[df229055edefba1bbe802dc1160eab53]
entity IRGlagoli--><polygon fill="#FEFECE" filter="url(#f14ro1egeyq5tr)" points="583.5,52,593.5,42,650.5,42,650.5,78.2969,640.5,88.2969,583.5,88.2969,583.5,52" style="stroke: #000000; stroke-width: 1.5;"/><line style="stroke: #000000; stroke-width: 1.5;" x1="640.5" x2="649.5" y1="52" y2="43"/><line style="stroke: #000000; stroke-width: 1.5;" x1="583.5" x2="640.5" y1="52" y2="52"/><line style="stroke: #000000; stroke-width: 1.5;" x1="640.5" x2="640.5" y1="52" y2="88.2969"/><text fill="#000000" font-family="sans-serif" font-size="14" lengthAdjust="spacingAndGlyphs" textLength="27" x="598.5" y="74.9951">IR Ⰳ</text><!--MD5=[4322e7273334acc23a12ca84419ecc44]
entity IRDobro--><polygon fill="#FEFECE" filter="url(#f14ro1egeyq5tr)" points="479.5,52,489.5,42,548.5,42,548.5,78.2969,538.5,88.2969,479.5,88.2969,479.5,52" style="stroke: #000000; stroke-width: 1.5;"/><line style="stroke: #000000; stroke-width: 1.5;" x1="538.5" x2="547.5" y1="52" y2="43"/><line style="stroke: #000000; stroke-width: 1.5;" x1="479.5" x2="538.5" y1="52" y2="52"/><line style="stroke: #000000; stroke-width: 1.5;" x1="538.5" x2="538.5" y1="52" y2="88.2969"/><text fill="#000000" font-family="sans-serif" font-size="14" lengthAdjust="spacingAndGlyphs" textLength="29" x="494.5" y="74.9951">IR Ⰴ</text><!--MD5=[3b8377b2b5071fef4722d711b4a3230d]
entity IRYest--><polygon fill="#FEFECE" filter="url(#f14ro1egeyq5tr)" points="378,52,388,42,444,42,444,78.2969,434,88.2969,378,88.2969,378,52" style="stroke: #000000; stroke-width: 1.5;"/><line style="stroke: #000000; stroke-width: 1.5;" x1="434" x2="443" y1="52" y2="43"/><line style="stroke: #000000; stroke-width: 1.5;" x1="378" x2="434" y1="52" y2="52"/><line style="stroke: #000000; stroke-width: 1.5;" x1="434" x2="434" y1="52" y2="88.2969"/><text fill="#000000" font-family="sans-serif" font-size="14" lengthAdjust="spacingAndGlyphs" textLength="26" x="393" y="74.9951">IR Ⰵ</text><!--MD5=[32f3fdea7a25a82f63f76e59d1189faa]
entity IRZhivete--><polygon fill="#FEFECE" filter="url(#f14ro1egeyq5tr)" points="275,52,285,42,343,42,343,78.2969,333,88.2969,275,88.2969,275,52" style="stroke: #000000; stroke-width: 1.5;"/><line style="stroke: #000000; stroke-width: 1.5;" x1="333" x2="342" y1="52" y2="43"/><line style="stroke: #000000; stroke-width: 1.5;" x1="275" x2="333" y1="52" y2="52"/><line style="stroke: #000000; stroke-width: 1.5;" x1="333" x2="333" y1="52" y2="88.2969"/><text fill="#000000" font-family="sans-serif" font-size="14" lengthAdjust="spacingAndGlyphs" textLength="28" x="290" y="74.9951">IR Ⰶ</text><!--MD5=[ef95eb2210feb4535357f6b1df740c69]
entity IR--><polygon fill="#FEFECE" filter="url(#f14ro1egeyq5tr)" points="186.5,52,196.5,42,239.5,42,239.5,78.2969,229.5,88.2969,186.5,88.2969,186.5,52" style="stroke: #000000; stroke-width: 1.5;"/><line style="stroke: #000000; stroke-width: 1.5;" x1="229.5" x2="238.5" y1="52" y2="43"/><line style="stroke: #000000; stroke-width: 1.5;" x1="186.5" x2="229.5" y1="52" y2="52"/><line style="stroke: #000000; stroke-width: 1.5;" x1="229.5" x2="229.5" y1="52" y2="88.2969"/><text fill="#000000" font-family="sans-serif" font-size="14" lengthAdjust="spacingAndGlyphs" textLength="13" x="201.5" y="74.9951">IR</text><!--MD5=[69943ad2842ddb60c2c014d89c4797d5]
entity IRCN--><polygon fill="#FEFECE" filter="url(#f14ro1egeyq5tr)" points="24.5,52,34.5,42,151.5,42,151.5,78.2969,141.5,88.2969,24.5,88.2969,24.5,52" style="stroke: #000000; stroke-width: 1.5;"/><line style="stroke: #000000; stroke-width: 1.5;" x1="141.5" x2="150.5" y1="52" y2="43"/><line style="stroke: #000000; stroke-width: 1.5;" x1="24.5" x2="141.5" y1="52" y2="52"/><line style="stroke: #000000; stroke-width: 1.5;" x1="141.5" x2="141.5" y1="52" y2="88.2969"/><text fill="#000000" font-family="sans-serif" font-size="14" lengthAdjust="spacingAndGlyphs" textLength="87" x="39.5" y="74.9951">IR Candidate</text><!--MD5=[a00c7bf1d8762f0ceb92ed7aaed40416]
entity SCAz--><rect fill="#FEFECE" filter="url(#f14ro1egeyq5tr)" height="39.2969" style="stroke: #000000; stroke-width: 1.5;" width="62" x="883" y="163"/><polygon fill="#FEFECE" points="928,168,928,182,940,182,940,174,934,168,928,168" style="stroke: #000000; stroke-width: 1.5;"/><line style="stroke: #000000; stroke-width: 1.5;" x1="934" x2="934" y1="168" y2="174"/><line style="stroke: #000000; stroke-width: 1.5;" x1="940" x2="934" y1="174" y2="174"/><text fill="#000000" font-family="sans-serif" font-size="14" lengthAdjust="spacingAndGlyphs" textLength="32" x="893" y="188.9951">SC Ⰰ</text><!--MD5=[e4fda73294e6461112ae489ff06fb829]
entity SCBuky--><rect fill="#FEFECE" filter="url(#f14ro1egeyq5tr)" height="39.2969" style="stroke: #000000; stroke-width: 1.5;" width="64" x="784" y="163"/><polygon fill="#FEFECE" points="831,168,831,182,843,182,843,174,837,168,831,168" style="stroke: #000000; stroke-width: 1.5;"/><line style="stroke: #000000; stroke-width: 1.5;" x1="837" x2="837" y1="168" y2="174"/><line style="stroke: #000000; stroke-width: 1.5;" x1="843" x2="837" y1="174" y2="174"/><text fill="#000000" font-family="sans-serif" font-size="14" lengthAdjust="spacingAndGlyphs" textLength="34" x="794" y="188.9951">SC Ⰱ</text><!--MD5=[9120dae33d05bf7123a47234a87e97f5]
entity SCVedi--><rect fill="#FEFECE" filter="url(#f14ro1egeyq5tr)" height="39.2969" style="stroke: #000000; stroke-width: 1.5;" width="65" x="683.5" y="163"/><polygon fill="#FEFECE" points="731.5,168,731.5,182,743.5,182,743.5,174,737.5,168,731.5,168" style="stroke: #000000; stroke-width: 1.5;"/><line style="stroke: #000000; stroke-width: 1.5;" x1="737.5" x2="737.5" y1="168" y2="174"/><line style="stroke: #000000; stroke-width: 1.5;" x1="743.5" x2="737.5" y1="174" y2="174"/><text fill="#000000" font-family="sans-serif" font-size="14" lengthAdjust="spacingAndGlyphs" textLength="35" x="693.5" y="188.9951">SC Ⰲ</text><!--MD5=[d4cca24d360a3351439f157e5983cf99]
entity SCGlagoli--><rect fill="#FEFECE" filter="url(#f14ro1egeyq5tr)" height="39.2969" style="stroke: #000000; stroke-width: 1.5;" width="63" x="585.5" y="163"/><polygon fill="#FEFECE" points="631.5,168,631.5,182,643.5,182,643.5,174,637.5,168,631.5,168" style="stroke: #000000; stroke-width: 1.5;"/><line style="stroke: #000000; stroke-width: 1.5;" x1="637.5" x2="637.5" y1="168" y2="174"/><line style="stroke: #000000; stroke-width: 1.5;" x1="643.5" x2="637.5" y1="174" y2="174"/><text fill="#000000" font-family="sans-serif" font-size="14" lengthAdjust="spacingAndGlyphs" textLength="33" x="595.5" y="188.9951">SC Ⰳ</text><!--MD5=[9937ddb23bf1d29a54bfe00ffc548652]
entity SCDobro--><rect fill="#FEFECE" filter="url(#f14ro1egeyq5tr)" height="39.2969" style="stroke: #000000; stroke-width: 1.5;" width="65" x="485.5" y="163"/><polygon fill="#FEFECE" points="533.5,168,533.5,182,545.5,182,545.5,174,539.5,168,533.5,168" style="stroke: #000000; stroke-width: 1.5;"/><line style="stroke: #000000; stroke-width: 1.5;" x1="539.5" x2="539.5" y1="168" y2="174"/><line style="stroke: #000000; stroke-width: 1.5;" x1="545.5" x2="539.5" y1="174" y2="174"/><text fill="#000000" font-family="sans-serif" font-size="14" lengthAdjust="spacingAndGlyphs" textLength="35" x="495.5" y="188.9951">SC Ⰴ</text><!--MD5=[99369b77bc2fc5defb7c90e03a57c3b8]
entity SCYest--><rect fill="#FEFECE" filter="url(#f14ro1egeyq5tr)" height="39.2969" style="stroke: #000000; stroke-width: 1.5;" width="62" x="388" y="163"/><polygon fill="#FEFECE" points="433,168,433,182,445,182,445,174,439,168,433,168" style="stroke: #000000; stroke-width: 1.5;"/><line style="stroke: #000000; stroke-width: 1.5;" x1="439" x2="439" y1="168" y2="174"/><line style="stroke: #000000; stroke-width: 1.5;" x1="445" x2="439" y1="174" y2="174"/><text fill="#000000" font-family="sans-serif" font-size="14" lengthAdjust="spacingAndGlyphs" textLength="32" x="398" y="188.9951">SC Ⰵ</text><!--MD5=[1aa8c070b4aef47debcefaca7e4b8ab5]
entity SCZhivete--><rect fill="#FEFECE" filter="url(#f14ro1egeyq5tr)" height="39.2969" style="stroke: #000000; stroke-width: 1.5;" width="64" x="289" y="163"/><polygon fill="#FEFECE" points="336,168,336,182,348,182,348,174,342,168,336,168" style="stroke: #000000; stroke-width: 1.5;"/><line style="stroke: #000000; stroke-width: 1.5;" x1="342" x2="342" y1="168" y2="174"/><line style="stroke: #000000; stroke-width: 1.5;" x1="348" x2="342" y1="174" y2="174"/><text fill="#000000" font-family="sans-serif" font-size="14" lengthAdjust="spacingAndGlyphs" textLength="34" x="299" y="188.9951">SC Ⰶ</text><!--MD5=[1ef65b70dc8108fbee6bb9757f0e6437]
entity NetmapSC--><rect fill="#FEFECE" filter="url(#f14ro1egeyq5tr)" height="39.2969" style="stroke: #000000; stroke-width: 1.5;" width="107" x="146.5" y="163"/><polygon fill="#FEFECE" points="236.5,168,236.5,182,248.5,182,248.5,174,242.5,168,236.5,168" style="stroke: #000000; stroke-width: 1.5;"/><line style="stroke: #000000; stroke-width: 1.5;" x1="242.5" x2="242.5" y1="168" y2="174"/><line style="stroke: #000000; stroke-width: 1.5;" x1="248.5" x2="242.5" y1="174" y2="174"/><text fill="#000000" font-family="sans-serif" font-size="14" lengthAdjust="spacingAndGlyphs" textLength="77" x="156.5" y="188.9951">SC Netmap</text><!--MD5=[5e63c1afb9a3d11ba7f1d25c70d0d93e]
entity AuditSC--><rect fill="#FEFECE" filter="url(#f14ro1egeyq5tr)" height="39.2969" style="stroke: #000000; stroke-width: 1.5;" width="88" x="23" y="163"/><polygon fill="#FEFECE" points="94,168,94,182,106,182,106,174,100,168,94,168" style="stroke: #000000; stroke-width: 1.5;"/><line style="stroke: #000000; stroke-width: 1.5;" x1="100" x2="100" y1="168" y2="174"/><line style="stroke: #000000; stroke-width: 1.5;" x1="106" x2="100" y1="174" y2="174"/><text fill="#000000" font-family="sans-serif" font-size="14" lengthAdjust="spacingAndGlyphs" textLength="58" x="33" y="188.9951">SC Audit</text><!--MD5=[127e10eb524d0a6ea998aa62a01aaf04]
link IRAz to SCAz--><path d="M923.69,88.27 C921.61,108.21 918.58,137.37 916.47,157.75 " fill="none" id="IRAz-&gt;SCAz" style="stroke: #A80036; stroke-width: 1.0;"/><polygon fill="#A80036" points="915.95,162.73,920.8549,154.1894,916.4645,157.7565,912.8973,153.3662,915.95,162.73" style="stroke: #A80036; stroke-width: 1.0;"/><!--MD5=[3d726ee2f1a85d2152736cc0ddfaafad]
link IRBuky to SCBuky--><path d="M822.46,88.27 C821.08,108.13 819.07,137.12 817.66,157.49 " fill="none" id="IRBuky-&gt;SCBuky" style="stroke: #A80036; stroke-width: 1.0;"/><polygon fill="#A80036" points="817.3,162.73,821.908,154.0256,817.643,157.7418,813.9269,153.4768,817.3,162.73" style="stroke: #A80036; stroke-width: 1.0;"/><!--MD5=[c024a05543e87ded57efd041b8920b05]
link IRVedi to SCVedi--><path d="M719.23,88.27 C718.54,108.13 717.54,137.12 716.83,157.49 " fill="none" id="IRVedi-&gt;SCVedi" style="stroke: #A80036; stroke-width: 1.0;"/><polygon fill="#A80036" points="716.65,162.73,720.956,153.8723,716.8213,157.7329,712.9607,153.5982,716.65,162.73" style="stroke: #A80036; stroke-width: 1.0;"/><!--MD5=[6ee152d9a79ad0c0156623ee14de513a]
link IRGlagoli to SCGlagoli--><path d="M617,88.27 C617,108.13 617,137.12 617,157.49 " fill="none" id="IRGlagoli-&gt;SCGlagoli" style="stroke: #A80036; stroke-width: 1.0;"/><polygon fill="#A80036" points="617,162.73,621,153.73,617,157.73,613,153.73,617,162.73" style="stroke: #A80036; stroke-width: 1.0;"/><!--MD5=[15cb84f82b79bffce52461a67da849c3]
link IRDobro to SCDobro--><path d="M514.77,88.27 C515.46,108.13 516.46,137.12 517.17,157.49 " fill="none" id="IRDobro-&gt;SCDobro" style="stroke: #A80036; stroke-width: 1.0;"/><polygon fill="#A80036" points="517.35,162.73,521.0393,153.5982,517.1787,157.7329,513.044,153.8723,517.35,162.73" style="stroke: #A80036; stroke-width: 1.0;"/><!--MD5=[6c26d16d8619813c2d29100f7fb4ac1f]
link IRYest to SCYest--><path d="M412.54,88.27 C413.92,108.13 415.93,137.12 417.34,157.49 " fill="none" id="IRYest-&gt;SCYest" style="stroke: #A80036; stroke-width: 1.0;"/><polygon fill="#A80036" points="417.7,162.73,421.0731,153.4768,417.357,157.7418,413.092,154.0256,417.7,162.73" style="stroke: #A80036; stroke-width: 1.0;"/><!--MD5=[8593c9e9c7745affd2338767a1798b7e]
link IRZhivete to SCZhivete--><path d="M311.31,88.27 C313.39,108.21 316.42,137.37 318.53,157.75 " fill="none" id="IRZhivete-&gt;SCZhivete" style="stroke: #A80036; stroke-width: 1.0;"/><polygon fill="#A80036" points="319.05,162.73,322.1027,153.3662,318.5355,157.7565,314.1451,154.1894,319.05,162.73" style="stroke: #A80036; stroke-width: 1.0;"/><!--MD5=[a8524dc1ff93bb2e7479f8b4a0f9364d]
@startuml

frame "NeoFS IR" {
node "IR Ⰰ" as IRAz
node "IR Ⰱ" as IRBuky
node "IR Ⰲ" as IRVedi
node "IR Ⰳ" as IRGlagoli
node "IR Ⰴ" as IRDobro
node "IR Ⰵ" as IRYest
node "IR Ⰶ" as IRZhivete

node "IR" as IR

node "IR Candidate" as IRCN

}

frame "NeoFS Sidechain" {
artifact "SC Ⰰ" as SCAz
artifact "SC Ⰱ" as SCBuky
artifact "SC Ⰲ" as SCVedi
artifact "SC Ⰳ" as SCGlagoli
artifact "SC Ⰴ" as SCDobro
artifact "SC Ⰵ" as SCYest
artifact "SC Ⰶ" as SCZhivete

artifact "SC Netmap" as NetmapSC
artifact "SC Audit" as AuditSC
}

'Links and relations

IRAz - ->        SCAz
IRBuky - ->      SCBuky
IRVedi - ->      SCVedi
IRGlagoli - ->   SCGlagoli
IRDobro - ->     SCDobro
IRYest - ->      SCYest
IRZhivete - ->   SCZhivete
@enduml

@startuml

frame "NeoFS IR" {
node "IR Ⰰ" as IRAz
node "IR Ⰱ" as IRBuky
node "IR Ⰲ" as IRVedi
node "IR Ⰳ" as IRGlagoli
node "IR Ⰴ" as IRDobro
node "IR Ⰵ" as IRYest
node "IR Ⰶ" as IRZhivete

node "IR" as IR

node "IR Candidate" as IRCN

}

frame "NeoFS Sidechain" {
artifact "SC Ⰰ" as SCAz
artifact "SC Ⰱ" as SCBuky
artifact "SC Ⰲ" as SCVedi
artifact "SC Ⰳ" as SCGlagoli
artifact "SC Ⰴ" as SCDobro
artifact "SC Ⰵ" as SCYest
artifact "SC Ⰶ" as SCZhivete

artifact "SC Netmap" as NetmapSC
artifact "SC Audit" as AuditSC
}


IRAz - ->        SCAz
IRBuky - ->      SCBuky
IRVedi - ->      SCVedi
IRGlagoli - ->   SCGlagoli
IRDobro - ->     SCDobro
IRYest - ->      SCYest
IRZhivete - ->   SCZhivete
@enduml

PlantUML version 1.2020.15(Sun Jun 28 11:39:45 UTC 2020)
(GPL source distribution)
Java Runtime: OpenJDK Runtime Environment
JVM: OpenJDK 64-Bit Server VM
Default Encoding: ANSI_X3.4-1968
Language: en
Country: US
--></g></svg>