<?xml version="1.0" encoding="UTF-8" standalone="no"?><svg xmlns="http://www.w3.org/2000/svg" xmlns:xlink="http://www.w3.org/1999/xlink" contentScriptType="application/ecmascript" contentStyleType="text/css" height="1296px" preserveAspectRatio="none" style="width:855px;height:1296px;" version="1.1" viewBox="0 0 855 1296" width="855px" zoomAndPan="magnify"><defs><filter height="300%" id="f1m59dbj455c3w" width="300%" x="-1" y="-1"><feGaussianBlur result="blurOut" stdDeviation="2.0"/><feColorMatrix in="blurOut" result="blurOut2" type="matrix" values="0 0 0 0 0 0 0 0 0 0 0 0 0 0 0 0 0 0 .4 0"/><feOffset dx="4.0" dy="4.0" in="blurOut2" result="blurOut3"/><feBlend in="SourceGraphic" in2="blurOut3" mode="normal"/></filter></defs><g><rect fill="#FFFFFF" filter="url(#f1m59dbj455c3w)" height="129.5313" style="stroke: #A80036; stroke-width: 1.0;" width="10" x="87.5" y="947.5781"/><rect fill="#FFFFFF" filter="url(#f1m59dbj455c3w)" height="35.1328" style="stroke: #A80036; stroke-width: 1.0;" width="10" x="195.5" y="1164.5078"/><rect fill="#FFFFFF" filter="url(#f1m59dbj455c3w)" height="68.2656" style="stroke: #A80036; stroke-width: 1.0;" width="10" x="348.5" y="198.2578"/><rect fill="#FFFFFF" filter="url(#f1m59dbj455c3w)" height="129.0977" style="stroke: #A80036; stroke-width: 1.0;" width="10" x="348.5" y="367.4883"/><rect fill="#FFFFFF" filter="url(#f1m59dbj455c3w)" height="58.2656" style="stroke: #A80036; stroke-width: 1.0;" width="10" x="348.5" y="615.1172"/><rect fill="#FFFFFF" filter="url(#f1m59dbj455c3w)" height="92.3984" style="stroke: #A80036; stroke-width: 1.0;" width="10" x="348.5" y="736.6484"/><rect fill="#FFFFFF" filter="url(#f1m59dbj455c3w)" height="57.832" style="stroke: #A80036; stroke-width: 1.0;" width="10" x="522.5" y="64.5938"/><rect fill="#FFFFFF" filter="url(#f1m59dbj455c3w)" height="118.5313" style="stroke: #A80036; stroke-width: 1.0;" width="10" x="522.5" y="438.3203"/><rect fill="#FFFFFF" filter="url(#f1m59dbj455c3w)" height="118.5313" style="stroke: #A80036; stroke-width: 1.0;" width="10" x="522.5" y="770.7813"/><rect fill="#FFFFFF" filter="url(#f1m59dbj455c3w)" height="87.3984" style="stroke: #A80036; stroke-width: 1.0;" width="10" x="522.5" y="1018.8438"/><rect fill="#FFFFFF" filter="url(#f1m59dbj455c3w)" height="99.5313" style="stroke: #A80036; stroke-width: 1.0;" width="10" x="577.5" y="64.5938"/><rect fill="#FFFFFF" filter="url(#f1m59dbj455c3w)" height="118.5313" style="stroke: #A80036; stroke-width: 1.0;" width="10" x="577.5" y="467.4531"/><rect fill="#FFFFFF" filter="url(#f1m59dbj455c3w)" height="118.5313" style="stroke: #A80036; stroke-width: 1.0;" width="10" x="577.5" y="799.9141"/><rect fill="#FFFFFF" filter="url(#f1m59dbj455c3w)" height="87.3984" style="stroke: #A80036; stroke-width: 1.0;" width="10" x="577.5" y="1047.9766"/><rect fill="#FFFFFF" filter="url(#f1m59dbj455c3w)" height="133.6641" style="stroke: #A80036; stroke-width: 1.0;" width="10" x="634" y="64.5938"/><rect fill="#FFFFFF" filter="url(#f1m59dbj455c3w)" height="118.5313" style="stroke: #A80036; stroke-width: 1.0;" width="10" x="634" y="496.5859"/><rect fill="#FFFFFF" filter="url(#f1m59dbj455c3w)" height="118.5313" style="stroke: #A80036; stroke-width: 1.0;" width="10" x="634" y="829.0469"/><rect fill="#FFFFFF" filter="url(#f1m59dbj455c3w)" height="87.3984" style="stroke: #A80036; stroke-width: 1.0;" width="10" x="634" y="1077.1094"/><rect fill="#FFFFFF" filter="url(#f1m59dbj455c3w)" height="46.6992" style="stroke: #A80036; stroke-width: 1.0;" width="10" x="743.5" y="266.5234"/><rect fill="#FFFFFF" filter="url(#f1m59dbj455c3w)" height="58.2656" style="stroke: #A80036; stroke-width: 1.0;" width="10" x="743.5" y="644.25"/><rect fill="#FFFFFF" filter="url(#f1m59dbj455c3w)" height="63.2656" style="stroke: #A80036; stroke-width: 1.0;" width="10" x="797.5" y="673.3828"/><rect fill="#FFFFFF" filter="url(#f1m59dbj455c3w)" height="432.9922" style="stroke: #000000; stroke-width: 2.0;" width="824.5" x="12" y="71.5938"/><rect fill="#FFFFFF" filter="url(#f1m59dbj455c3w)" height="318.4609" style="stroke: #000000; stroke-width: 2.0;" width="624.5" x="210" y="518.5859"/><rect fill="#FFFFFF" filter="url(#f1m59dbj455c3w)" height="363.5938" style="stroke: #000000; stroke-width: 2.0;" width="627.5" x="45" y="851.0469"/><line style="stroke: #A80036; stroke-width: 1.0; stroke-dasharray: 5.0,5.0;" x1="92" x2="92" y1="54.5938" y2="1231.6406"/><line style="stroke: #A80036; stroke-width: 1.0; stroke-dasharray: 5.0,5.0;" x1="200" x2="200" y1="54.5938" y2="1231.6406"/><line style="stroke: #A80036; stroke-width: 1.0; stroke-dasharray: 5.0,5.0;" x1="353" x2="353" y1="54.5938" y2="1231.6406"/><line style="stroke: #A80036; stroke-width: 1.0; stroke-dasharray: 5.0,5.0;" x1="527.5" x2="527.5" y1="54.5938" y2="1231.6406"/><line style="stroke: #A80036; stroke-width: 1.0; stroke-dasharray: 5.0,5.0;" x1="582.5" x2="582.5" y1="54.5938" y2="1231.6406"/><line style="stroke: #A80036; stroke-width: 1.0; stroke-dasharray: 5.0,5.0;" x1="638.5" x2="638.5" y1="54.5938" y2="1231.6406"/><line style="stroke: #A80036; stroke-width: 1.0; stroke-dasharray: 5.0,5.0;" x1="694.5" x2="694.5" y1="54.5938" y2="1231.6406"/><line style="stroke: #A80036; stroke-width: 1.0; stroke-dasharray: 5.0,5.0;" x1="748.5" x2="748.5" y1="54.5938" y2="1231.6406"/><line style="stroke: #A80036; stroke-width: 1.0; stroke-dasharray: 5.0,5.0;" x1="802.5" x2="802.5" y1="54.5938" y2="1231.6406"/><rect fill="#FEFECE" filter="url(#f1m59dbj455c3w)" height="46.5938" style="stroke: #A80036; stroke-width: 1.5;" width="71" x="55" y="3"/><text fill="#000000" font-family="sans-serif" font-size="14" lengthAdjust="spacingAndGlyphs" textLength="45" x="68" y="22.9951">NeoFS</text><text fill="#000000" font-family="sans-serif" font-size="14" lengthAdjust="spacingAndGlyphs" textLength="57" x="62" y="39.292">contract</text><rect fill="#FEFECE" filter="url(#f1m59dbj455c3w)" height="46.5938" style="stroke: #A80036; stroke-width: 1.5;" width="71" x="55" y="1230.6406"/><text fill="#000000" font-family="sans-serif" font-size="14" lengthAdjust="spacingAndGlyphs" textLength="45" x="68" y="1250.6357">NeoFS</text><text fill="#000000" font-family="sans-serif" font-size="14" lengthAdjust="spacingAndGlyphs" textLength="57" x="62" y="1266.9326">contract</text><rect fill="#FEFECE" filter="url(#f1m59dbj455c3w)" height="46.5938" style="stroke: #A80036; stroke-width: 1.5;" width="71" x="163" y="3"/><text fill="#000000" font-family="sans-serif" font-size="14" lengthAdjust="spacingAndGlyphs" textLength="54" x="171.5" y="22.9951">Netmap</text><text fill="#000000" font-family="sans-serif" font-size="14" lengthAdjust="spacingAndGlyphs" textLength="57" x="170" y="39.292">contract</text><rect fill="#FEFECE" filter="url(#f1m59dbj455c3w)" height="46.5938" style="stroke: #A80036; stroke-width: 1.5;" width="71" x="163" y="1230.6406"/><text fill="#000000" font-family="sans-serif" font-size="14" lengthAdjust="spacingAndGlyphs" textLength="54" x="171.5" y="1250.6357">Netmap</text><text fill="#000000" font-family="sans-serif" font-size="14" lengthAdjust="spacingAndGlyphs" textLength="57" x="170" y="1266.9326">contract</text><rect fill="#FEFECE" filter="url(#f1m59dbj455c3w)" height="46.5938" style="stroke: #A80036; stroke-width: 1.5;" width="71" x="316" y="3"/><text fill="#000000" font-family="sans-serif" font-size="14" lengthAdjust="spacingAndGlyphs" textLength="44" x="329.5" y="22.9951">Voting</text><text fill="#000000" font-family="sans-serif" font-size="14" lengthAdjust="spacingAndGlyphs" textLength="57" x="323" y="39.292">contract</text><rect fill="#FEFECE" filter="url(#f1m59dbj455c3w)" height="46.5938" style="stroke: #A80036; stroke-width: 1.5;" width="71" x="316" y="1230.6406"/><text fill="#000000" font-family="sans-serif" font-size="14" lengthAdjust="spacingAndGlyphs" textLength="44" x="329.5" y="1250.6357">Voting</text><text fill="#000000" font-family="sans-serif" font-size="14" lengthAdjust="spacingAndGlyphs" textLength="57" x="323" y="1266.9326">contract</text><rect fill="#FEFECE" filter="url(#f1m59dbj455c3w)" height="30.2969" style="stroke: #A80036; stroke-width: 1.5;" width="40" x="505.5" y="19.2969"/><text fill="#000000" font-family="sans-serif" font-size="14" lengthAdjust="spacingAndGlyphs" textLength="26" x="512.5" y="39.292">IR Ⰰ</text><rect fill="#FEFECE" filter="url(#f1m59dbj455c3w)" height="30.2969" style="stroke: #A80036; stroke-width: 1.5;" width="40" x="505.5" y="1230.6406"/><text fill="#000000" font-family="sans-serif" font-size="14" lengthAdjust="spacingAndGlyphs" textLength="26" x="512.5" y="1250.6357">IR Ⰰ</text><rect fill="#FEFECE" filter="url(#f1m59dbj455c3w)" height="30.2969" style="stroke: #A80036; stroke-width: 1.5;" width="42" x="559.5" y="19.2969"/><text fill="#000000" font-family="sans-serif" font-size="14" lengthAdjust="spacingAndGlyphs" textLength="28" x="566.5" y="39.292">IR Ⰱ</text><rect fill="#FEFECE" filter="url(#f1m59dbj455c3w)" height="30.2969" style="stroke: #A80036; stroke-width: 1.5;" width="42" x="559.5" y="1230.6406"/><text fill="#000000" font-family="sans-serif" font-size="14" lengthAdjust="spacingAndGlyphs" textLength="28" x="566.5" y="1250.6357">IR Ⰱ</text><rect fill="#FEFECE" filter="url(#f1m59dbj455c3w)" height="30.2969" style="stroke: #A80036; stroke-width: 1.5;" width="43" x="615.5" y="19.2969"/><text fill="#000000" font-family="sans-serif" font-size="14" lengthAdjust="spacingAndGlyphs" textLength="29" x="622.5" y="39.292">IR Ⰲ</text><rect fill="#FEFECE" filter="url(#f1m59dbj455c3w)" height="30.2969" style="stroke: #A80036; stroke-width: 1.5;" width="43" x="615.5" y="1230.6406"/><text fill="#000000" font-family="sans-serif" font-size="14" lengthAdjust="spacingAndGlyphs" textLength="29" x="622.5" y="1250.6357">IR Ⰲ</text><rect fill="#FEFECE" filter="url(#f1m59dbj455c3w)" height="30.2969" style="stroke: #A80036; stroke-width: 1.5;" width="40" x="672.5" y="19.2969"/><text fill="#000000" font-family="sans-serif" font-size="14" lengthAdjust="spacingAndGlyphs" textLength="26" x="679.5" y="39.292">IR 1</text><rect fill="#FEFECE" filter="url(#f1m59dbj455c3w)" height="30.2969" style="stroke: #A80036; stroke-width: 1.5;" width="40" x="672.5" y="1230.6406"/><text fill="#000000" font-family="sans-serif" font-size="14" lengthAdjust="spacingAndGlyphs" textLength="26" x="679.5" y="1250.6357">IR 1</text><rect fill="#FEFECE" filter="url(#f1m59dbj455c3w)" height="30.2969" style="stroke: #A80036; stroke-width: 1.5;" width="40" x="726.5" y="19.2969"/><text fill="#000000" font-family="sans-serif" font-size="14" lengthAdjust="spacingAndGlyphs" textLength="26" x="733.5" y="39.292">IR 2</text><rect fill="#FEFECE" filter="url(#f1m59dbj455c3w)" height="30.2969" style="stroke: #A80036; stroke-width: 1.5;" width="40" x="726.5" y="1230.6406"/><text fill="#000000" font-family="sans-serif" font-size="14" lengthAdjust="spacingAndGlyphs" textLength="26" x="733.5" y="1250.6357">IR 2</text><rect fill="#FEFECE" filter="url(#f1m59dbj455c3w)" height="30.2969" style="stroke: #A80036; stroke-width: 1.5;" width="40" x="780.5" y="19.2969"/><text fill="#000000" font-family="sans-serif" font-size="14" lengthAdjust="spacingAndGlyphs" textLength="26" x="787.5" y="39.292">IR 3</text><rect fill="#FEFECE" filter="url(#f1m59dbj455c3w)" height="30.2969" style="stroke: #A80036; stroke-width: 1.5;" width="40" x="780.5" y="1230.6406"/><text fill="#000000" font-family="sans-serif" font-size="14" lengthAdjust="spacingAndGlyphs" textLength="26" x="787.5" y="1250.6357">IR 3</text><rect fill="#FFFFFF" filter="url(#f1m59dbj455c3w)" height="129.5313" style="stroke: #A80036; stroke-width: 1.0;" width="10" x="87.5" y="947.5781"/><rect fill="#FFFFFF" filter="url(#f1m59dbj455c3w)" height="35.1328" style="stroke: #A80036; stroke-width: 1.0;" width="10" x="195.5" y="1164.5078"/><rect fill="#FFFFFF" filter="url(#f1m59dbj455c3w)" height="68.2656" style="stroke: #A80036; stroke-width: 1.0;" width="10" x="348.5" y="198.2578"/><rect fill="#FFFFFF" filter="url(#f1m59dbj455c3w)" height="129.0977" style="stroke: #A80036; stroke-width: 1.0;" width="10" x="348.5" y="367.4883"/><rect fill="#FFFFFF" filter="url(#f1m59dbj455c3w)" height="58.2656" style="stroke: #A80036; stroke-width: 1.0;" width="10" x="348.5" y="615.1172"/><rect fill="#FFFFFF" filter="url(#f1m59dbj455c3w)" height="92.3984" style="stroke: #A80036; stroke-width: 1.0;" width="10" x="348.5" y="736.6484"/><rect fill="#FFFFFF" filter="url(#f1m59dbj455c3w)" height="57.832" style="stroke: #A80036; stroke-width: 1.0;" width="10" x="522.5" y="64.5938"/><rect fill="#FFFFFF" filter="url(#f1m59dbj455c3w)" height="118.5313" style="stroke: #A80036; stroke-width: 1.0;" width="10" x="522.5" y="438.3203"/><rect fill="#FFFFFF" filter="url(#f1m59dbj455c3w)" height="118.5313" style="stroke: #A80036; stroke-width: 1.0;" width="10" x="522.5" y="770.7813"/><rect fill="#FFFFFF" filter="url(#f1m59dbj455c3w)" height="87.3984" style="stroke: #A80036; stroke-width: 1.0;" width="10" x="522.5" y="1018.8438"/><rect fill="#FFFFFF" filter="url(#f1m59dbj455c3w)" height="99.5313" style="stroke: #A80036; stroke-width: 1.0;" width="10" x="577.5" y="64.5938"/><rect fill="#FFFFFF" filter="url(#f1m59dbj455c3w)" height="118.5313" style="stroke: #A80036; stroke-width: 1.0;" width="10" x="577.5" y="467.4531"/><rect fill="#FFFFFF" filter="url(#f1m59dbj455c3w)" height="118.5313" style="stroke: #A80036; stroke-width: 1.0;" width="10" x="577.5" y="799.9141"/><rect fill="#FFFFFF" filter="url(#f1m59dbj455c3w)" height="87.3984" style="stroke: #A80036; stroke-width: 1.0;" width="10" x="577.5" y="1047.9766"/><rect fill="#FFFFFF" filter="url(#f1m59dbj455c3w)" height="133.6641" style="stroke: #A80036; stroke-width: 1.0;" width="10" x="634" y="64.5938"/><rect fill="#FFFFFF" filter="url(#f1m59dbj455c3w)" height="118.5313" style="stroke: #A80036; stroke-width: 1.0;" width="10" x="634" y="496.5859"/><rect fill="#FFFFFF" filter="url(#f1m59dbj455c3w)" height="118.5313" style="stroke: #A80036; stroke-width: 1.0;" width="10" x="634" y="829.0469"/><rect fill="#FFFFFF" filter="url(#f1m59dbj455c3w)" height="87.3984" style="stroke: #A80036; stroke-width: 1.0;" width="10" x="634" y="1077.1094"/><rect fill="#FFFFFF" filter="url(#f1m59dbj455c3w)" height="46.6992" style="stroke: #A80036; stroke-width: 1.0;" width="10" x="743.5" y="266.5234"/><rect fill="#FFFFFF" filter="url(#f1m59dbj455c3w)" height="58.2656" style="stroke: #A80036; stroke-width: 1.0;" width="10" x="743.5" y="644.25"/><rect fill="#FFFFFF" filter="url(#f1m59dbj455c3w)" height="63.2656" style="stroke: #A80036; stroke-width: 1.0;" width="10" x="797.5" y="673.3828"/><path d="M12,71.5938 L153,71.5938 L153,78.5938 L143,88.5938 L12,88.5938 L12,71.5938 " fill="#EEEEEE" style="stroke: #000000; stroke-width: 1.0;"/><rect fill="none" height="432.9922" style="stroke: #000000; stroke-width: 2.0;" width="824.5" x="12" y="71.5938"/><text fill="#000000" font-family="sans-serif" font-size="13" font-weight="bold" lengthAdjust="spacingAndGlyphs" textLength="96" x="27" y="84.6606">Failed voting</text><polygon fill="#A80036" points="364.5,118.4258,354.5,122.4258,364.5,126.4258,360.5,122.4258" style="stroke: #A80036; stroke-width: 1.0;"/><line style="stroke: #A80036; stroke-width: 1.0;" x1="358.5" x2="526.5" y1="122.4258" y2="122.4258"/><text fill="#000000" font-family="sans-serif" font-size="13" lengthAdjust="spacingAndGlyphs" textLength="145" x="370.5" y="117.3599">Prepare( {Ⰰ,Ⰱ,Ⰲ,1,2} )</text><path d="M537,93.7266 L537,133.7266 L792,133.7266 L792,103.7266 L782,93.7266 L537,93.7266 " fill="#FBFB77" filter="url(#f1m59dbj455c3w)" style="stroke: #A80036; stroke-width: 1.0;"/><path d="M782,93.7266 L782,103.7266 L792,103.7266 L782,93.7266 " fill="#FBFB77" style="stroke: #A80036; stroke-width: 1.0;"/><text fill="#000000" font-family="sans-serif" font-size="13" lengthAdjust="spacingAndGlyphs" textLength="230" x="543" y="110.7935">Each list calculated deterministically</text><text fill="#000000" font-family="sans-serif" font-size="13" lengthAdjust="spacingAndGlyphs" textLength="162" x="543" y="125.9263">by each Alphabet IR node</text><polygon fill="#A80036" points="364.5,160.125,354.5,164.125,364.5,168.125,360.5,164.125" style="stroke: #A80036; stroke-width: 1.0;"/><line style="stroke: #A80036; stroke-width: 1.0;" x1="358.5" x2="581.5" y1="164.125" y2="164.125"/><text fill="#000000" font-family="sans-serif" font-size="13" lengthAdjust="spacingAndGlyphs" textLength="145" x="370.5" y="159.0591">Prepare( {Ⰰ,Ⰱ,Ⰲ,1,2} )</text><polygon fill="#A80036" points="369.5,194.2578,359.5,198.2578,369.5,202.2578,365.5,198.2578" style="stroke: #A80036; stroke-width: 1.0;"/><line style="stroke: #A80036; stroke-width: 1.0;" x1="363.5" x2="638" y1="198.2578" y2="198.2578"/><text fill="#000000" font-family="sans-serif" font-size="13" lengthAdjust="spacingAndGlyphs" textLength="145" x="375.5" y="193.1919">Prepare( {Ⰰ,Ⰱ,Ⰲ,1,2} )</text><path d="M126,177.125 L126,202.125 L339,202.125 L339,187.125 L329,177.125 L126,177.125 " fill="#FBFB77" filter="url(#f1m59dbj455c3w)" style="stroke: #A80036; stroke-width: 1.0;"/><path d="M329,177.125 L329,187.125 L339,187.125 L329,177.125 " fill="#FBFB77" style="stroke: #A80036; stroke-width: 1.0;"/><text fill="#000000" font-family="sans-serif" font-size="13" lengthAdjust="spacingAndGlyphs" textLength="192" x="132" y="194.1919">Need 2/3+1 Alphabet IR votes</text><line style="stroke: #A80036; stroke-width: 2.0;" x1="676.5" x2="686.5" y1="227.3906" y2="237.3906"/><line style="stroke: #A80036; stroke-width: 2.0;" x1="676.5" x2="686.5" y1="237.3906" y2="227.3906"/><line style="stroke: #A80036; stroke-width: 1.0;" x1="358.5" x2="681.5" y1="232.3906" y2="232.3906"/><text fill="#000000" font-family="sans-serif" font-size="13" lengthAdjust="spacingAndGlyphs" textLength="37" x="365.5" y="227.3247">Notify</text><polygon fill="#A80036" points="731.5,262.5234,741.5,266.5234,731.5,270.5234,735.5,266.5234" style="stroke: #A80036; stroke-width: 1.0;"/><line style="stroke: #A80036; stroke-width: 1.0;" x1="353.5" x2="737.5" y1="266.5234" y2="266.5234"/><text fill="#000000" font-family="sans-serif" font-size="13" lengthAdjust="spacingAndGlyphs" textLength="37" x="360.5" y="261.4575">Notify</text><path d="M22,245.3906 L22,270.3906 L339,270.3906 L339,255.3906 L329,245.3906 L22,245.3906 " fill="#FBFB77" filter="url(#f1m59dbj455c3w)" style="stroke: #A80036; stroke-width: 1.0;"/><path d="M329,245.3906 L329,255.3906 L339,255.3906 L329,245.3906 " fill="#FBFB77" style="stroke: #A80036; stroke-width: 1.0;"/><text fill="#000000" font-family="sans-serif" font-size="13" lengthAdjust="spacingAndGlyphs" textLength="296" x="28" y="262.4575">Only new IR nodes in the list send confirmation</text><polygon fill="#A80036" points="364.5,309.2227,354.5,313.2227,364.5,317.2227,360.5,313.2227" style="stroke: #A80036; stroke-width: 1.0;"/><line style="stroke: #A80036; stroke-width: 1.0;" x1="358.5" x2="747.5" y1="313.2227" y2="313.2227"/><text fill="#000000" font-family="sans-serif" font-size="13" lengthAdjust="spacingAndGlyphs" textLength="145" x="370.5" y="308.1567">Prepare( {Ⰰ,Ⰱ,Ⰲ,1,2} )</text><path d="M170,284.5234 L170,324.5234 L344,324.5234 L344,294.5234 L334,284.5234 L170,284.5234 " fill="#FBFB77" filter="url(#f1m59dbj455c3w)" style="stroke: #A80036; stroke-width: 1.0;"/><path d="M334,284.5234 L334,294.5234 L344,294.5234 L334,284.5234 " fill="#FBFB77" style="stroke: #A80036; stroke-width: 1.0;"/><text fill="#000000" font-family="sans-serif" font-size="13" lengthAdjust="spacingAndGlyphs" textLength="149" x="176" y="301.5903">Regular IR confirm only,</text><text fill="#000000" font-family="sans-serif" font-size="13" lengthAdjust="spacingAndGlyphs" textLength="153" x="176" y="316.7231">without list recalculation</text><polygon fill="#A80036" points="369.5,363.4883,359.5,367.4883,369.5,371.4883,365.5,367.4883" style="stroke: #A80036; stroke-width: 1.0;"/><line style="stroke: #A80036; stroke-width: 1.0;" x1="363.5" x2="526.5" y1="367.4883" y2="367.4883"/><text fill="#000000" font-family="sans-serif" font-size="13" lengthAdjust="spacingAndGlyphs" textLength="74" x="375.5" y="362.4224">EndRound()</text><path d="M532,338.7891 L532,378.7891 L817,378.7891 L817,348.7891 L807,338.7891 L532,338.7891 " fill="#FBFB77" filter="url(#f1m59dbj455c3w)" style="stroke: #A80036; stroke-width: 1.0;"/><path d="M807,338.7891 L807,348.7891 L817,348.7891 L807,338.7891 " fill="#FBFB77" style="stroke: #A80036; stroke-width: 1.0;"/><text fill="#000000" font-family="sans-serif" font-size="13" lengthAdjust="spacingAndGlyphs" textLength="219" x="538" y="355.856">Alphabet IR nodes wait for timeout</text><text fill="#000000" font-family="sans-serif" font-size="13" lengthAdjust="spacingAndGlyphs" textLength="264" x="538" y="370.9888">and then invoke round results settlement</text><polygon fill="#A80036" points="211.5,405.1875,201.5,409.1875,211.5,413.1875,207.5,409.1875" style="stroke: #A80036; stroke-width: 1.0;"/><line style="stroke: #A80036; stroke-width: 1.0;" x1="205.5" x2="347.5" y1="409.1875" y2="409.1875"/><text fill="#000000" font-family="sans-serif" font-size="13" lengthAdjust="spacingAndGlyphs" textLength="124" x="217.5" y="404.1216">SetInactiveIR( {1} )</text><polygon fill="#A80036" points="510.5,434.3203,520.5,438.3203,510.5,442.3203,514.5,438.3203" style="stroke: #A80036; stroke-width: 1.0;"/><line style="stroke: #A80036; stroke-width: 1.0;" x1="358.5" x2="516.5" y1="438.3203" y2="438.3203"/><text fill="#000000" font-family="sans-serif" font-size="13" lengthAdjust="spacingAndGlyphs" textLength="37" x="365.5" y="433.2544">Notify</text><polygon fill="#A80036" points="565.5,463.4531,575.5,467.4531,565.5,471.4531,569.5,467.4531" style="stroke: #A80036; stroke-width: 1.0;"/><line style="stroke: #A80036; stroke-width: 1.0;" x1="358.5" x2="571.5" y1="467.4531" y2="467.4531"/><text fill="#000000" font-family="sans-serif" font-size="13" lengthAdjust="spacingAndGlyphs" textLength="37" x="365.5" y="462.3872">Notify</text><polygon fill="#A80036" points="622,492.5859,632,496.5859,622,500.5859,626,496.5859" style="stroke: #A80036; stroke-width: 1.0;"/><line style="stroke: #A80036; stroke-width: 1.0;" x1="353.5" x2="628" y1="496.5859" y2="496.5859"/><text fill="#000000" font-family="sans-serif" font-size="13" lengthAdjust="spacingAndGlyphs" textLength="37" x="360.5" y="491.52">Notify</text><path d="M210,518.5859 L386,518.5859 L386,525.5859 L376,535.5859 L210,535.5859 L210,518.5859 " fill="#EEEEEE" style="stroke: #000000; stroke-width: 1.0;"/><rect fill="none" height="318.4609" style="stroke: #000000; stroke-width: 2.0;" width="624.5" x="210" y="518.5859"/><text fill="#000000" font-family="sans-serif" font-size="13" font-weight="bold" lengthAdjust="spacingAndGlyphs" textLength="131" x="225" y="531.6528">New voting round</text><polygon fill="#A80036" points="364.5,552.8516,354.5,556.8516,364.5,560.8516,360.5,556.8516" style="stroke: #A80036; stroke-width: 1.0;"/><line style="stroke: #A80036; stroke-width: 1.0;" x1="358.5" x2="526.5" y1="556.8516" y2="556.8516"/><text fill="#000000" font-family="sans-serif" font-size="13" lengthAdjust="spacingAndGlyphs" textLength="145" x="370.5" y="551.7856">Prepare( {Ⰰ,Ⰱ,Ⰲ,2,3} )</text><polygon fill="#A80036" points="364.5,581.9844,354.5,585.9844,364.5,589.9844,360.5,585.9844" style="stroke: #A80036; stroke-width: 1.0;"/><line style="stroke: #A80036; stroke-width: 1.0;" x1="358.5" x2="581.5" y1="585.9844" y2="585.9844"/><text fill="#000000" font-family="sans-serif" font-size="13" lengthAdjust="spacingAndGlyphs" textLength="145" x="370.5" y="580.9185">Prepare( {Ⰰ,Ⰱ,Ⰲ,2,3} )</text><polygon fill="#A80036" points="369.5,611.1172,359.5,615.1172,369.5,619.1172,365.5,615.1172" style="stroke: #A80036; stroke-width: 1.0;"/><line style="stroke: #A80036; stroke-width: 1.0;" x1="363.5" x2="638" y1="615.1172" y2="615.1172"/><text fill="#000000" font-family="sans-serif" font-size="13" lengthAdjust="spacingAndGlyphs" textLength="145" x="375.5" y="610.0513">Prepare( {Ⰰ,Ⰱ,Ⰲ,2,3} )</text><polygon fill="#A80036" points="731.5,640.25,741.5,644.25,731.5,648.25,735.5,644.25" style="stroke: #A80036; stroke-width: 1.0;"/><line style="stroke: #A80036; stroke-width: 1.0;" x1="358.5" x2="737.5" y1="644.25" y2="644.25"/><text fill="#000000" font-family="sans-serif" font-size="13" lengthAdjust="spacingAndGlyphs" textLength="37" x="365.5" y="639.1841">Notify</text><polygon fill="#A80036" points="785.5,669.3828,795.5,673.3828,785.5,677.3828,789.5,673.3828" style="stroke: #A80036; stroke-width: 1.0;"/><line style="stroke: #A80036; stroke-width: 1.0;" x1="353.5" x2="791.5" y1="673.3828" y2="673.3828"/><text fill="#000000" font-family="sans-serif" font-size="13" lengthAdjust="spacingAndGlyphs" textLength="37" x="360.5" y="668.3169">Notify</text><polygon fill="#A80036" points="364.5,698.5156,354.5,702.5156,364.5,706.5156,360.5,702.5156" style="stroke: #A80036; stroke-width: 1.0;"/><line style="stroke: #A80036; stroke-width: 1.0;" x1="358.5" x2="747.5" y1="702.5156" y2="702.5156"/><text fill="#000000" font-family="sans-serif" font-size="13" lengthAdjust="spacingAndGlyphs" textLength="145" x="370.5" y="697.4497">Prepare( {Ⰰ,Ⰱ,Ⰲ,2,3} )</text><polygon fill="#A80036" points="369.5,732.6484,359.5,736.6484,369.5,740.6484,365.5,736.6484" style="stroke: #A80036; stroke-width: 1.0;"/><line style="stroke: #A80036; stroke-width: 1.0;" x1="363.5" x2="801.5" y1="736.6484" y2="736.6484"/><text fill="#000000" font-family="sans-serif" font-size="13" lengthAdjust="spacingAndGlyphs" textLength="145" x="375.5" y="731.5825">Prepare( {Ⰰ,Ⰱ,Ⰲ,2,3} )</text><path d="M220,715.5156 L220,740.5156 L339,740.5156 L339,725.5156 L329,715.5156 L220,715.5156 " fill="#FBFB77" filter="url(#f1m59dbj455c3w)" style="stroke: #A80036; stroke-width: 1.0;"/><path d="M329,715.5156 L329,725.5156 L339,725.5156 L329,715.5156 " fill="#FBFB77" style="stroke: #A80036; stroke-width: 1.0;"/><text fill="#000000" font-family="sans-serif" font-size="13" lengthAdjust="spacingAndGlyphs" textLength="98" x="226" y="732.5825">Got new IR List!</text><polygon fill="#A80036" points="510.5,766.7813,520.5,770.7813,510.5,774.7813,514.5,770.7813" style="stroke: #A80036; stroke-width: 1.0;"/><line style="stroke: #A80036; stroke-width: 1.0;" x1="358.5" x2="516.5" y1="770.7813" y2="770.7813"/><text fill="#000000" font-family="sans-serif" font-size="13" lengthAdjust="spacingAndGlyphs" textLength="37" x="365.5" y="765.7153">Notify</text><polygon fill="#A80036" points="565.5,795.9141,575.5,799.9141,565.5,803.9141,569.5,799.9141" style="stroke: #A80036; stroke-width: 1.0;"/><line style="stroke: #A80036; stroke-width: 1.0;" x1="358.5" x2="571.5" y1="799.9141" y2="799.9141"/><text fill="#000000" font-family="sans-serif" font-size="13" lengthAdjust="spacingAndGlyphs" textLength="37" x="365.5" y="794.8481">Notify</text><polygon fill="#A80036" points="622,825.0469,632,829.0469,622,833.0469,626,829.0469" style="stroke: #A80036; stroke-width: 1.0;"/><line style="stroke: #A80036; stroke-width: 1.0;" x1="353.5" x2="628" y1="829.0469" y2="829.0469"/><text fill="#000000" font-family="sans-serif" font-size="13" lengthAdjust="spacingAndGlyphs" textLength="37" x="360.5" y="823.981">Notify</text><path d="M45,851.0469 L190,851.0469 L190,858.0469 L180,868.0469 L45,868.0469 L45,851.0469 " fill="#EEEEEE" style="stroke: #000000; stroke-width: 1.0;"/><rect fill="none" height="363.5938" style="stroke: #000000; stroke-width: 2.0;" width="627.5" x="45" y="851.0469"/><text fill="#000000" font-family="sans-serif" font-size="13" font-weight="bold" lengthAdjust="spacingAndGlyphs" textLength="100" x="60" y="864.1138">Update IR list</text><polygon fill="#A80036" points="103.5,885.3125,93.5,889.3125,103.5,893.3125,99.5,889.3125" style="stroke: #A80036; stroke-width: 1.0;"/><line style="stroke: #A80036; stroke-width: 1.0;" x1="97.5" x2="526.5" y1="889.3125" y2="889.3125"/><text fill="#000000" font-family="sans-serif" font-size="13" lengthAdjust="spacingAndGlyphs" textLength="201" x="109.5" y="884.2466">UpdateInnerRing( {Ⰰ,Ⰱ,Ⰲ,2,3} )</text><polygon fill="#A80036" points="103.5,914.4453,93.5,918.4453,103.5,922.4453,99.5,918.4453" style="stroke: #A80036; stroke-width: 1.0;"/><line style="stroke: #A80036; stroke-width: 1.0;" x1="97.5" x2="581.5" y1="918.4453" y2="918.4453"/><text fill="#000000" font-family="sans-serif" font-size="13" lengthAdjust="spacingAndGlyphs" textLength="201" x="109.5" y="913.3794">UpdateInnerRing( {Ⰰ,Ⰱ,Ⰲ,2,3} )</text><polygon fill="#A80036" points="108.5,943.5781,98.5,947.5781,108.5,951.5781,104.5,947.5781" style="stroke: #A80036; stroke-width: 1.0;"/><line style="stroke: #A80036; stroke-width: 1.0;" x1="102.5" x2="638" y1="947.5781" y2="947.5781"/><text fill="#000000" font-family="sans-serif" font-size="13" lengthAdjust="spacingAndGlyphs" textLength="201" x="114.5" y="942.5122">UpdateInnerRing( {Ⰰ,Ⰱ,Ⰲ,2,3} )</text><line style="stroke: #A80036; stroke-width: 1.0;" x1="97.5" x2="139.5" y1="976.7109" y2="976.7109"/><line style="stroke: #A80036; stroke-width: 1.0;" x1="139.5" x2="139.5" y1="976.7109" y2="989.7109"/><line style="stroke: #A80036; stroke-width: 1.0;" x1="98.5" x2="139.5" y1="989.7109" y2="989.7109"/><polygon fill="#A80036" points="108.5,985.7109,98.5,989.7109,108.5,993.7109,104.5,989.7109" style="stroke: #A80036; stroke-width: 1.0;"/><text fill="#000000" font-family="sans-serif" font-size="13" lengthAdjust="spacingAndGlyphs" textLength="84" x="104.5" y="971.645">Update IR list</text><polygon fill="#A80036" points="510.5,1014.8438,520.5,1018.8438,510.5,1022.8438,514.5,1018.8438" style="stroke: #A80036; stroke-width: 1.0;"/><line style="stroke: #A80036; stroke-width: 1.0;" x1="97.5" x2="516.5" y1="1018.8438" y2="1018.8438"/><text fill="#000000" font-family="sans-serif" font-size="13" lengthAdjust="spacingAndGlyphs" textLength="37" x="104.5" y="1013.7778">Notify</text><polygon fill="#A80036" points="565.5,1043.9766,575.5,1047.9766,565.5,1051.9766,569.5,1047.9766" style="stroke: #A80036; stroke-width: 1.0;"/><line style="stroke: #A80036; stroke-width: 1.0;" x1="97.5" x2="571.5" y1="1047.9766" y2="1047.9766"/><text fill="#000000" font-family="sans-serif" font-size="13" lengthAdjust="spacingAndGlyphs" textLength="37" x="104.5" y="1042.9106">Notify</text><polygon fill="#A80036" points="622,1073.1094,632,1077.1094,622,1081.1094,626,1077.1094" style="stroke: #A80036; stroke-width: 1.0;"/><line style="stroke: #A80036; stroke-width: 1.0;" x1="92.5" x2="628" y1="1077.1094" y2="1077.1094"/><text fill="#000000" font-family="sans-serif" font-size="13" lengthAdjust="spacingAndGlyphs" textLength="37" x="99.5" y="1072.0435">Notify</text><polygon fill="#A80036" points="211.5,1102.2422,201.5,1106.2422,211.5,1110.2422,207.5,1106.2422" style="stroke: #A80036; stroke-width: 1.0;"/><line style="stroke: #A80036; stroke-width: 1.0;" x1="205.5" x2="526.5" y1="1106.2422" y2="1106.2422"/><text fill="#000000" font-family="sans-serif" font-size="13" lengthAdjust="spacingAndGlyphs" textLength="201" x="217.5" y="1101.1763">UpdateInnerRing( {Ⰰ,Ⰱ,Ⰲ,2,3} )</text><polygon fill="#A80036" points="211.5,1131.375,201.5,1135.375,211.5,1139.375,207.5,1135.375" style="stroke: #A80036; stroke-width: 1.0;"/><line style="stroke: #A80036; stroke-width: 1.0;" x1="205.5" x2="581.5" y1="1135.375" y2="1135.375"/><text fill="#000000" font-family="sans-serif" font-size="13" lengthAdjust="spacingAndGlyphs" textLength="201" x="217.5" y="1130.3091">UpdateInnerRing( {Ⰰ,Ⰱ,Ⰲ,2,3} )</text><polygon fill="#A80036" points="216.5,1160.5078,206.5,1164.5078,216.5,1168.5078,212.5,1164.5078" style="stroke: #A80036; stroke-width: 1.0;"/><line style="stroke: #A80036; stroke-width: 1.0;" x1="210.5" x2="638" y1="1164.5078" y2="1164.5078"/><text fill="#000000" font-family="sans-serif" font-size="13" lengthAdjust="spacingAndGlyphs" textLength="201" x="222.5" y="1159.4419">UpdateInnerRing( {Ⰰ,Ⰱ,Ⰲ,2,3} )</text><line style="stroke: #A80036; stroke-width: 1.0;" x1="205.5" x2="247.5" y1="1198.6406" y2="1198.6406"/><line style="stroke: #A80036; stroke-width: 1.0;" x1="247.5" x2="247.5" y1="1198.6406" y2="1211.6406"/><line style="stroke: #A80036; stroke-width: 1.0;" x1="200.5" x2="247.5" y1="1211.6406" y2="1211.6406"/><polygon fill="#A80036" points="210.5,1207.6406,200.5,1211.6406,210.5,1215.6406,206.5,1211.6406" style="stroke: #A80036; stroke-width: 1.0;"/><text fill="#000000" font-family="sans-serif" font-size="13" lengthAdjust="spacingAndGlyphs" textLength="84" x="212.5" y="1193.5747">Update IR list</text><!--MD5=[dae77d9e1880f7fffbe04bf25c42aa9b]
@startuml

participant "NeoFS\ncontract" as nfscon
participant "Netmap\ncontract" as netmap
participant "Voting\ncontract" as vote

participant "IR Ⰰ" as irA
participant "IR Ⰱ" as irB
participant "IR Ⰲ" as irV

participant "IR 1" as ir1
participant "IR 2" as ir2
participant "IR 3" as ir3

group Failed voting
activate irA
activate irB
activate irV
irA -> vote: Prepare( {Ⰰ,Ⰱ,Ⰲ,1,2} )
deactivate irA

note right: Each list calculated deterministically \nby each Alphabet IR node
irB -> vote: Prepare( {Ⰰ,Ⰱ,Ⰲ,1,2} )
deactivate irB
irV -> vote: Prepare( {Ⰰ,Ⰱ,Ⰲ,1,2} )
note left: Need 2/3+1 Alphabet IR votes
deactivate irV

activate vote
vote ->x ir1: Notify
vote -> ir2: Notify
note left: Only new IR nodes in the list send confirmation
deactivate vote

activate ir2
ir2 -> vote: Prepare( {Ⰰ,Ⰱ,Ⰲ,1,2} )
note left: Regular IR confirm only,\nwithout list recalculation
deactivate ir2

irA -> vote: EndRound()
activate vote
note right: Alphabet IR nodes wait for timeout \nand then invoke round results settlement
vote -> netmap: SetInactiveIR( {1} )

vote -> irA: Notify
activate irA

vote -> irB: Notify
activate irB

vote -> irV: Notify
deactivate vote
activate irV
end

group New voting round
irA -> vote: Prepare( {Ⰰ,Ⰱ,Ⰲ,2,3} )
deactivate irA
irB -> vote: Prepare( {Ⰰ,Ⰱ,Ⰲ,2,3} )
deactivate irB
irV -> vote: Prepare( {Ⰰ,Ⰱ,Ⰲ,2,3} )
deactivate irV
activate vote
vote -> ir2: Notify
activate ir2
vote -> ir3: Notify
deactivate vote
activate ir3
ir2 -> vote: Prepare( {Ⰰ,Ⰱ,Ⰲ,2,3} )
deactivate ir2
ir3 -> vote: Prepare( {Ⰰ,Ⰱ,Ⰲ,2,3} )
deactivate ir3
activate vote
note left: Got new IR List!
vote -> irA: Notify
activate irA
vote -> irB: Notify
activate irB
vote -> irV: Notify
deactivate vote
activate irV
end

group Update IR list
irA -> nfscon: UpdateInnerRing( {Ⰰ,Ⰱ,Ⰲ,2,3} )
deactivate irA
irB -> nfscon: UpdateInnerRing( {Ⰰ,Ⰱ,Ⰲ,2,3} )
deactivate irB
irV -> nfscon: UpdateInnerRing( {Ⰰ,Ⰱ,Ⰲ,2,3} )
deactivate irV
activate nfscon
nfscon -> nfscon: Update IR list
nfscon -> irA: Notify
activate irA
nfscon -> irB: Notify
activate irB
nfscon -> irV: Notify
deactivate nfscon
activate irV
irA -> netmap: UpdateInnerRing( {Ⰰ,Ⰱ,Ⰲ,2,3} )
deactivate irA
irB -> netmap: UpdateInnerRing( {Ⰰ,Ⰱ,Ⰲ,2,3} )
deactivate irB
irV -> netmap: UpdateInnerRing( {Ⰰ,Ⰱ,Ⰲ,2,3} )
deactivate irV
activate netmap
netmap -> netmap: Update IR list
deactivate netmap

end

@enduml

PlantUML version 1.2020.15(Sun Jun 28 11:39:45 UTC 2020)
(GPL source distribution)
Java Runtime: OpenJDK Runtime Environment
JVM: OpenJDK 64-Bit Server VM
Default Encoding: ANSI_X3.4-1968
Language: en
Country: US
--></g></svg>