<?xml version="1.0" encoding="UTF-8" standalone="no"?><svg xmlns="http://www.w3.org/2000/svg" xmlns:xlink="http://www.w3.org/1999/xlink" contentScriptType="application/ecmascript" contentStyleType="text/css" height="246px" preserveAspectRatio="none" style="width:947px;height:246px;" version="1.1" viewBox="0 0 947 246" width="947px" zoomAndPan="magnify"><defs><filter height="300%" id="f1jrh8036pbjl4" width="300%" x="-1" y="-1"><feGaussianBlur result="blurOut" stdDeviation="2.0"/><feColorMatrix in="blurOut" result="blurOut2" type="matrix" values="0 0 0 0 0 0 0 0 0 0 0 0 0 0 0 0 0 0 .4 0"/><feOffset dx="4.0" dy="4.0" in="blurOut2" result="blurOut3"/><feBlend in="SourceGraphic" in2="blurOut3" mode="normal"/></filter></defs><g><!--MD5=[8bdf6284c4d208faf6dfd8ced6ed9352]
cluster NeoFS IR--><rect fill="#FFFFFF" filter="url(#f1jrh8036pbjl4)" height="97" style="stroke: #000000; stroke-width: 1.5;" width="914" x="22" y="24"/><path d="M92,25 L92,33.4063 L82,43.4063 L22,43.4063 " fill="none" style="stroke: #000000; stroke-width: 1.5;"/><text fill="#000000" font-family="sans-serif" font-size="14" font-weight="bold" lengthAdjust="spacingAndGlyphs" textLength="60" x="25" y="37.9883">NeoFS IR</text><!--MD5=[8155625d253facaa9c6bd62f9964fc7a]
cluster FS chain--><rect fill="#FFFFFF" filter="url(#f1jrh8036pbjl4)" height="90" style="stroke: #000000; stroke-width: 1.5;" width="900" x="22" y="145"/><path d="M88,146 L88,154.4063 L78,164.4063 L22,164.4063 " fill="none" style="stroke: #000000; stroke-width: 1.5;"/><text fill="#000000" font-family="sans-serif" font-size="14" font-weight="bold" lengthAdjust="spacingAndGlyphs" textLength="56" x="25" y="158.9883">FS chain</text><!--MD5=[e9297a0c9cb87d374443aba907100e35]
entity IRAz--><polygon fill="#FEFECE" filter="url(#f1jrh8036pbjl4)" points="858.5,69,868.5,59,919.5,59,919.5,95.4063,909.5,105.4063,858.5,105.4063,858.5,69" style="stroke: #000000; stroke-width: 1.5;"/><line style="stroke: #000000; stroke-width: 1.5;" x1="909.5" x2="918.5" y1="69" y2="60"/><line style="stroke: #000000; stroke-width: 1.5;" x1="858.5" x2="909.5" y1="69" y2="69"/><line style="stroke: #000000; stroke-width: 1.5;" x1="909.5" x2="909.5" y1="69" y2="105.4063"/><text fill="#000000" font-family="sans-serif" font-size="14" lengthAdjust="spacingAndGlyphs" textLength="21" x="873.5" y="91.9883">IR Ⰰ</text><!--MD5=[5e7e22ff53dafe631dd07b5b9f180136]
entity IRBuky--><polygon fill="#FEFECE" filter="url(#f1jrh8036pbjl4)" points="762.5,69,772.5,59,823.5,59,823.5,95.4063,813.5,105.4063,762.5,105.4063,762.5,69" style="stroke: #000000; stroke-width: 1.5;"/><line style="stroke: #000000; stroke-width: 1.5;" x1="813.5" x2="822.5" y1="69" y2="60"/><line style="stroke: #000000; stroke-width: 1.5;" x1="762.5" x2="813.5" y1="69" y2="69"/><line style="stroke: #000000; stroke-width: 1.5;" x1="813.5" x2="813.5" y1="69" y2="105.4063"/><text fill="#000000" font-family="sans-serif" font-size="14" lengthAdjust="spacingAndGlyphs" textLength="21" x="777.5" y="91.9883">IR Ⰱ</text><!--MD5=[f53b74be6a549e39271e7bb0f0ce458c]
entity IRVedi--><polygon fill="#FEFECE" filter="url(#f1jrh8036pbjl4)" points="666.5,69,676.5,59,727.5,59,727.5,95.4063,717.5,105.4063,666.5,105.4063,666.5,69" style="stroke: #000000; stroke-width: 1.5;"/><line style="stroke: #000000; stroke-width: 1.5;" x1="717.5" x2="726.5" y1="69" y2="60"/><line style="stroke: #000000; stroke-width: 1.5;" x1="666.5" x2="717.5" y1="69" y2="69"/><line style="stroke: #000000; stroke-width: 1.5;" x1="717.5" x2="717.5" y1="69" y2="105.4063"/><text fill="#000000" font-family="sans-serif" font-size="14" lengthAdjust="spacingAndGlyphs" textLength="21" x="681.5" y="91.9883">IR Ⰲ</text><!--MD5=[df229055edefba1bbe802dc1160eab53]
entity IRGlagoli--><polygon fill="#FEFECE" filter="url(#f1jrh8036pbjl4)" points="570.5,69,580.5,59,631.5,59,631.5,95.4063,621.5,105.4063,570.5,105.4063,570.5,69" style="stroke: #000000; stroke-width: 1.5;"/><line style="stroke: #000000; stroke-width: 1.5;" x1="621.5" x2="630.5" y1="69" y2="60"/><line style="stroke: #000000; stroke-width: 1.5;" x1="570.5" x2="621.5" y1="69" y2="69"/><line style="stroke: #000000; stroke-width: 1.5;" x1="621.5" x2="621.5" y1="69" y2="105.4063"/><text fill="#000000" font-family="sans-serif" font-size="14" lengthAdjust="spacingAndGlyphs" textLength="21" x="585.5" y="91.9883">IR Ⰳ</text><!--MD5=[4322e7273334acc23a12ca84419ecc44]
entity IRDobro--><polygon fill="#FEFECE" filter="url(#f1jrh8036pbjl4)" points="474.5,69,484.5,59,535.5,59,535.5,95.4063,525.5,105.4063,474.5,105.4063,474.5,69" style="stroke: #000000; stroke-width: 1.5;"/><line style="stroke: #000000; stroke-width: 1.5;" x1="525.5" x2="534.5" y1="69" y2="60"/><line style="stroke: #000000; stroke-width: 1.5;" x1="474.5" x2="525.5" y1="69" y2="69"/><line style="stroke: #000000; stroke-width: 1.5;" x1="525.5" x2="525.5" y1="69" y2="105.4063"/><text fill="#000000" font-family="sans-serif" font-size="14" lengthAdjust="spacingAndGlyphs" textLength="21" x="489.5" y="91.9883">IR Ⰴ</text><!--MD5=[3b8377b2b5071fef4722d711b4a3230d]
entity IRYest--><polygon fill="#FEFECE" filter="url(#f1jrh8036pbjl4)" points="378.5,69,388.5,59,439.5,59,439.5,95.4063,429.5,105.4063,378.5,105.4063,378.5,69" style="stroke: #000000; stroke-width: 1.5;"/><line style="stroke: #000000; stroke-width: 1.5;" x1="429.5" x2="438.5" y1="69" y2="60"/><line style="stroke: #000000; stroke-width: 1.5;" x1="378.5" x2="429.5" y1="69" y2="69"/><line style="stroke: #000000; stroke-width: 1.5;" x1="429.5" x2="429.5" y1="69" y2="105.4063"/><text fill="#000000" font-family="sans-serif" font-size="14" lengthAdjust="spacingAndGlyphs" textLength="21" x="393.5" y="91.9883">IR Ⰵ</text><!--MD5=[32f3fdea7a25a82f63f76e59d1189faa]
entity IRZhivete--><polygon fill="#FEFECE" filter="url(#f1jrh8036pbjl4)" points="282.5,69,292.5,59,343.5,59,343.5,95.4063,333.5,105.4063,282.5,105.4063,282.5,69" style="stroke: #000000; stroke-width: 1.5;"/><line style="stroke: #000000; stroke-width: 1.5;" x1="333.5" x2="342.5" y1="69" y2="60"/><line style="stroke: #000000; stroke-width: 1.5;" x1="282.5" x2="333.5" y1="69" y2="69"/><line style="stroke: #000000; stroke-width: 1.5;" x1="333.5" x2="333.5" y1="69" y2="105.4063"/><text fill="#000000" font-family="sans-serif" font-size="14" lengthAdjust="spacingAndGlyphs" textLength="21" x="297.5" y="91.9883">IR Ⰶ</text><!--MD5=[ef95eb2210feb4535357f6b1df740c69]
entity IR--><polygon fill="#FEFECE" filter="url(#f1jrh8036pbjl4)" points="195,69,205,59,247,59,247,95.4063,237,105.4063,195,105.4063,195,69" style="stroke: #000000; stroke-width: 1.5;"/><line style="stroke: #000000; stroke-width: 1.5;" x1="237" x2="246" y1="69" y2="60"/><line style="stroke: #000000; stroke-width: 1.5;" x1="195" x2="237" y1="69" y2="69"/><line style="stroke: #000000; stroke-width: 1.5;" x1="237" x2="237" y1="69" y2="105.4063"/><text fill="#000000" font-family="sans-serif" font-size="14" lengthAdjust="spacingAndGlyphs" textLength="12" x="210" y="91.9883">IR</text><!--MD5=[69943ad2842ddb60c2c014d89c4797d5]
entity IRCN--><polygon fill="#FEFECE" filter="url(#f1jrh8036pbjl4)" points="38.5,69,48.5,59,159.5,59,159.5,95.4063,149.5,105.4063,38.5,105.4063,38.5,69" style="stroke: #000000; stroke-width: 1.5;"/><line style="stroke: #000000; stroke-width: 1.5;" x1="149.5" x2="158.5" y1="69" y2="60"/><line style="stroke: #000000; stroke-width: 1.5;" x1="38.5" x2="149.5" y1="69" y2="69"/><line style="stroke: #000000; stroke-width: 1.5;" x1="149.5" x2="149.5" y1="69" y2="105.4063"/><text fill="#000000" font-family="sans-serif" font-size="14" lengthAdjust="spacingAndGlyphs" textLength="81" x="53.5" y="91.9883">IR Candidate</text><!--MD5=[a00c7bf1d8762f0ceb92ed7aaed40416]
entity SCAz--><rect fill="#FEFECE" filter="url(#f1jrh8036pbjl4)" height="39.4063" style="stroke: #000000; stroke-width: 1.5;" width="57" x="848.5" y="180"/><polygon fill="#FEFECE" points="888.5,185,888.5,199,900.5,199,900.5,191,894.5,185,888.5,185" style="stroke: #000000; stroke-width: 1.5;"/><line style="stroke: #000000; stroke-width: 1.5;" x1="894.5" x2="894.5" y1="185" y2="191"/><line style="stroke: #000000; stroke-width: 1.5;" x1="900.5" x2="894.5" y1="191" y2="191"/><text fill="#000000" font-family="sans-serif" font-size="14" lengthAdjust="spacingAndGlyphs" textLength="27" x="858.5" y="205.9883">SC Ⰰ</text><!--MD5=[e4fda73294e6461112ae489ff06fb829]
entity SCBuky--><rect fill="#FEFECE" filter="url(#f1jrh8036pbjl4)" height="39.4063" style="stroke: #000000; stroke-width: 1.5;" width="57" x="756.5" y="180"/><polygon fill="#FEFECE" points="796.5,185,796.5,199,808.5,199,808.5,191,802.5,185,796.5,185" style="stroke: #000000; stroke-width: 1.5;"/><line style="stroke: #000000; stroke-width: 1.5;" x1="802.5" x2="802.5" y1="185" y2="191"/><line style="stroke: #000000; stroke-width: 1.5;" x1="808.5" x2="802.5" y1="191" y2="191"/><text fill="#000000" font-family="sans-serif" font-size="14" lengthAdjust="spacingAndGlyphs" textLength="27" x="766.5" y="205.9883">SC Ⰱ</text><!--MD5=[9120dae33d05bf7123a47234a87e97f5]
entity SCVedi--><rect fill="#FEFECE" filter="url(#f1jrh8036pbjl4)" height="39.4063" style="stroke: #000000; stroke-width: 1.5;" width="57" x="664.5" y="180"/><polygon fill="#FEFECE" points="704.5,185,704.5,199,716.5,199,716.5,191,710.5,185,704.5,185" style="stroke: #000000; stroke-width: 1.5;"/><line style="stroke: #000000; stroke-width: 1.5;" x1="710.5" x2="710.5" y1="185" y2="191"/><line style="stroke: #000000; stroke-width: 1.5;" x1="716.5" x2="710.5" y1="191" y2="191"/><text fill="#000000" font-family="sans-serif" font-size="14" lengthAdjust="spacingAndGlyphs" textLength="27" x="674.5" y="205.9883">SC Ⰲ</text><!--MD5=[d4cca24d360a3351439f157e5983cf99]
entity SCGlagoli--><rect fill="#FEFECE" filter="url(#f1jrh8036pbjl4)" height="39.4063" style="stroke: #000000; stroke-width: 1.5;" width="57" x="572.5" y="180"/><polygon fill="#FEFECE" points="612.5,185,612.5,199,624.5,199,624.5,191,618.5,185,612.5,185" style="stroke: #000000; stroke-width: 1.5;"/><line style="stroke: #000000; stroke-width: 1.5;" x1="618.5" x2="618.5" y1="185" y2="191"/><line style="stroke: #000000; stroke-width: 1.5;" x1="624.5" x2="618.5" y1="191" y2="191"/><text fill="#000000" font-family="sans-serif" font-size="14" lengthAdjust="spacingAndGlyphs" textLength="27" x="582.5" y="205.9883">SC Ⰳ</text><!--MD5=[9937ddb23bf1d29a54bfe00ffc548652]
entity SCDobro--><rect fill="#FEFECE" filter="url(#f1jrh8036pbjl4)" height="39.4063" style="stroke: #000000; stroke-width: 1.5;" width="57" x="480.5" y="180"/><polygon fill="#FEFECE" points="520.5,185,520.5,199,532.5,199,532.5,191,526.5,185,520.5,185" style="stroke: #000000; stroke-width: 1.5;"/><line style="stroke: #000000; stroke-width: 1.5;" x1="526.5" x2="526.5" y1="185" y2="191"/><line style="stroke: #000000; stroke-width: 1.5;" x1="532.5" x2="526.5" y1="191" y2="191"/><text fill="#000000" font-family="sans-serif" font-size="14" lengthAdjust="spacingAndGlyphs" textLength="27" x="490.5" y="205.9883">SC Ⰴ</text><!--MD5=[99369b77bc2fc5defb7c90e03a57c3b8]
entity SCYest--><rect fill="#FEFECE" filter="url(#f1jrh8036pbjl4)" height="39.4063" style="stroke: #000000; stroke-width: 1.5;" width="57" x="388.5" y="180"/><polygon fill="#FEFECE" points="428.5,185,428.5,199,440.5,199,440.5,191,434.5,185,428.5,185" style="stroke: #000000; stroke-width: 1.5;"/><line style="stroke: #000000; stroke-width: 1.5;" x1="434.5" x2="434.5" y1="185" y2="191"/><line style="stroke: #000000; stroke-width: 1.5;" x1="440.5" x2="434.5" y1="191" y2="191"/><text fill="#000000" font-family="sans-serif" font-size="14" lengthAdjust="spacingAndGlyphs" textLength="27" x="398.5" y="205.9883">SC Ⰵ</text><!--MD5=[1aa8c070b4aef47debcefaca7e4b8ab5]
entity SCZhivete--><rect fill="#FEFECE" filter="url(#f1jrh8036pbjl4)" height="39.4063" style="stroke: #000000; stroke-width: 1.5;" width="57" x="296.5" y="180"/><polygon fill="#FEFECE" points="336.5,185,336.5,199,348.5,199,348.5,191,342.5,185,336.5,185" style="stroke: #000000; stroke-width: 1.5;"/><line style="stroke: #000000; stroke-width: 1.5;" x1="342.5" x2="342.5" y1="185" y2="191"/><line style="stroke: #000000; stroke-width: 1.5;" x1="348.5" x2="342.5" y1="191" y2="191"/><text fill="#000000" font-family="sans-serif" font-size="14" lengthAdjust="spacingAndGlyphs" textLength="27" x="306.5" y="205.9883">SC Ⰶ</text><!--MD5=[1ef65b70dc8108fbee6bb9757f0e6437]
entity NetmapSC--><rect fill="#FEFECE" filter="url(#f1jrh8036pbjl4)" height="39.4063" style="stroke: #000000; stroke-width: 1.5;" width="103" x="158.5" y="180"/><polygon fill="#FEFECE" points="244.5,185,244.5,199,256.5,199,256.5,191,250.5,185,244.5,185" style="stroke: #000000; stroke-width: 1.5;"/><line style="stroke: #000000; stroke-width: 1.5;" x1="250.5" x2="250.5" y1="185" y2="191"/><line style="stroke: #000000; stroke-width: 1.5;" x1="256.5" x2="250.5" y1="191" y2="191"/><text fill="#000000" font-family="sans-serif" font-size="14" lengthAdjust="spacingAndGlyphs" textLength="73" x="168.5" y="205.9883">SC Netmap</text><!--MD5=[5e63c1afb9a3d11ba7f1d25c70d0d93e]
entity AuditSC--><rect fill="#FEFECE" filter="url(#f1jrh8036pbjl4)" height="39.4063" style="stroke: #000000; stroke-width: 1.5;" width="85" x="38.5" y="180"/><polygon fill="#FEFECE" points="106.5,185,106.5,199,118.5,199,118.5,191,112.5,185,106.5,185" style="stroke: #000000; stroke-width: 1.5;"/><line style="stroke: #000000; stroke-width: 1.5;" x1="112.5" x2="112.5" y1="185" y2="191"/><line style="stroke: #000000; stroke-width: 1.5;" x1="118.5" x2="112.5" y1="191" y2="191"/><text fill="#000000" font-family="sans-serif" font-size="14" lengthAdjust="spacingAndGlyphs" textLength="55" x="48.5" y="205.9883">SC Audit</text><!--MD5=[127e10eb524d0a6ea998aa62a01aaf04]
link IRAz to SCAz--><path d="M886.69,105.27 C884.61,125.21 881.58,154.37 879.47,174.75 " fill="none" id="IRAz-&gt;SCAz" style="stroke: #A80036; stroke-width: 1.0;"/><polygon fill="#A80036" points="878.95,179.73,883.8549,171.1894,879.4645,174.7565,875.8973,170.3662,878.95,179.73" style="stroke: #A80036; stroke-width: 1.0;"/><!--MD5=[3d726ee2f1a85d2152736cc0ddfaafad]
link IRBuky to SCBuky--><path d="M791.46,105.27 C790.08,125.13 788.07,154.12 786.66,174.49 " fill="none" id="IRBuky-&gt;SCBuky" style="stroke: #A80036; stroke-width: 1.0;"/><polygon fill="#A80036" points="786.3,179.73,790.908,171.0256,786.643,174.7418,782.9269,170.4768,786.3,179.73" style="stroke: #A80036; stroke-width: 1.0;"/><!--MD5=[c024a05543e87ded57efd041b8920b05]
link IRVedi to SCVedi--><path d="M696.23,105.27 C695.54,125.13 694.54,154.12 693.83,174.49 " fill="none" id="IRVedi-&gt;SCVedi" style="stroke: #A80036; stroke-width: 1.0;"/><polygon fill="#A80036" points="693.65,179.73,697.956,170.8723,693.8213,174.7329,689.9607,170.5982,693.65,179.73" style="stroke: #A80036; stroke-width: 1.0;"/><!--MD5=[6ee152d9a79ad0c0156623ee14de513a]
link IRGlagoli to SCGlagoli--><path d="M601,105.27 C601,125.13 601,154.12 601,174.49 " fill="none" id="IRGlagoli-&gt;SCGlagoli" style="stroke: #A80036; stroke-width: 1.0;"/><polygon fill="#A80036" points="601,179.73,605,170.73,601,174.73,597,170.73,601,179.73" style="stroke: #A80036; stroke-width: 1.0;"/><!--MD5=[15cb84f82b79bffce52461a67da849c3]
link IRDobro to SCDobro--><path d="M505.77,105.27 C506.46,125.13 507.46,154.12 508.17,174.49 " fill="none" id="IRDobro-&gt;SCDobro" style="stroke: #A80036; stroke-width: 1.0;"/><polygon fill="#A80036" points="508.35,179.73,512.0393,170.5982,508.1787,174.7329,504.044,170.8723,508.35,179.73" style="stroke: #A80036; stroke-width: 1.0;"/><!--MD5=[6c26d16d8619813c2d29100f7fb4ac1f]
link IRYest to SCYest--><path d="M410.54,105.27 C411.92,125.13 413.93,154.12 415.34,174.49 " fill="none" id="IRYest-&gt;SCYest" style="stroke: #A80036; stroke-width: 1.0;"/><polygon fill="#A80036" points="415.7,179.73,419.0731,170.4768,415.357,174.7418,411.092,171.0256,415.7,179.73" style="stroke: #A80036; stroke-width: 1.0;"/><!--MD5=[8593c9e9c7745affd2338767a1798b7e]
link IRZhivete to SCZhivete--><path d="M315.31,105.27 C317.39,125.21 320.42,154.37 322.53,174.75 " fill="none" id="IRZhivete-&gt;SCZhivete" style="stroke: #A80036; stroke-width: 1.0;"/><polygon fill="#A80036" points="323.05,179.73,326.1027,170.3662,322.5355,174.7565,318.1451,171.1894,323.05,179.73" style="stroke: #A80036; stroke-width: 1.0;"/><!--MD5=[6bf1d447b2707bfe0ec34bb017234aae]
@startuml

frame "NeoFS IR" {
node "IR Ⰰ" as IRAz
node "IR Ⰱ" as IRBuky
node "IR Ⰲ" as IRVedi
node "IR Ⰳ" as IRGlagoli
node "IR Ⰴ" as IRDobro
node "IR Ⰵ" as IRYest
node "IR Ⰶ" as IRZhivete

node "IR" as IR

node "IR Candidate" as IRCN

}

frame "FS chain" {
artifact "SC Ⰰ" as SCAz
artifact "SC Ⰱ" as SCBuky
artifact "SC Ⰲ" as SCVedi
artifact "SC Ⰳ" as SCGlagoli
artifact "SC Ⰴ" as SCDobro
artifact "SC Ⰵ" as SCYest
artifact "SC Ⰶ" as SCZhivete

artifact "SC Netmap" as NetmapSC
artifact "SC Audit" as AuditSC
}


IRAz - ->        SCAz
IRBuky - ->      SCBuky
IRVedi - ->      SCVedi
IRGlagoli - ->   SCGlagoli
IRDobro - ->     SCDobro
IRYest - ->      SCYest
IRZhivete - ->   SCZhivete
@enduml

PlantUML version 1.2020.09(Sun May 10 13:51:06 MSK 2020)
(GPL source distribution)
Java Runtime: OpenJDK Runtime Environment
JVM: OpenJDK 64-Bit Server VM
Java Version: 11.0.25+9-suse-150000.3.119.1-x8664
Operating System: Linux
Default Encoding: UTF-8
Language: ru
Country: RU
--></g></svg>