<?xml version="1.0" encoding="UTF-8" standalone="no"?><svg xmlns="http://www.w3.org/2000/svg" xmlns:xlink="http://www.w3.org/1999/xlink" contentScriptType="application/ecmascript" contentStyleType="text/css" height="207px" preserveAspectRatio="none" style="width:980px;height:207px;" version="1.1" viewBox="0 0 980 207" width="980px" zoomAndPan="magnify"><defs><filter height="300%" id="fvg8q8wfyhuyn" width="300%" x="-1" y="-1"><feGaussianBlur result="blurOut" stdDeviation="2.0"/><feColorMatrix in="blurOut" result="blurOut2" type="matrix" values="0 0 0 0 0 0 0 0 0 0 0 0 0 0 0 0 0 0 .4 0"/><feOffset dx="4.0" dy="4.0" in="blurOut2" result="blurOut3"/><feBlend in="SourceGraphic" in2="blurOut3" mode="normal"/></filter></defs><g><!--cluster NeoFS IR--><rect fill="#FFFFFF" filter="url(#fvg8q8wfyhuyn)" height="81" style="stroke: #000000; stroke-width: 1.5;" width="951" x="15" y="16"/><path d="M94,17 L94,25.2969 L84,35.2969 L15,35.2969 " fill="none" style="stroke: #000000; stroke-width: 1.5;"/><text fill="#000000" font-family="sans-serif" font-size="14" font-weight="bold" lengthAdjust="spacingAndGlyphs" textLength="69" x="18" y="29.9951">NeoFS IR</text><!--cluster NeoFS Sidechain--><rect fill="#FFFFFF" filter="url(#fvg8q8wfyhuyn)" height="74" style="stroke: #000000; stroke-width: 1.5;" width="938" x="14" y="122"/><path d="M155,123 L155,131.2969 L145,141.2969 L14,141.2969 " fill="none" style="stroke: #000000; stroke-width: 1.5;"/><text fill="#000000" font-family="sans-serif" font-size="14" font-weight="bold" lengthAdjust="spacingAndGlyphs" textLength="131" x="17" y="135.9951">NeoFS Sidechain</text><!--entity IRAz--><polygon fill="#FEFECE" filter="url(#fvg8q8wfyhuyn)" points="892,53,902,43,958,43,958,79.2969,948,89.2969,892,89.2969,892,53" style="stroke: #000000; stroke-width: 1.5;"/><line style="stroke: #000000; stroke-width: 1.5;" x1="948" x2="957" y1="53" y2="44"/><line style="stroke: #000000; stroke-width: 1.5;" x1="892" x2="948" y1="53" y2="53"/><line style="stroke: #000000; stroke-width: 1.5;" x1="948" x2="948" y1="53" y2="89.2969"/><text fill="#000000" font-family="sans-serif" font-size="14" lengthAdjust="spacingAndGlyphs" textLength="26" x="907" y="75.9951">IR Ⰰ</text><!--entity IRBuky--><polygon fill="#FEFECE" filter="url(#fvg8q8wfyhuyn)" points="789,53,799,43,857,43,857,79.2969,847,89.2969,789,89.2969,789,53" style="stroke: #000000; stroke-width: 1.5;"/><line style="stroke: #000000; stroke-width: 1.5;" x1="847" x2="856" y1="53" y2="44"/><line style="stroke: #000000; stroke-width: 1.5;" x1="789" x2="847" y1="53" y2="53"/><line style="stroke: #000000; stroke-width: 1.5;" x1="847" x2="847" y1="53" y2="89.2969"/><text fill="#000000" font-family="sans-serif" font-size="14" lengthAdjust="spacingAndGlyphs" textLength="28" x="804" y="75.9951">IR Ⰱ</text><!--entity IRVedi--><polygon fill="#FEFECE" filter="url(#fvg8q8wfyhuyn)" points="684.5,53,694.5,43,753.5,43,753.5,79.2969,743.5,89.2969,684.5,89.2969,684.5,53" style="stroke: #000000; stroke-width: 1.5;"/><line style="stroke: #000000; stroke-width: 1.5;" x1="743.5" x2="752.5" y1="53" y2="44"/><line style="stroke: #000000; stroke-width: 1.5;" x1="684.5" x2="743.5" y1="53" y2="53"/><line style="stroke: #000000; stroke-width: 1.5;" x1="743.5" x2="743.5" y1="53" y2="89.2969"/><text fill="#000000" font-family="sans-serif" font-size="14" lengthAdjust="spacingAndGlyphs" textLength="29" x="699.5" y="75.9951">IR Ⰲ</text><!--entity IRGlagoli--><polygon fill="#FEFECE" filter="url(#fvg8q8wfyhuyn)" points="582.5,53,592.5,43,649.5,43,649.5,79.2969,639.5,89.2969,582.5,89.2969,582.5,53" style="stroke: #000000; stroke-width: 1.5;"/><line style="stroke: #000000; stroke-width: 1.5;" x1="639.5" x2="648.5" y1="53" y2="44"/><line style="stroke: #000000; stroke-width: 1.5;" x1="582.5" x2="639.5" y1="53" y2="53"/><line style="stroke: #000000; stroke-width: 1.5;" x1="639.5" x2="639.5" y1="53" y2="89.2969"/><text fill="#000000" font-family="sans-serif" font-size="14" lengthAdjust="spacingAndGlyphs" textLength="27" x="597.5" y="75.9951">IR Ⰳ</text><!--entity IRDobro--><polygon fill="#FEFECE" filter="url(#fvg8q8wfyhuyn)" points="478.5,53,488.5,43,547.5,43,547.5,79.2969,537.5,89.2969,478.5,89.2969,478.5,53" style="stroke: #000000; stroke-width: 1.5;"/><line style="stroke: #000000; stroke-width: 1.5;" x1="537.5" x2="546.5" y1="53" y2="44"/><line style="stroke: #000000; stroke-width: 1.5;" x1="478.5" x2="537.5" y1="53" y2="53"/><line style="stroke: #000000; stroke-width: 1.5;" x1="537.5" x2="537.5" y1="53" y2="89.2969"/><text fill="#000000" font-family="sans-serif" font-size="14" lengthAdjust="spacingAndGlyphs" textLength="29" x="493.5" y="75.9951">IR Ⰴ</text><!--entity IRJest--><polygon fill="#FEFECE" filter="url(#fvg8q8wfyhuyn)" points="377,53,387,43,443,43,443,79.2969,433,89.2969,377,89.2969,377,53" style="stroke: #000000; stroke-width: 1.5;"/><line style="stroke: #000000; stroke-width: 1.5;" x1="433" x2="442" y1="53" y2="44"/><line style="stroke: #000000; stroke-width: 1.5;" x1="377" x2="433" y1="53" y2="53"/><line style="stroke: #000000; stroke-width: 1.5;" x1="433" x2="433" y1="53" y2="89.2969"/><text fill="#000000" font-family="sans-serif" font-size="14" lengthAdjust="spacingAndGlyphs" textLength="26" x="392" y="75.9951">IR Ⰵ</text><!--entity IRZhivete--><polygon fill="#FEFECE" filter="url(#fvg8q8wfyhuyn)" points="274,53,284,43,342,43,342,79.2969,332,89.2969,274,89.2969,274,53" style="stroke: #000000; stroke-width: 1.5;"/><line style="stroke: #000000; stroke-width: 1.5;" x1="332" x2="341" y1="53" y2="44"/><line style="stroke: #000000; stroke-width: 1.5;" x1="274" x2="332" y1="53" y2="53"/><line style="stroke: #000000; stroke-width: 1.5;" x1="332" x2="332" y1="53" y2="89.2969"/><text fill="#000000" font-family="sans-serif" font-size="14" lengthAdjust="spacingAndGlyphs" textLength="28" x="289" y="75.9951">IR Ⰶ</text><!--entity IR--><polygon fill="#FEFECE" filter="url(#fvg8q8wfyhuyn)" points="185.5,53,195.5,43,238.5,43,238.5,79.2969,228.5,89.2969,185.5,89.2969,185.5,53" style="stroke: #000000; stroke-width: 1.5;"/><line style="stroke: #000000; stroke-width: 1.5;" x1="228.5" x2="237.5" y1="53" y2="44"/><line style="stroke: #000000; stroke-width: 1.5;" x1="185.5" x2="228.5" y1="53" y2="53"/><line style="stroke: #000000; stroke-width: 1.5;" x1="228.5" x2="228.5" y1="53" y2="89.2969"/><text fill="#000000" font-family="sans-serif" font-size="14" lengthAdjust="spacingAndGlyphs" textLength="13" x="200.5" y="75.9951">IR</text><!--entity IRCN--><polygon fill="#FEFECE" filter="url(#fvg8q8wfyhuyn)" points="23.5,53,33.5,43,150.5,43,150.5,79.2969,140.5,89.2969,23.5,89.2969,23.5,53" style="stroke: #000000; stroke-width: 1.5;"/><line style="stroke: #000000; stroke-width: 1.5;" x1="140.5" x2="149.5" y1="53" y2="44"/><line style="stroke: #000000; stroke-width: 1.5;" x1="23.5" x2="140.5" y1="53" y2="53"/><line style="stroke: #000000; stroke-width: 1.5;" x1="140.5" x2="140.5" y1="53" y2="89.2969"/><text fill="#000000" font-family="sans-serif" font-size="14" lengthAdjust="spacingAndGlyphs" textLength="87" x="38.5" y="75.9951">IR Candidate</text><!--entity SCAz--><rect fill="#FEFECE" filter="url(#fvg8q8wfyhuyn)" height="39.2969" style="stroke: #000000; stroke-width: 1.5;" width="62" x="882" y="149"/><polygon fill="#FEFECE" points="927,154,927,168,939,168,939,160,933,154,927,154" style="stroke: #000000; stroke-width: 1.5;"/><line style="stroke: #000000; stroke-width: 1.5;" x1="933" x2="933" y1="154" y2="160"/><line style="stroke: #000000; stroke-width: 1.5;" x1="939" x2="933" y1="160" y2="160"/><text fill="#000000" font-family="sans-serif" font-size="14" lengthAdjust="spacingAndGlyphs" textLength="32" x="892" y="174.9951">SC Ⰰ</text><!--entity SCBuky--><rect fill="#FEFECE" filter="url(#fvg8q8wfyhuyn)" height="39.2969" style="stroke: #000000; stroke-width: 1.5;" width="64" x="783" y="149"/><polygon fill="#FEFECE" points="830,154,830,168,842,168,842,160,836,154,830,154" style="stroke: #000000; stroke-width: 1.5;"/><line style="stroke: #000000; stroke-width: 1.5;" x1="836" x2="836" y1="154" y2="160"/><line style="stroke: #000000; stroke-width: 1.5;" x1="842" x2="836" y1="160" y2="160"/><text fill="#000000" font-family="sans-serif" font-size="14" lengthAdjust="spacingAndGlyphs" textLength="34" x="793" y="174.9951">SC Ⰱ</text><!--entity SCVedi--><rect fill="#FEFECE" filter="url(#fvg8q8wfyhuyn)" height="39.2969" style="stroke: #000000; stroke-width: 1.5;" width="65" x="682.5" y="149"/><polygon fill="#FEFECE" points="730.5,154,730.5,168,742.5,168,742.5,160,736.5,154,730.5,154" style="stroke: #000000; stroke-width: 1.5;"/><line style="stroke: #000000; stroke-width: 1.5;" x1="736.5" x2="736.5" y1="154" y2="160"/><line style="stroke: #000000; stroke-width: 1.5;" x1="742.5" x2="736.5" y1="160" y2="160"/><text fill="#000000" font-family="sans-serif" font-size="14" lengthAdjust="spacingAndGlyphs" textLength="35" x="692.5" y="174.9951">SC Ⰲ</text><!--entity SCGlagoli--><rect fill="#FEFECE" filter="url(#fvg8q8wfyhuyn)" height="39.2969" style="stroke: #000000; stroke-width: 1.5;" width="63" x="584.5" y="149"/><polygon fill="#FEFECE" points="630.5,154,630.5,168,642.5,168,642.5,160,636.5,154,630.5,154" style="stroke: #000000; stroke-width: 1.5;"/><line style="stroke: #000000; stroke-width: 1.5;" x1="636.5" x2="636.5" y1="154" y2="160"/><line style="stroke: #000000; stroke-width: 1.5;" x1="642.5" x2="636.5" y1="160" y2="160"/><text fill="#000000" font-family="sans-serif" font-size="14" lengthAdjust="spacingAndGlyphs" textLength="33" x="594.5" y="174.9951">SC Ⰳ</text><!--entity SCDobro--><rect fill="#FEFECE" filter="url(#fvg8q8wfyhuyn)" height="39.2969" style="stroke: #000000; stroke-width: 1.5;" width="65" x="484.5" y="149"/><polygon fill="#FEFECE" points="532.5,154,532.5,168,544.5,168,544.5,160,538.5,154,532.5,154" style="stroke: #000000; stroke-width: 1.5;"/><line style="stroke: #000000; stroke-width: 1.5;" x1="538.5" x2="538.5" y1="154" y2="160"/><line style="stroke: #000000; stroke-width: 1.5;" x1="544.5" x2="538.5" y1="160" y2="160"/><text fill="#000000" font-family="sans-serif" font-size="14" lengthAdjust="spacingAndGlyphs" textLength="35" x="494.5" y="174.9951">SC Ⰴ</text><!--entity SCJest--><rect fill="#FEFECE" filter="url(#fvg8q8wfyhuyn)" height="39.2969" style="stroke: #000000; stroke-width: 1.5;" width="62" x="387" y="149"/><polygon fill="#FEFECE" points="432,154,432,168,444,168,444,160,438,154,432,154" style="stroke: #000000; stroke-width: 1.5;"/><line style="stroke: #000000; stroke-width: 1.5;" x1="438" x2="438" y1="154" y2="160"/><line style="stroke: #000000; stroke-width: 1.5;" x1="444" x2="438" y1="160" y2="160"/><text fill="#000000" font-family="sans-serif" font-size="14" lengthAdjust="spacingAndGlyphs" textLength="32" x="397" y="174.9951">SC Ⰵ</text><!--entity SCZhivete--><rect fill="#FEFECE" filter="url(#fvg8q8wfyhuyn)" height="39.2969" style="stroke: #000000; stroke-width: 1.5;" width="64" x="288" y="149"/><polygon fill="#FEFECE" points="335,154,335,168,347,168,347,160,341,154,335,154" style="stroke: #000000; stroke-width: 1.5;"/><line style="stroke: #000000; stroke-width: 1.5;" x1="341" x2="341" y1="154" y2="160"/><line style="stroke: #000000; stroke-width: 1.5;" x1="347" x2="341" y1="160" y2="160"/><text fill="#000000" font-family="sans-serif" font-size="14" lengthAdjust="spacingAndGlyphs" textLength="34" x="298" y="174.9951">SC Ⰶ</text><!--entity NetmapSC--><rect fill="#FEFECE" filter="url(#fvg8q8wfyhuyn)" height="39.2969" style="stroke: #000000; stroke-width: 1.5;" width="107" x="145.5" y="149"/><polygon fill="#FEFECE" points="235.5,154,235.5,168,247.5,168,247.5,160,241.5,154,235.5,154" style="stroke: #000000; stroke-width: 1.5;"/><line style="stroke: #000000; stroke-width: 1.5;" x1="241.5" x2="241.5" y1="154" y2="160"/><line style="stroke: #000000; stroke-width: 1.5;" x1="247.5" x2="241.5" y1="160" y2="160"/><text fill="#000000" font-family="sans-serif" font-size="14" lengthAdjust="spacingAndGlyphs" textLength="77" x="155.5" y="174.9951">SC Netmap</text><!--entity AuditSC--><rect fill="#FEFECE" filter="url(#fvg8q8wfyhuyn)" height="39.2969" style="stroke: #000000; stroke-width: 1.5;" width="88" x="22" y="149"/><polygon fill="#FEFECE" points="93,154,93,168,105,168,105,160,99,154,93,154" style="stroke: #000000; stroke-width: 1.5;"/><line style="stroke: #000000; stroke-width: 1.5;" x1="99" x2="99" y1="154" y2="160"/><line style="stroke: #000000; stroke-width: 1.5;" x1="105" x2="99" y1="160" y2="160"/><text fill="#000000" font-family="sans-serif" font-size="14" lengthAdjust="spacingAndGlyphs" textLength="58" x="32" y="174.9951">SC Audit</text><!--link IRAz to SCAz--><path d="M922.307,89.003 C920.4032,105.2642 917.8535,127.0428 915.9042,143.693 " fill="none" id="IRAz-SCAz" style="stroke: #A80036; stroke-width: 1.0;"/><polygon fill="#A80036" points="915.3199,148.6838,920.3396,140.2101,915.9015,143.7177,912.3939,139.2796,915.3199,148.6838" style="stroke: #A80036; stroke-width: 1.0;"/><!--link IRBuky to SCBuky--><path d="M821.2046,89.003 C819.9355,105.2642 818.2357,127.0428 816.9362,143.693 " fill="none" id="IRBuky-SCBuky" style="stroke: #A80036; stroke-width: 1.0;"/><polygon fill="#A80036" points="816.5466,148.6838,821.2349,140.0224,816.9357,143.699,813.2592,139.3998,816.5466,148.6838" style="stroke: #A80036; stroke-width: 1.0;"/><!--link IRVedi to SCVedi--><path d="M718.1023,89.003 C717.4732,105.124 716.6325,126.6677 715.9849,143.2612 " fill="none" id="IRVedi-SCVedi" style="stroke: #A80036; stroke-width: 1.0;"/><polygon fill="#A80036" points="715.7733,148.6838,720.1213,139.8466,715.9683,143.6876,712.1273,139.5346,715.7733,148.6838" style="stroke: #A80036; stroke-width: 1.0;"/><!--link IRGlagoli to SCGlagoli--><path d="M616,89.003 C616,105.124 616,126.6677 616,143.2612 " fill="none" id="IRGlagoli-SCGlagoli" style="stroke: #A80036; stroke-width: 1.0;"/><polygon fill="#A80036" points="616,148.6838,620,139.6838,616,143.6838,612,139.6838,616,148.6838" style="stroke: #A80036; stroke-width: 1.0;"/><!--link IRDobro to SCDobro--><path d="M513.8977,89.003 C514.5268,105.124 515.3675,126.6677 516.0151,143.2612 " fill="none" id="IRDobro-SCDobro" style="stroke: #A80036; stroke-width: 1.0;"/><polygon fill="#A80036" points="516.2267,148.6838,519.8727,139.5346,516.0317,143.6876,511.8787,139.8466,516.2267,148.6838" style="stroke: #A80036; stroke-width: 1.0;"/><!--link IRJest to SCJest--><path d="M411.7954,89.003 C413.0645,105.2642 414.7643,127.0428 416.0638,143.693 " fill="none" id="IRJest-SCJest" style="stroke: #A80036; stroke-width: 1.0;"/><polygon fill="#A80036" points="416.4534,148.6838,419.7408,139.3998,416.0643,143.699,411.7651,140.0224,416.4534,148.6838" style="stroke: #A80036; stroke-width: 1.0;"/><!--link IRZhivete to SCZhivete--><path d="M310.693,89.003 C312.5968,105.2642 315.1465,127.0428 317.0958,143.693 " fill="none" id="IRZhivete-SCZhivete" style="stroke: #A80036; stroke-width: 1.0;"/><polygon fill="#A80036" points="317.6801,148.6838,320.6061,139.2796,317.0985,143.7177,312.6604,140.2101,317.6801,148.6838" style="stroke: #A80036; stroke-width: 1.0;"/><!--
@startuml

frame "NeoFS IR" {
node "IR Ⰰ" as IRAz
node "IR Ⰱ" as IRBuky
node "IR Ⰲ" as IRVedi
node "IR Ⰳ" as IRGlagoli
node "IR Ⰴ" as IRDobro
node "IR Ⰵ" as IRJest
node "IR Ⰶ" as IRZhivete

node "IR" as IR

node "IR Candidate" as IRCN

}

frame "NeoFS Sidechain" {
artifact "SC Ⰰ" as SCAz
artifact "SC Ⰱ" as SCBuky
artifact "SC Ⰲ" as SCVedi
artifact "SC Ⰳ" as SCGlagoli
artifact "SC Ⰴ" as SCDobro
artifact "SC Ⰵ" as SCJest
artifact "SC Ⰶ" as SCZhivete

artifact "SC Netmap" as NetmapSC
artifact "SC Audit" as AuditSC
}


IRAz - ->        SCAz
IRBuky - ->      SCBuky
IRVedi - ->      SCVedi
IRGlagoli - ->   SCGlagoli
IRDobro - ->     SCDobro
IRJest - ->      SCJest
IRZhivete - ->   SCZhivete
@enduml

PlantUML version 1.2019.07(Mon Jun 24 22:59:20 MSK 2019)
(GPL source distribution)
Java Runtime: OpenJDK Runtime Environment
JVM: OpenJDK 64-Bit Server VM
Java Version: 11.0.8+10-post-Debian-1deb10u1
Operating System: Linux
OS Version: 4.19.0-10-amd64
Default Encoding: UTF-8
Language: ru
Country: RU
--></g></svg>